<svg width="620" height="600" viewBox="0 0 620 600" fill="none" xmlns="http://www.w3.org/2000/svg">
<path d="M309.976 600C253.958 600 199.09 585.399 151.307 557.766C105.969 531.576 68.0305 494.358 41.5715 450.144C14.3739 404.734 0 352.81 0 299.982C0 253.132 10.8742 208.297 32.3199 166.614L30.2856 127.064C29.8133 117.83 36.6914 109.779 46.1367 108.478L74.8481 104.541C126.458 46.3819 197.71 9.98418 276.336 1.78122C277.341 1.65231 278.31 1.55856 279.291 1.47653C285.612 0.843733 292.114 0.421867 299.162 0.187496C300.555 0.128904 302.141 0.0937482 303.679 0.0585926C305.846 0.023437 307.917 0 309.976 0C411.416 0 505.76 47.6592 563.897 127.861L568.002 128.693C577.351 130.579 583.672 139.052 582.582 148.228L581.722 155.493C606.777 199.555 620 249.382 620 299.982C620 372.051 593.202 441.741 544.534 496.209C512.796 531.669 472.472 559.782 427.897 577.5C390.503 592.418 350.821 599.988 309.988 599.988L309.976 600Z" fill="white"/>
<path d="M602.708 298.353C602.708 368.911 575.958 433.386 531.735 482.897C519.274 496.83 485.32 448.362 470.292 459.706C449.561 475.35 446.703 549.54 422.048 559.348C387.851 572.989 350.433 580.5 311.162 580.5C256.622 580.5 205.593 566.028 161.951 540.798C139.016 527.544 136.545 436.503 118.26 417.882C102.506 401.84 70.2586 458.85 58.7305 439.562C33.8578 398.043 19.6414 349.798 19.6414 298.353C19.6414 152.798 133.579 32.9876 279.823 17.8824C280.623 17.7652 281.398 17.7066 282.161 17.648C288.373 17.027 294.657 16.6403 300.966 16.4293C302.383 16.3707 303.824 16.3356 305.241 16.3121C307.215 16.277 309.177 16.2535 311.15 16.2535C472.169 16.2535 602.696 142.567 602.696 298.365L602.708 298.353Z" fill="#B1C0D4"/>
<path d="M259.77 413.969L235.103 436.726L66.4319 445.151L49.9026 124.533L213.512 102.127L250.676 150.114L259.77 413.969Z" fill="#5B68C9"/>
<path d="M138.492 223.154C154.895 222.33 167.282 204.681 166.159 183.734C165.036 162.787 150.828 146.473 134.425 147.297C118.021 148.12 105.634 165.769 106.757 186.716C107.88 207.664 122.088 223.978 138.492 223.154Z" fill="#341C17"/>
<path d="M137.988 213.78C150.331 213.16 159.651 199.879 158.806 184.115C157.961 168.351 147.27 156.074 134.928 156.694C122.585 157.314 113.265 170.595 114.11 186.359C114.955 202.123 125.646 214.4 137.988 213.78Z" stroke="#B1C0D4" stroke-width="1.5" stroke-miterlimit="10"/>
<path d="M151.368 382.939C176.453 381.68 195.397 354.692 193.68 322.66C191.962 290.628 170.234 265.682 145.149 266.941C120.063 268.201 101.119 295.189 102.836 327.221C104.554 359.253 126.282 384.199 151.368 382.939Z" fill="#341C17"/>
<path d="M148.132 370.19C167.187 369.234 181.576 348.737 180.272 324.409C178.968 300.081 162.463 281.135 143.409 282.092C124.354 283.049 109.964 303.546 111.269 327.873C112.573 352.201 129.077 371.147 148.132 370.19Z" stroke="#B1C0D4" stroke-width="2" stroke-miterlimit="10"/>
<path d="M206.065 123.431C206.065 127.908 203.849 131.529 201.112 131.529C198.376 131.529 196.16 127.908 196.16 123.431C196.16 118.955 198.376 115.334 201.112 115.334C203.849 115.334 206.065 118.955 206.065 123.431Z" fill="#341C17"/>
<path d="M70.9728 139.614C70.9728 144.091 68.7568 147.712 66.0201 147.712C63.2834 147.712 61.0674 144.091 61.0674 139.614C61.0674 135.138 63.2834 131.517 66.0201 131.517C68.7568 131.517 70.9728 135.138 70.9728 139.614Z" fill="#341C17"/>
<path d="M227.753 414.261C227.753 418.738 225.537 422.359 222.8 422.359C220.063 422.359 217.847 418.738 217.847 414.261C217.847 409.785 220.063 406.164 222.8 406.164C225.537 406.164 227.753 409.785 227.753 414.261Z" fill="#341C17"/>
<path d="M87.7081 425.957C87.7081 430.433 85.492 434.054 82.7553 434.054C80.0186 434.054 77.8026 430.433 77.8026 425.957C77.8026 421.48 80.0186 417.859 82.7553 417.859C85.492 417.859 87.7081 421.48 87.7081 425.957Z" fill="#341C17"/>
<path d="M290.346 433.949L235.103 436.726L213.512 102.127L264.723 113.33L290.346 433.949Z" fill="#341C17"/>
<path d="M336.604 420.214L359.697 444.472L527.448 463.467L565.411 144.548L403.654 111.935L363.342 157.485L336.604 420.214Z" fill="#5B68C9"/>
<path d="M504.496 203.094C507.018 182.26 495.837 163.873 479.523 162.024C463.209 160.175 447.94 175.565 445.419 196.398C442.897 217.231 454.078 235.619 470.392 237.468C486.706 239.317 501.975 223.927 504.496 203.094Z" fill="#341C17"/>
<path d="M497.184 202.265C499.081 186.587 490.668 172.75 478.393 171.358C466.118 169.967 454.629 181.549 452.731 197.227C450.834 212.905 459.247 226.742 471.522 228.133C483.797 229.525 495.286 217.943 497.184 202.265Z" stroke="#B1C0D4" stroke-width="1.5" stroke-miterlimit="10"/>
<path d="M499.024 343.565C502.879 311.707 485.78 283.59 460.831 280.762C435.882 277.934 412.531 301.467 408.676 333.325C404.82 365.182 421.92 393.3 446.869 396.127C471.818 398.955 495.168 375.422 499.024 343.565Z" fill="#341C17"/>
<path d="M490.576 343.679C493.504 319.484 480.515 298.129 461.564 295.981C442.613 293.833 424.877 311.706 421.949 335.901C419.021 360.096 432.009 381.452 450.96 383.599C469.911 385.747 487.648 367.874 490.576 343.679Z" stroke="#B1C0D4" stroke-width="2" stroke-miterlimit="10"/>
<path d="M409.66 133.65C409.357 138.115 411.331 141.864 414.068 142.04C416.805 142.216 419.263 138.736 419.553 134.271C419.856 129.806 417.882 126.056 415.146 125.88C412.409 125.705 409.951 129.185 409.66 133.65Z" fill="#341C17"/>
<path d="M543.372 158.282C543.069 162.747 545.043 166.497 547.78 166.673C550.517 166.848 552.975 163.368 553.265 158.903C553.568 154.438 551.594 150.689 548.858 150.513C546.121 150.337 543.663 153.817 543.372 158.282Z" fill="#341C17"/>
<path d="M368.537 422.523C368.234 426.988 370.208 430.738 372.945 430.914C375.681 431.089 378.14 427.609 378.43 423.144C378.733 418.679 376.759 414.929 374.022 414.754C371.286 414.578 368.827 418.058 368.537 422.523Z" fill="#341C17"/>
<path d="M507.504 442.972C507.201 447.437 509.175 451.187 511.912 451.362C514.648 451.538 517.107 448.058 517.397 443.593C517.7 439.128 515.726 435.378 512.989 435.203C510.253 435.027 507.794 438.507 507.504 442.972Z" fill="#341C17"/>
<path d="M304.757 438.237L359.697 444.472L403.654 111.935L351.801 119.904L304.757 438.237Z" fill="#341C17"/>
<path d="M237.538 234.734C229.933 244.448 203.28 281.104 197.891 320.806C196.111 334.001 192.224 358.692 187.586 387.285C187.465 388.035 187.344 388.774 187.211 389.524C185.612 399.262 183.954 409.387 182.258 419.664V419.699C181.277 425.71 180.26 431.792 179.243 437.839C177.463 448.62 175.671 459.378 173.951 469.702C173.83 470.452 173.709 471.167 173.588 471.905C168.853 500.287 164.542 525.576 161.951 540.798C119.265 516.142 83.6516 481.233 58.7305 439.562C71.0094 390.356 87.9988 323.349 92.8668 310.658C99.5512 293.233 107.701 274.893 118.684 271.577C118.72 271.542 118.781 271.518 118.805 271.542C120.5 271.061 122.22 270.944 124.073 271.249H124.109C124.327 271.284 124.569 271.307 124.811 271.366C124.811 271.366 124.811 271.155 124.872 270.768C124.872 270.651 124.908 270.499 124.932 270.346C124.969 270.194 124.993 270.018 125.053 269.842C125.114 269.667 125.175 269.421 125.235 269.221C126.313 266.034 130.103 260.022 143.266 257.186H143.363C143.702 257.069 144.065 257.011 144.441 256.917H144.477C144.477 256.917 143.399 247.003 149.866 241.132V241.097C149.987 240.98 150.144 240.886 150.302 240.769C153.474 238.12 158.306 236.421 165.693 237.136C165.693 237.136 165.656 237.019 165.632 236.773C165.329 234.628 164.058 223.941 170.1 217.765C170.1 217.73 170.137 217.73 170.137 217.73C172.171 215.644 175.029 214.097 179.061 213.558C185.673 212.691 190.105 216.922 193.036 222.488C193.036 222.523 193.072 222.546 193.096 222.582C193.132 222.675 193.193 222.757 193.217 222.851C197.831 231.816 198.691 243.968 198.691 243.968C198.691 243.968 198.933 243.698 199.393 243.218C199.611 243.007 199.829 242.773 200.132 242.468C203.207 239.398 210.909 232.402 219.894 229.449C225.246 227.691 231.071 227.398 236.605 230.281C238.24 231.148 238.664 233.234 237.562 234.687L237.538 234.734Z" fill="#FFA5BC"/>
<path d="M165.668 237.148C165.668 237.148 160.958 217.883 177.197 214.332C193.435 210.781 199.72 236.386 199.466 246.265C199.199 256.155 196.317 280.987 181.399 283.272" stroke="#341C17" stroke-width="1.91" stroke-linecap="round" stroke-linejoin="round"/>
<path d="M144.453 256.917C144.453 256.917 140.784 244.753 152.832 239.421C164.881 234.089 171.166 239.421 175.102 247.284C179.025 255.147 185.843 278.467 178.771 286.319C171.699 294.17 163.053 295.447 163.053 295.447" stroke="#341C17" stroke-width="1.91" stroke-linecap="round" stroke-linejoin="round"/>
<path d="M124.812 271.366C124.812 271.366 124.812 264.018 135.032 259.706C145.252 255.394 148.388 255.909 155.46 266.55C162.532 277.19 165.681 293.162 161.491 298.74C157.301 304.318 150.495 306.346 150.495 306.346" stroke="#341C17" stroke-width="1.91" stroke-linecap="round" stroke-linejoin="round"/>
<path d="M117.207 272.374C117.207 272.374 123.492 267.053 133.179 277.19C142.867 287.326 152.821 305.326 149.938 312.674C147.056 320.021 127.669 305.83 118.769 301.271" stroke="#341C17" stroke-width="1.91" stroke-linecap="round" stroke-linejoin="round"/>
<path d="M187.586 387.285C187.465 388.035 187.344 388.774 187.223 389.524C179.497 388.035 170.815 390.121 164.3 395.277C157.216 400.844 152.639 409.574 151.743 419.253C150.968 427.714 152.941 436.738 157.434 445.433C160.885 445.105 164.239 445.819 167.473 446.534C167.812 446.628 168.151 446.827 168.308 447.155C168.466 447.448 168.49 447.835 168.344 448.14C165.571 453.354 162.096 458.569 157.385 464.464C160.522 466.338 164.433 467.323 168.223 468.249L173.975 469.713C173.854 470.463 173.733 471.178 173.6 471.917L167.63 470.428C163.44 469.385 158.669 468.19 155.048 465.635C154.806 465.46 154.612 465.19 154.588 464.885C154.552 464.592 154.625 464.264 154.83 464.018C159.42 458.358 162.859 453.354 165.571 448.409C162.617 447.788 159.783 447.308 156.95 447.729C156.453 447.788 155.993 447.577 155.751 447.167C150.798 437.874 148.643 428.16 149.478 419.078C150.398 408.801 155.291 399.484 162.835 393.555C169.919 387.988 179.243 385.727 187.61 387.297L187.586 387.285Z" fill="#341C17"/>
<path d="M182.258 419.652V419.687C181.277 425.699 180.26 431.781 179.243 437.827C178.625 438.425 177.923 438.87 177.088 439.046C175.986 439.28 174.811 438.929 173.83 438.366C171.251 436.902 169.701 434.195 168.756 431.488C167.642 428.3 167.182 424.902 167.4 421.574C167.557 419.464 167.957 417.32 169.156 415.527C170.355 413.769 172.413 412.457 174.605 412.574C178.856 412.867 181.217 415.82 182.27 419.664L182.258 419.652Z" fill="#341C17"/>
<path d="M160.57 485.662L145.458 475.561L152.009 463.772C152.251 463.386 152.191 462.905 151.912 462.553C151.609 462.202 151.113 462.05 150.677 462.202L132.186 467.499L118.212 443.195C117.969 442.714 117.376 442.515 116.855 442.691C116.335 442.843 115.996 443.347 116.056 443.886L119.386 470.428L99.2242 478.467C98.7277 478.643 98.4491 479.123 98.5218 479.627C98.5823 480.108 98.982 480.518 99.5027 480.577L115.632 482.991L117.909 503.686C117.969 504.166 118.309 504.553 118.805 504.635C118.902 504.67 118.987 504.67 119.047 504.67C119.447 504.67 119.846 504.459 120.028 504.131L131.968 484.713L159.795 487.69C160.316 487.783 160.812 487.455 160.994 486.975C161.176 486.471 160.994 485.932 160.558 485.662H160.57ZM131.484 482.416C131.023 482.358 130.587 482.592 130.369 482.955L119.846 500.111L117.848 481.889C117.788 481.385 117.388 480.998 116.868 480.905L103.947 478.995L121.094 472.139C121.554 471.963 121.832 471.483 121.772 470.979L119.096 449.265L130.636 469.374C130.878 469.819 131.435 470.053 131.956 469.913L148.703 465.085L142.951 475.385C142.673 475.889 142.83 476.522 143.29 476.85L155.509 484.983L131.508 482.416H131.484Z" fill="#341C17"/>
<path d="M531.735 482.885C502.067 516.037 464.576 542.427 422.048 559.337C419.59 544.946 414.904 517.396 409.672 486.096C409.551 485.346 409.43 484.631 409.297 483.893C407.577 473.557 405.785 462.811 404.005 452.03C402.988 445.984 401.971 439.913 400.99 433.89V433.855C399.295 423.578 397.636 413.453 396.037 403.715C395.916 402.965 395.795 402.227 395.662 401.477C395.444 400.164 395.226 398.852 395.02 397.551C393.167 386.114 391.448 375.368 389.97 365.805C387.936 352.903 386.337 342.251 385.357 335.009C379.968 295.307 353.315 258.64 345.711 248.937C344.609 247.472 345.032 245.398 346.667 244.53C362.276 236.374 380.186 253.612 383.879 257.456C384.339 257.936 384.582 258.206 384.582 258.206C384.582 258.206 385.478 245.902 390.116 236.913C390.152 236.855 390.176 236.796 390.237 236.738C393.155 231.171 397.587 226.941 404.211 227.808C408.243 228.347 411.101 229.894 413.136 231.98L413.172 232.015C419.202 238.179 417.943 248.878 417.64 251.023C417.604 251.257 417.58 251.386 417.58 251.386C424.93 250.671 429.762 252.335 432.934 254.995C433.092 255.112 433.237 255.206 433.394 255.358V255.394C439.643 261.077 438.844 270.522 438.783 271.155V271.19C439.183 271.284 439.522 271.342 439.897 271.46H439.994C453.169 274.284 456.947 280.307 458.025 283.495C458.146 283.823 458.207 284.116 458.267 284.385C458.304 284.479 458.328 284.561 458.328 284.62C458.364 284.713 458.364 284.795 458.364 284.889C458.4 284.948 458.4 285.006 458.4 285.041C458.461 285.428 458.461 285.639 458.461 285.639C458.703 285.58 458.957 285.545 459.163 285.522H459.2C461.04 285.229 462.772 285.346 464.467 285.815C464.588 285.85 464.746 285.909 464.843 285.932C475.705 289.412 483.806 307.611 490.418 324.92C491.653 328.107 493.614 334.751 496.109 343.657C498.543 352.353 501.437 363.192 504.573 375.204C513.801 410.523 524.978 455.558 531.747 482.955L531.735 482.885Z" fill="#FFA5BC"/>
<path d="M417.58 251.339C417.58 251.339 422.29 232.074 406.052 228.523C389.813 224.972 383.528 250.577 383.783 260.456C384.049 270.346 386.931 295.178 401.862 297.463" stroke="#341C17" stroke-width="1.91" stroke-linecap="round" stroke-linejoin="round"/>
<path d="M438.795 271.108C438.795 271.108 442.464 258.944 430.416 253.612C418.367 248.292 412.082 253.612 408.146 261.475C404.223 269.339 397.405 292.658 404.477 300.51C411.549 308.373 420.195 309.639 420.195 309.639" stroke="#341C17" stroke-width="1.91" stroke-linecap="round" stroke-linejoin="round"/>
<path d="M458.437 285.557C458.437 285.557 458.437 278.21 448.217 273.897C437.996 269.585 434.86 270.1 427.788 280.741C420.716 291.381 417.568 307.353 421.758 312.931C425.947 318.509 432.753 320.537 432.753 320.537" stroke="#341C17" stroke-width="1.91" stroke-linecap="round" stroke-linejoin="round"/>
<path d="M466.041 286.577C466.041 286.577 459.757 281.256 450.069 291.393C440.382 301.529 430.428 319.529 433.31 326.877C436.192 334.224 455.579 320.033 464.479 315.475" stroke="#341C17" stroke-width="1.91" stroke-linecap="round" stroke-linejoin="round"/>
<path d="M395.662 401.476C395.783 402.226 395.904 402.965 396.025 403.715C403.751 402.226 412.433 404.312 418.948 409.469C426.032 415.035 430.61 423.765 431.506 433.445C432.281 441.905 430.307 450.929 425.814 459.624C422.363 459.296 419.009 460.01 415.776 460.725C415.437 460.819 415.097 461.018 414.94 461.346C414.783 461.639 414.758 462.026 414.904 462.331C417.677 467.546 421.152 472.76 425.863 478.655C422.726 480.53 418.815 481.514 415.025 482.44L409.273 483.905C409.394 484.655 409.515 485.369 409.648 486.108L415.618 484.619C419.808 483.576 424.579 482.381 428.2 479.827C428.442 479.651 428.636 479.381 428.66 479.077C428.696 478.784 428.624 478.455 428.418 478.209C423.828 472.549 420.389 467.546 417.677 462.6C420.631 461.979 423.465 461.499 426.299 461.921C426.795 461.979 427.255 461.768 427.497 461.358C432.45 452.065 434.606 442.351 433.77 433.269C432.85 422.992 427.958 413.675 420.414 407.746C413.33 402.18 404.005 399.918 395.638 401.488L395.662 401.476Z" fill="#341C17"/>
<path d="M400.99 433.855V433.89C401.971 439.902 402.988 445.983 404.005 452.03C404.623 452.628 405.325 453.073 406.161 453.249C407.263 453.483 408.437 453.132 409.418 452.569C411.997 451.104 413.547 448.397 414.492 445.691C415.606 442.503 416.066 439.105 415.848 435.777C415.691 433.667 415.291 431.523 414.092 429.73C412.893 427.972 410.835 426.66 408.643 426.777C404.393 427.07 402.031 430.023 400.978 433.867L400.99 433.855Z" fill="#341C17"/>
<path d="M484.036 492.658L463.874 484.619L467.192 458.077C467.253 457.538 466.913 457.034 466.393 456.882C465.872 456.706 465.279 456.917 465.037 457.386L451.062 481.69L432.571 476.393C432.135 476.241 431.651 476.393 431.336 476.756C431.058 477.12 430.997 477.588 431.239 477.975L437.79 489.764L422.678 499.865C422.242 500.135 422.06 500.674 422.242 501.178C422.424 501.658 422.92 501.986 423.441 501.893L451.268 498.916L463.208 518.334C463.39 518.662 463.789 518.873 464.189 518.873C464.249 518.873 464.346 518.873 464.431 518.838C464.928 518.744 465.267 518.357 465.327 517.888L467.604 497.193L483.733 494.779C484.254 494.721 484.654 494.299 484.714 493.83C484.775 493.326 484.496 492.846 484.012 492.67L484.036 492.658ZM466.405 495.096C465.884 495.19 465.485 495.576 465.424 496.08L463.426 514.302L452.903 497.147C452.685 496.783 452.261 496.549 451.789 496.608L427.788 499.174L440.006 491.041C440.467 490.713 440.624 490.092 440.346 489.576L434.594 479.276L451.341 484.104C451.862 484.256 452.419 484.01 452.661 483.565L464.201 463.456L461.525 485.17C461.464 485.674 461.743 486.155 462.203 486.33L479.35 493.186L466.429 495.096H466.405Z" fill="#341C17"/>
<path d="M508.194 373.2C473.852 392.043 432.837 400.879 393.53 397.422C391.569 386.582 389.304 376.282 387.343 365.442C410.435 369.133 434.024 364.223 456.548 358.059C471.648 353.923 486.736 349.153 500.19 341.325C502.406 351.649 505.094 363.098 508.206 373.212L508.194 373.2Z" fill="#341C17"/>
<path d="M402.721 377.067L396.824 358.809L412.93 371.735L402.721 377.067Z" fill="#F7EDE5"/>
<path d="M421.576 382L437.681 381.239L427.473 400.633L421.576 382Z" fill="#F7EDE5"/>
<path d="M445.54 372.883L459.297 370.598L448.689 355.388L445.54 372.883Z" fill="#F7EDE5"/>
<path d="M467.156 375.543L480.113 372.883V393.414L467.156 375.543Z" fill="#F7EDE5"/>
<path d="M484.048 361.856L495.043 355.388L485.223 346.646L484.048 361.856Z" fill="#F7EDE5"/>
<path d="M197.104 228.113L372.339 64.5924L377.801 70.5337L200.543 248.925L199.756 237.241L197.104 228.113Z" fill="#A7644F"/>
<path d="M388.905 54.3387C392.501 57.8191 390.83 65.0846 385.163 70.5689C379.496 76.0531 371.988 77.6703 368.391 74.1899C364.795 70.7095 366.466 63.444 372.133 57.9598C377.8 52.4755 385.308 50.8583 388.905 54.3387Z" fill="#A7644F"/>
<path d="M391.448 232.964L202.529 56.495L196.656 62.8933L383.589 252.101C383.589 252.101 383.589 248.175 386.604 241.577C389.619 234.98 391.448 232.964 391.448 232.964Z" fill="#A7644F"/>
<path d="M184.716 45.4561C180.841 49.206 182.646 57.0223 188.737 62.9167C194.828 68.8111 202.905 70.5572 206.78 66.8072C210.655 63.0573 208.85 55.2411 202.759 49.3466C196.668 43.4522 188.591 41.7062 184.716 45.4561Z" fill="#A7644F"/>
<path d="M279.581 546.833C279.121 547.021 278.576 546.88 278.261 546.47L236.302 489.776C236.097 489.506 236.048 489.143 236.145 488.826C236.254 488.51 236.496 488.252 236.847 488.147L291.352 470.358C291.933 470.17 292.551 470.463 292.744 471.026C292.938 471.588 292.623 472.163 292.054 472.374L238.966 489.694L280.066 545.216C280.417 545.696 280.308 546.364 279.811 546.704C279.739 546.751 279.666 546.798 279.593 546.821L279.581 546.833Z" fill="#5B68C9"/>
<path d="M280.053 545.087C280.053 545.087 257.482 542.099 252.129 552.88C246.777 563.649 259.443 572.93 270.087 564.575C280.732 556.22 280.053 545.099 280.053 545.099V545.087Z" fill="#5B68C9"/>
<path d="M334.073 529.045C333.613 529.232 333.068 529.091 332.753 528.681L290.782 471.987C290.431 471.507 290.54 470.839 291.037 470.499C291.533 470.159 292.223 470.264 292.575 470.745L334.546 527.439C334.897 527.92 334.788 528.587 334.291 528.927C334.219 528.974 334.146 529.021 334.073 529.045Z" fill="#5B68C9"/>
<path d="M334.558 527.31C334.558 527.31 311.986 524.322 306.634 535.091C301.281 545.861 313.948 555.142 324.592 546.786C335.236 538.419 334.558 527.31 334.558 527.31Z" fill="#5B68C9"/>
<path d="M301.088 484.866C301.088 484.866 301.039 484.877 301.015 484.889L247.213 502.397C246.632 502.584 246.014 502.279 245.82 501.729C245.627 501.166 245.954 500.568 246.511 500.381L300.313 482.874C300.894 482.686 301.511 482.991 301.705 483.541C301.887 484.081 301.608 484.655 301.075 484.866H301.088Z" fill="#5B68C9"/>
<path d="M279.824 17.8826C280.623 17.7654 281.398 17.7068 282.161 17.6482L281.604 20.1208L281.083 22.3004L269.167 73.9205L269.131 74.0729C269.034 74.5533 268.61 74.8815 268.114 74.9049C268.017 74.9049 267.896 74.9049 267.811 74.8697C267.714 74.8346 267.654 74.8111 267.569 74.776C267.133 74.5651 266.866 74.0612 266.988 73.5807L267.448 71.612L279.824 17.8826Z" fill="#5B68C9"/>
<path d="M334.885 33.4566V33.5152C334.824 33.6089 334.788 33.6675 334.764 33.7495C334.461 34.2534 333.807 34.4058 333.25 34.1362L332.548 33.7495L300.967 16.4178C302.383 16.3593 303.824 16.3241 305.241 16.3007L334.207 32.2378L334.328 32.2964C334.425 32.355 334.51 32.4136 334.57 32.4722C334.631 32.5308 334.691 32.5894 334.728 32.648C334.885 32.8824 334.945 33.1519 334.885 33.4566Z" fill="#5B68C9"/>
<path d="M269.24 73.9556C269.24 73.9556 256.501 55.6865 244.634 59.0028C232.766 62.3191 234.062 77.647 247.588 79.7446C261.126 81.8539 269.24 73.9556 269.24 73.9556Z" fill="#5B68C9"/>
<path d="M317.605 102.232C317.157 102.021 316.902 101.529 317.011 101.037L332.717 32.9759C332.85 32.4017 333.444 32.0384 334.037 32.1673C334.63 32.2963 335.006 32.8705 334.873 33.4447L319.155 101.506C319.021 102.08 318.428 102.443 317.835 102.314C317.75 102.291 317.665 102.268 317.592 102.232H317.605Z" fill="#5B68C9"/>
<path d="M319.264 101.424C319.264 101.424 306.525 83.1547 294.657 86.4711C282.79 89.7874 284.086 105.115 297.612 107.213C311.15 109.322 319.264 101.424 319.264 101.424Z" fill="#5B68C9"/>
<path d="M329.666 48.9951C329.666 48.9951 329.617 48.9717 329.605 48.96L280.259 21.8082C279.727 21.5152 279.545 20.8707 279.848 20.3551C280.15 19.8395 280.829 19.6754 281.349 19.9566L330.695 47.1085C331.228 47.4014 331.409 48.0459 331.107 48.5616C330.816 49.0537 330.186 49.2412 329.666 48.9951Z" fill="#5B68C9"/>
</svg>
