<svg width="524" height="510" viewBox="0 0 524 510" fill="none" xmlns="http://www.w3.org/2000/svg">
<path d="M263.681 509.951C122.114 512.799 -2.86131 391.715 0.0498675 254.693C-1.58574 130.889 98.6905 18.2019 225.599 2.04539C596.286 -37.0511 635.921 497.131 263.692 509.951H263.681Z" fill="white"/>
<path d="M511.594 254.036C511.594 265.62 510.761 276.996 509.084 288.152C496.648 372.999 400.229 300.952 321.133 332.986C306.454 338.942 329.167 486.164 313.202 489.302C297.206 492.439 280.644 494.093 263.681 494.093C212.7 494.093 165.298 479.191 125.909 453.642C124.078 452.447 129.829 438.202 128.018 436.987C127.257 436.459 128.111 431.051 127.35 430.513C124.706 428.66 112.948 444.667 110.407 442.715C88.0539 425.712 68.8483 405.053 53.6649 381.684C52.9346 380.569 52.2042 379.433 51.4635 378.288C28.8016 342.05 15.7373 299.517 15.7373 254.026C15.7373 165.344 65.3919 87.8982 139.252 46.3315C140.136 45.8235 141.062 45.3155 141.978 44.8075C156.029 37.1575 170.925 30.7626 186.52 25.8221C199.512 21.7082 209.768 55.5852 223.244 53.4137C223.717 53.334 236.637 52.1985 237.11 52.1188C237.892 52.0192 229.241 16.2397 230.023 16.1401C241.04 14.6659 252.273 13.9387 263.681 13.9387C400.589 13.9387 511.594 121.417 511.594 254.016V254.036Z" fill="#B7AD7A"/>
<path d="M314.714 206.204C309.663 248.856 304.613 291.499 299.562 334.151C183.639 303.332 105.655 222.828 82.0566 108.607C124.582 106.206 167.098 103.806 209.624 101.405C224.941 156.877 257.766 189.938 314.714 206.204Z" fill="#F7EDE5"/>
<path d="M105.078 152.933C137.801 144.327 170.513 135.711 203.236 127.104" stroke="#341C17" stroke-width="1.32" stroke-linecap="round" stroke-linejoin="round"/>
<path d="M108.689 162.446C140.907 152.415 173.126 142.394 205.334 132.364" stroke="#341C17" stroke-width="1.32" stroke-linecap="round" stroke-linejoin="round"/>
<path d="M112.66 171.789C144.323 160.374 175.975 148.948 207.638 137.533" stroke="#341C17" stroke-width="1.32" stroke-linecap="round" stroke-linejoin="round"/>
<path d="M116.98 180.933C148.026 168.143 179.072 155.363 210.117 142.574" stroke="#341C17" stroke-width="1.32" stroke-linecap="round" stroke-linejoin="round"/>
<path d="M121.661 189.898C152.038 175.773 182.425 161.649 212.802 147.524" stroke="#341C17" stroke-width="1.32" stroke-linecap="round" stroke-linejoin="round"/>
<path d="M108.35 146.638C114.8 166.011 119.027 175.315 129.139 192.806" stroke="#341C17" stroke-width="1.32" stroke-linecap="round" stroke-linejoin="round"/>
<path d="M144.189 188.065C144.107 188.105 143.973 188.045 143.88 187.915C138.428 180.754 135.846 177.008 131.032 169.219C130.929 169.05 130.919 168.86 131.012 168.791C131.094 168.721 131.248 168.791 131.351 168.95C136.155 176.719 138.727 180.465 144.168 187.617C144.282 187.766 144.312 187.955 144.23 188.035C144.22 188.045 144.21 188.055 144.189 188.065Z" fill="#341C17"/>
<path d="M144.148 187.587C144.148 187.587 139.004 185.853 138.727 188.842C138.449 191.83 142.039 195.027 143.623 192.926C145.207 190.824 144.148 187.597 144.148 187.597V187.587Z" fill="#341C17"/>
<path d="M149.435 166.798C149.343 166.828 149.23 166.769 149.137 166.639C144.498 159.637 142.327 155.981 138.315 148.411C138.233 148.251 138.243 148.072 138.336 148.002C138.428 147.943 138.572 148.012 138.665 148.182C142.667 155.742 144.837 159.388 149.456 166.38C149.549 166.53 149.559 166.709 149.477 166.779C149.466 166.788 149.446 166.798 149.435 166.798Z" fill="#341C17"/>
<path d="M149.456 166.34C149.456 166.34 144.549 164.428 143.952 167.217C143.356 170.006 146.586 173.193 148.366 171.311C150.155 169.428 149.456 166.34 149.456 166.34Z" fill="#341C17"/>
<path d="M170.76 173.681C170.678 173.721 170.554 173.681 170.472 173.562C165.689 167.516 163.405 164.348 159.146 157.744C159.054 157.605 159.054 157.435 159.146 157.366C159.239 157.296 159.383 157.356 159.475 157.495C163.724 164.089 165.997 167.247 170.77 173.283C170.873 173.413 170.883 173.572 170.801 173.652C170.791 173.662 170.781 173.671 170.76 173.681Z" fill="#341C17"/>
<path d="M170.76 173.253C170.76 173.253 165.894 171.988 165.421 174.658C164.948 177.327 168.219 179.977 169.886 178.014C171.552 176.052 170.76 173.253 170.76 173.253Z" fill="#341C17"/>
<path d="M175.008 156.608C174.916 156.638 174.803 156.588 174.731 156.479C170.585 150.552 168.631 147.454 165.02 141.01C164.948 140.87 164.958 140.711 165.061 140.661C165.154 140.601 165.298 140.661 165.37 140.8C168.98 147.235 170.925 150.323 175.06 156.24C175.142 156.369 175.142 156.519 175.06 156.588C175.05 156.588 175.029 156.608 175.019 156.608H175.008Z" fill="#341C17"/>
<path d="M175.05 156.21C175.05 156.21 170.349 154.766 169.618 157.256C168.888 159.736 171.861 162.406 173.702 160.643C175.554 158.889 175.05 156.21 175.05 156.21Z" fill="#341C17"/>
<path d="M192.383 162.605C192.301 162.645 192.188 162.605 192.105 162.515C187.836 157.386 185.789 154.686 181.952 149.038C181.87 148.919 181.88 148.769 181.973 148.71C182.065 148.65 182.209 148.69 182.281 148.809C186.108 154.447 188.145 157.136 192.404 162.256C192.496 162.366 192.496 162.515 192.404 162.585C192.393 162.595 192.383 162.605 192.362 162.615L192.383 162.605Z" fill="#341C17"/>
<path d="M192.404 162.216C192.404 162.216 187.754 161.34 187.137 163.75C186.519 166.161 189.523 168.362 191.262 166.52C193 164.677 192.404 162.216 192.404 162.216Z" fill="#341C17"/>
<path d="M198.308 146.887C198.216 146.917 198.113 146.887 198.041 146.797C194.368 141.846 192.62 139.257 189.379 133.828C189.307 133.718 189.338 133.579 189.431 133.519C189.523 133.469 189.667 133.519 189.729 133.629C192.969 139.037 194.708 141.627 198.37 146.558C198.452 146.658 198.432 146.797 198.349 146.867C198.339 146.867 198.319 146.887 198.308 146.887Z" fill="#341C17"/>
<path d="M198.37 146.528C198.37 146.528 193.864 145.502 193 147.713C192.136 149.915 194.872 152.106 196.786 150.472C198.699 148.839 198.37 146.538 198.37 146.538V146.528Z" fill="#341C17"/>
<path d="M142.625 222.241C169.999 203.265 197.362 184.29 224.735 165.314" stroke="#341C17" stroke-width="1.32" stroke-linecap="round" stroke-linejoin="round"/>
<path d="M148.88 230.159C175.348 209.989 201.816 189.828 228.274 169.657" stroke="#341C17" stroke-width="1.32" stroke-linecap="round" stroke-linejoin="round"/>
<path d="M155.433 237.839C180.944 216.513 206.466 195.187 231.977 173.861" stroke="#341C17" stroke-width="1.32" stroke-linecap="round" stroke-linejoin="round"/>
<path d="M162.284 245.27C186.808 222.818 211.321 200.377 235.845 177.925" stroke="#341C17" stroke-width="1.32" stroke-linecap="round" stroke-linejoin="round"/>
<path d="M169.423 252.442C192.908 228.905 216.382 205.377 239.867 181.839" stroke="#341C17" stroke-width="1.32" stroke-linecap="round" stroke-linejoin="round"/>
<path d="M143.685 215.158C155.556 231.474 162.345 239.084 177.241 252.85" stroke="#341C17" stroke-width="1.32" stroke-linecap="round" stroke-linejoin="round"/>
<path d="M189.585 243.398C189.523 243.457 189.379 243.447 189.245 243.348C181.932 238.118 178.372 235.319 171.511 229.373C171.367 229.243 171.295 229.064 171.357 228.964C171.418 228.865 171.583 228.885 171.727 229.014C178.578 234.951 182.127 237.75 189.431 242.969C189.585 243.079 189.667 243.258 189.626 243.358C189.626 243.378 189.606 243.388 189.595 243.398H189.585Z" fill="#341C17"/>
<path d="M189.4 242.939C189.4 242.939 184.112 242.9 184.802 245.908C185.491 248.916 189.842 250.868 190.624 248.308C191.406 245.748 189.4 242.939 189.4 242.939Z" fill="#341C17"/>
<path d="M187.672 221.045C187.6 221.105 187.466 221.085 187.353 220.986C180.893 215.716 177.755 212.917 171.737 206.981C171.614 206.851 171.562 206.682 171.634 206.592C171.696 206.503 171.861 206.523 171.984 206.652C177.992 212.569 181.119 215.368 187.569 220.627C187.702 220.737 187.764 220.906 187.713 221.006C187.713 221.016 187.692 221.036 187.682 221.045H187.672Z" fill="#341C17"/>
<path d="M187.538 220.597C187.538 220.597 182.425 220.348 182.754 223.237C183.084 226.125 187.054 228.167 188.104 225.767C189.153 223.356 187.538 220.607 187.538 220.607V220.597Z" fill="#341C17"/>
<path d="M209.48 220.826C209.418 220.886 209.284 220.886 209.171 220.806C202.834 216.463 199.738 214.132 193.762 209.142C193.638 209.033 193.587 208.873 193.648 208.783C193.71 208.684 193.864 208.694 193.988 208.803C199.954 213.774 203.04 216.105 209.367 220.438C209.5 220.527 209.562 220.687 209.521 220.786C209.521 220.796 209.5 220.816 209.49 220.826H209.48Z" fill="#341C17"/>
<path d="M209.336 220.418C209.336 220.418 204.449 220.756 204.861 223.496C205.272 226.245 209.14 227.779 210.045 225.329C210.961 222.888 209.325 220.408 209.325 220.408L209.336 220.418Z" fill="#341C17"/>
<path d="M207.978 202.897C207.906 202.956 207.782 202.946 207.68 202.867C202.012 198.484 199.255 196.143 193.947 191.163C193.834 191.053 193.803 190.904 193.875 190.814C193.947 190.724 194.091 190.744 194.204 190.844C199.502 195.814 202.248 198.155 207.906 202.528C208.029 202.618 208.071 202.777 208.009 202.867C208.009 202.877 207.988 202.897 207.978 202.906V202.897Z" fill="#341C17"/>
<path d="M207.885 202.488C207.885 202.488 203.112 202.618 203.215 205.257C203.318 207.897 206.898 209.511 208.04 207.21C209.181 204.909 207.875 202.488 207.875 202.488H207.885Z" fill="#341C17"/>
<path d="M225.846 203.086C225.784 203.146 225.661 203.156 225.558 203.086C219.993 199.47 217.267 197.518 211.979 193.314C211.866 193.225 211.825 193.075 211.897 192.986C211.959 192.896 212.103 192.896 212.216 192.986C217.493 197.169 220.209 199.121 225.764 202.727C225.877 202.807 225.928 202.946 225.877 203.046C225.877 203.056 225.856 203.076 225.846 203.086Z" fill="#341C17"/>
<path d="M225.754 202.707C225.754 202.707 221.197 203.355 221.392 205.895C221.587 208.435 225.064 209.62 226.072 207.26C227.081 204.909 225.743 202.707 225.743 202.707H225.754Z" fill="#341C17"/>
<path d="M226.34 185.923C226.268 185.983 226.155 185.983 226.072 185.923C221.145 182.337 218.738 180.415 214.088 176.291C213.985 176.202 213.975 176.062 214.047 175.982C214.119 175.903 214.263 175.903 214.356 175.982C218.995 180.086 221.392 182.009 226.309 185.585C226.412 185.664 226.443 185.794 226.381 185.883C226.381 185.893 226.36 185.903 226.35 185.913L226.34 185.923Z" fill="#341C17"/>
<path d="M226.288 185.555C226.288 185.555 221.834 186.033 221.731 188.444C221.629 190.854 224.828 192.079 226.072 189.878C227.317 187.677 226.288 185.555 226.288 185.555Z" fill="#341C17"/>
<path d="M199.224 277.354C218.347 250.032 237.46 222.709 256.583 195.386" stroke="#341C17" stroke-width="1.32" stroke-linecap="round" stroke-linejoin="round"/>
<path d="M207.638 283.172C225.517 254.962 243.406 226.743 261.284 198.534" stroke="#341C17" stroke-width="1.32" stroke-linecap="round" stroke-linejoin="round"/>
<path d="M216.3 288.68C232.913 259.624 249.516 230.558 266.129 201.502" stroke="#341C17" stroke-width="1.32" stroke-linecap="round" stroke-linejoin="round"/>
<path d="M225.188 293.879C240.484 264.017 255.781 234.164 271.088 204.301" stroke="#341C17" stroke-width="1.32" stroke-linecap="round" stroke-linejoin="round"/>
<path d="M234.302 298.76C248.251 268.15 262.21 237.531 276.159 206.921" stroke="#341C17" stroke-width="1.32" stroke-linecap="round" stroke-linejoin="round"/>
<path d="M197.886 270.063C214.212 282.305 223.058 287.714 241.77 296.748" stroke="#341C17" stroke-width="1.32" stroke-linecap="round" stroke-linejoin="round"/>
<path d="M250.113 283.55C250.072 283.63 249.938 283.66 249.784 283.61C241.122 280.691 236.843 279.028 228.438 275.303C228.263 275.223 228.13 275.063 228.15 274.944C228.171 274.824 228.325 274.795 228.51 274.874C236.894 278.6 241.163 280.263 249.814 283.172C250 283.231 250.144 283.381 250.133 283.5C250.133 283.52 250.133 283.53 250.123 283.55H250.113Z" fill="#341C17"/>
<path d="M249.773 283.142C249.773 283.142 244.795 284.745 246.471 287.504C248.148 290.264 252.921 290.861 252.767 288.092C252.613 285.323 249.763 283.142 249.763 283.142H249.773Z" fill="#341C17"/>
<path d="M240.7 262.005C240.649 262.084 240.525 262.104 240.381 262.045C232.574 258.857 228.716 257.074 221.186 253.14C221.032 253.06 220.929 252.9 220.96 252.791C220.991 252.681 221.145 252.651 221.31 252.741C228.829 256.666 232.677 258.449 240.464 261.626C240.628 261.696 240.741 261.845 240.721 261.955C240.721 261.975 240.721 261.985 240.7 262.005Z" fill="#341C17"/>
<path d="M240.423 261.606C240.423 261.606 235.567 262.961 236.843 265.71C238.118 268.459 242.531 269.246 242.696 266.537C242.86 263.827 240.423 261.606 240.423 261.606Z" fill="#341C17"/>
<path d="M261.027 255.002C260.986 255.082 260.862 255.122 260.729 255.082C253.291 252.741 249.609 251.396 242.356 248.348C242.202 248.289 242.099 248.139 242.13 248.03C242.151 247.92 242.295 247.88 242.449 247.94C249.681 250.978 253.353 252.333 260.78 254.663C260.934 254.713 261.058 254.843 261.037 254.962C261.037 254.982 261.037 254.992 261.027 255.012V255.002Z" fill="#341C17"/>
<path d="M260.76 254.634C260.76 254.634 256.295 256.486 257.622 259.076C258.949 261.666 263.115 261.995 263.126 259.285C263.136 256.576 260.76 254.634 260.76 254.634Z" fill="#341C17"/>
<path d="M253.507 237.71C253.466 237.79 253.343 237.82 253.219 237.77C246.451 235.21 243.107 233.765 236.544 230.538C236.411 230.468 236.318 230.329 236.359 230.219C236.39 230.11 236.534 230.08 236.678 230.15C243.231 233.367 246.564 234.811 253.312 237.361C253.456 237.411 253.548 237.551 253.528 237.66C253.528 237.68 253.528 237.69 253.507 237.7V237.71Z" fill="#341C17"/>
<path d="M253.291 237.341C253.291 237.341 248.889 238.965 249.876 241.545C250.864 244.115 254.752 244.603 255.04 241.973C255.328 239.334 253.291 237.351 253.291 237.351V237.341Z" fill="#341C17"/>
<path d="M270.306 232.331C270.265 232.411 270.162 232.451 270.038 232.421C263.568 230.568 260.358 229.482 254.032 226.992C253.898 226.942 253.816 226.803 253.847 226.693C253.878 226.584 254.011 226.534 254.145 226.584C260.461 229.064 263.66 230.15 270.11 231.992C270.244 232.032 270.347 232.152 270.326 232.271C270.326 232.291 270.326 232.301 270.316 232.321L270.306 232.331Z" fill="#341C17"/>
<path d="M270.08 231.982C270.08 231.982 266.027 234.044 267.086 236.495C268.146 238.945 271.818 239.045 271.952 236.395C272.085 233.746 270.08 231.982 270.08 231.982Z" fill="#341C17"/>
<path d="M264.915 215.188C264.874 215.268 264.761 215.308 264.658 215.268C258.856 213.266 255.976 212.121 250.318 209.541C250.195 209.491 250.133 209.351 250.174 209.252C250.215 209.142 250.339 209.102 250.462 209.162C256.11 211.732 258.98 212.878 264.761 214.87C264.885 214.91 264.957 215.039 264.926 215.149C264.926 215.169 264.926 215.179 264.905 215.188H264.915Z" fill="#341C17"/>
<path d="M264.741 214.84C264.741 214.84 260.749 216.703 261.459 219.123C262.179 221.534 265.584 221.753 265.996 219.183C266.407 216.613 264.741 214.84 264.741 214.84Z" fill="#341C17"/>
<path d="M509.074 288.152C496.637 372.999 438.352 443.562 359.256 475.596C344.577 481.552 337.099 472.189 321.133 475.327C302.524 466.452 292.32 452.018 285.047 433.272C274.812 406.915 285.263 385.749 294.398 360.149C298.636 348.266 296.044 326.451 293.061 314.21C288.956 297.256 276.365 299.756 265.667 285.741C252.818 268.967 236.164 247.402 241.4 226.922V226.892C243.046 220.428 245.505 214.143 248.652 208.286C257.633 191.631 270.45 177.666 285.582 167.177C286.055 166.848 286.528 166.52 286.991 166.211C289.82 164.308 292.721 162.535 295.684 160.892C298.327 159.417 301.002 158.053 303.749 156.788C305.58 155.951 307.411 155.144 309.293 154.407C311.515 153.491 313.768 152.654 316.041 151.897C318.346 151.11 320.701 150.403 323.078 149.795C347.571 143.181 374.275 144.396 399.087 155.553C413.067 161.838 425.36 172.735 430.524 186.8C437.272 205.277 431.336 227.122 441.232 244.224C449.009 257.682 463.215 263.13 476.722 270.202C487.636 275.93 498.633 281.608 509.074 288.142V288.152Z" fill="#FFBE64"/>
<path d="M359.267 475.596C344.587 481.552 329.167 486.164 313.202 489.302C294.593 480.427 278.731 465.605 271.458 446.848C261.223 420.492 268.681 390.151 277.815 364.562C282.054 352.678 286.816 340.078 283.833 327.836C279.729 310.882 262.395 300.563 251.697 286.548C238.849 269.774 236.174 247.392 241.41 226.912C241.307 236.495 243.612 246.017 248.683 254.354C263.578 278.858 296.661 291.03 306.032 317.965C317.605 351.214 286.426 386.416 293.102 420.88C298.523 448.811 327.233 466.959 355.471 474.609C356.726 474.938 357.981 475.267 359.267 475.576V475.596Z" fill="#341C17"/>
<path d="M379.943 231.385L373.874 236.634L371.889 238.357L368.587 241.196L366.601 242.919L363.824 245.33L361.838 247.023L356.397 251.715L354.411 253.438L349.227 257.92L342.551 248.388L333.55 235.568L330.33 230.976L293.194 177.954L285.633 167.187H285.603L186.52 25.8418C188.382 25.2342 190.233 24.6465 192.116 24.1186C192.558 23.9891 192.98 23.8696 193.422 23.7401C193.864 23.6106 194.286 23.4911 194.729 23.3815C197.506 22.5946 200.273 21.8575 203.102 21.2001C203.544 21.0706 203.997 20.971 204.439 20.8714C204.882 20.7718 205.334 20.6423 205.777 20.5626C207.608 20.1044 209.47 19.7059 211.321 19.3175C211.764 19.2179 212.237 19.1382 212.679 19.0386C213.152 18.939 213.595 18.8393 214.068 18.7597C215.086 18.5604 216.105 18.3513 217.133 18.172C217.607 18.0724 218.049 17.9927 218.522 17.9229C218.995 17.8433 219.438 17.7735 219.911 17.6938C221.536 17.3851 223.182 17.1061 224.828 16.887C225.301 16.8073 225.774 16.7376 226.237 16.6579C226.71 16.5782 227.184 16.5284 227.646 16.4587C228.428 16.3591 229.22 16.2595 230.002 16.1499L323.078 149.785H323.108L367.311 213.266L371.107 218.714L379.923 231.365L379.943 231.385Z" fill="#A7644F"/>
<path d="M366.251 299.328C390.795 299.328 410.691 280.062 410.691 256.297C410.691 232.531 390.795 213.266 366.251 213.266C341.708 213.266 321.812 232.531 321.812 256.297C321.812 280.062 341.708 299.328 366.251 299.328Z" fill="#A7644F"/>
<path d="M366.252 294.148C387.84 294.148 405.342 277.201 405.342 256.297C405.342 235.392 387.84 218.445 366.252 218.445C344.663 218.445 327.161 235.392 327.161 256.297C327.161 277.201 344.663 294.148 366.252 294.148Z" fill="#341C17"/>
<path d="M409.127 349.76L406.905 351.124L392.802 329.659L372.598 298.87L369.41 294.029L332.295 237.54L329.126 232.699L293.194 177.954L285.942 166.958L192.126 24.1186C192.568 23.9891 192.99 23.8696 193.432 23.7401C193.875 23.6106 194.296 23.491 194.739 23.3815L288.102 165.503L330.741 230.408L333.827 235.12L342.54 248.378L372.3 293.69L375.417 298.401L395.178 328.513L409.127 349.75V349.76Z" fill="#341C17"/>
<path d="M416.482 343.933L414.26 345.297L401.381 325.525L382.402 296.379L379.47 291.917L354.401 253.418L338.755 229.392L335.854 224.91L294.583 161.549L203.112 21.21C203.555 21.0805 204.007 20.9809 204.45 20.8813C204.892 20.7817 205.345 20.6522 205.787 20.5725L296.815 160.294L337.829 223.227L340.709 227.659L356.386 251.715L381.98 290.971L384.86 295.403L403.727 324.369L416.472 343.933H416.482Z" fill="#341C17"/>
<path d="M425.144 338.105L422.942 339.47L410.722 320.993L391.403 291.747L388.523 287.415L361.828 247.013L346.408 223.675L343.528 219.312L302.566 157.375L211.332 19.3373C211.774 19.2377 212.247 19.1581 212.689 19.0584C213.163 18.9588 213.605 18.8592 214.078 18.7795L304.952 156.27L345.812 218.087L348.692 222.47L363.824 245.33L390.621 285.9L393.522 290.263L413.077 319.867L425.144 338.115V338.105Z" fill="#341C17"/>
<path d="M429.176 332.278L426.954 333.673L416.616 318.134L396.484 287.853L393.532 283.42L366.601 242.919L352.045 221.025L349.083 216.593L308.069 154.935L217.143 18.1919C217.617 18.0923 218.059 18.0126 218.532 17.9428C219.005 17.8632 219.448 17.7934 219.921 17.7137L310.527 153.939L351.593 215.676L354.576 220.159L368.576 241.196L395.373 281.488L398.387 286L418.982 316.998L429.166 332.278H429.176Z" fill="#341C17"/>
<path d="M436.5 330.983L434.299 332.378L422.839 315.116L401.33 282.703L398.244 278.041L371.889 238.357L359.092 219.073L356.006 214.431L314.786 152.365L224.838 16.8969C225.311 16.8173 225.785 16.7475 226.247 16.6678C226.721 16.5882 227.194 16.5384 227.657 16.4686L317.327 151.498L358.732 213.893L361.921 218.655L373.853 236.624L399.787 275.701L402.975 280.492L425.195 313.97L436.48 330.973L436.5 330.983Z" fill="#341C17"/>
<path d="M355.224 347.857L463.483 295.443L480.847 318.094L371.93 374.383L355.224 347.857Z" fill="#A7644F"/>
<path d="M411.585 202.657C411.503 202.687 411.421 202.717 411.339 202.747C407.491 204.142 403.15 202.687 401.124 199.231C396.598 191.491 390.065 184.359 382.556 179.239C378.4 176.401 377.567 170.763 380.951 167.087C382.803 165.075 384.973 163.342 387.36 161.957C390.827 159.955 395.301 160.553 397.976 163.491C405.609 171.888 412.614 181.869 416.482 192.308C418.025 196.472 415.844 201.074 411.575 202.647L411.585 202.657Z" fill="#F7EDE5"/>
<path d="M415.279 209.929L416.071 209.481C419.908 207.299 424.835 209.361 425.823 213.575L429.989 231.355C430.781 234.732 428.641 238.108 425.164 238.945C421.698 239.782 418.18 237.799 417.223 234.463L412.265 217.131C411.473 214.342 412.707 211.393 415.279 209.929Z" fill="#F7EDE5"/>
<path d="M168.94 69.1319C162.366 58.5634 152.789 50.1764 141.978 44.8274C141.062 45.3354 140.147 45.8434 139.252 46.3514C150.269 51.4414 160.062 59.8086 166.676 70.4567C178.187 88.9342 180.708 113.209 173.558 137.055C167.674 156.698 155.268 176.46 136.68 195.755C123.41 209.541 108.278 221.962 93.6501 233.975C90.1731 236.813 86.7167 239.672 83.2604 242.541C70.5355 253.109 58.4485 263.728 50.0441 277.414C33.5029 304.378 36.4655 340.367 55.1978 365.478C53.4696 369.512 52.1838 373.845 51.4534 378.298C52.1838 379.433 52.9141 380.579 53.6548 381.694C53.7371 380.808 53.8605 379.941 53.9943 379.085C54.6012 375.18 55.6196 371.405 57.0289 367.859C60.5881 372.271 64.672 376.296 69.2291 379.842C74.5371 383.975 88.2803 392.97 101.077 387.263C108.803 383.846 114.141 375.449 115.396 364.831C116.024 359.631 116.075 349.899 109.482 343.166C100.974 334.45 86.1612 335.795 75.9567 341.622C67.6346 346.383 60.8556 353.834 56.4323 362.789C39.0783 338.534 36.5375 304.398 52.2969 278.699C60.4853 265.341 72.4283 254.872 84.9577 244.463C88.4141 241.595 91.8705 238.736 95.3474 235.897C110.027 223.834 125.21 211.363 138.583 197.478C157.449 177.885 170.04 157.794 176.058 137.772C183.382 113.269 180.8 88.2469 168.909 69.1419L168.94 69.1319ZM77.2837 343.803C86.6242 338.484 100.028 337.139 107.62 344.889C113.483 350.895 113.401 359.79 112.825 364.552C111.673 374.254 106.879 381.884 100.028 384.952C92.0762 388.498 81.1824 385.838 70.8956 377.859C66.1019 374.134 61.8637 369.851 58.2016 365.139C62.3883 356.095 69.0336 348.515 77.2837 343.803ZM119.028 447.914C118.74 448.094 118.483 448.273 118.194 448.422C118.956 448.95 119.686 449.488 120.447 450.016C120.478 450.016 120.478 449.986 120.499 449.986L119.038 447.904L119.028 447.914Z" fill="#341C17"/>
<path d="M222.297 313.96C220.507 317.656 218.172 320.923 215.58 323.732C214.901 324.499 214.191 325.226 213.471 325.913C204.47 334.629 193.864 338.494 193.864 338.494L193.813 338.564C189.112 334.569 181.757 329.509 171.851 326.083C162.016 322.696 154.425 321.79 149.487 321.69L150.176 319.588C150.176 319.588 145.691 308.741 148.51 294.098C148.695 293.132 148.911 292.126 149.158 291.12C149.672 289.108 150.33 287.006 151.174 284.895C158.653 265.8 181.88 258.538 203.544 264.993C225.219 271.487 230.558 296.788 222.277 313.96H222.297Z" fill="#341C17"/>
<path d="M193.823 338.564L191.097 343.176L189.976 345.048L156.266 402.144L155.145 404.067L125.91 453.642C124.078 452.447 122.247 451.231 120.437 450.016C119.676 449.488 118.945 448.95 118.184 448.422C115.54 446.57 112.948 444.667 110.407 442.725L126.763 392.014L127.442 389.882L146.257 331.741L146.936 329.589L149.477 321.68C154.425 321.78 162.016 322.696 171.851 326.093C181.747 329.509 189.102 334.58 193.813 338.564H193.823Z" fill="#B1C0D4"/>
<path d="M186.18 297.933C174.402 291.927 161.317 289.596 149.168 291.12C148.911 292.136 148.695 293.122 148.51 294.108C160.391 292.435 173.188 294.636 184.781 300.523C195.778 306.071 205.591 314.767 213.471 325.913C214.181 325.226 214.881 324.499 215.57 323.732C207.484 312.456 197.434 303.611 186.18 297.933Z" fill="#F7EDE5"/>
<path d="M191.108 343.186L189.986 345.048C188.649 344.232 187.188 343.415 185.635 342.598C173.486 336.153 160.01 332.448 146.257 331.741L146.936 329.589C160.823 330.406 174.433 334.171 186.715 340.686C188.299 341.522 189.729 342.349 191.108 343.186Z" fill="#341C17"/>
<path d="M166.111 346.821C165.298 345.019 163.806 343.604 161.924 342.867L161.43 342.688C159.548 342 157.48 342.05 155.649 342.837C153.787 343.624 152.378 345.068 151.647 346.891L143.953 366.225C142.615 369.622 144.087 373.497 147.378 375.27C148.839 376.057 150.495 376.306 152.09 376.077C152.614 375.997 153.057 375.877 153.53 375.718C155.546 375.031 157.192 373.537 158.005 371.634L166.172 352.479C166.954 350.656 166.934 348.624 166.121 346.802L166.111 346.821ZM164.074 351.662L155.937 370.817C155.33 372.162 154.209 373.198 152.799 373.706C151.359 374.164 149.785 374.064 148.479 373.377C146.154 372.132 145.105 369.403 146.072 366.992L153.766 347.658C154.26 346.393 155.258 345.407 156.564 344.819C157.85 344.262 159.29 344.232 160.617 344.74L161.091 344.919C162.428 345.427 163.477 346.413 164.043 347.678C164.619 348.973 164.619 350.368 164.074 351.652V351.662Z" fill="#341C17"/>
<path d="M156.266 402.154L155.155 404.077C151.678 401.327 147.944 398.787 143.963 396.735C139.653 394.514 133.584 392.193 126.784 392.024L127.473 389.892C134.417 390.181 140.609 392.552 145.012 394.783C149.034 396.865 152.789 399.405 156.266 402.154Z" fill="#341C17"/>
<path d="M207.093 422.664C206.733 422.415 206.589 421.946 206.764 421.538L231.308 364.123C231.514 363.635 232.09 363.406 232.584 363.605C233.078 363.805 233.314 364.353 233.109 364.841L208.564 422.255C208.358 422.743 207.782 422.972 207.289 422.773C207.217 422.743 207.155 422.713 207.093 422.664Z" fill="#341C17"/>
<path d="M208.667 422.195C208.667 422.195 200.448 404.346 189.554 405.541C178.661 406.736 177.354 420.363 188.844 424.158C200.335 427.953 208.678 422.195 208.678 422.195H208.667Z" fill="#341C17"/>
<path d="M345.883 110.709C345.493 110.868 345.019 110.748 344.762 110.4L309.077 62.1593C308.902 61.9302 308.861 61.6214 308.943 61.3525C309.036 61.0835 309.242 60.8644 309.54 60.7747L355.882 45.6441C356.376 45.4848 356.901 45.7437 357.065 46.2119C357.23 46.69 356.962 47.1781 356.479 47.3574L311.33 62.0995L346.274 109.344C346.573 109.752 346.48 110.32 346.058 110.609C345.997 110.649 345.935 110.689 345.863 110.709H345.883Z" fill="#341C17"/>
<path d="M346.295 109.234C346.295 109.234 327.1 106.694 322.553 115.858C317.996 125.022 328.777 132.921 337.819 125.809C346.871 118.697 346.295 109.234 346.295 109.234Z" fill="#341C17"/>
<path d="M392.236 95.578C391.845 95.7374 391.372 95.6179 391.115 95.2692L355.43 47.0287C355.131 46.6203 355.224 46.0525 355.646 45.7637C356.068 45.4748 356.654 45.5645 356.952 45.9728L392.637 94.2134C392.936 94.6218 392.843 95.1896 392.421 95.4784C392.36 95.5183 392.298 95.5581 392.236 95.578Z" fill="#341C17"/>
<path d="M392.637 94.094C392.637 94.094 373.442 91.5539 368.895 100.718C364.338 109.882 375.119 117.781 384.161 110.669C393.213 103.557 392.637 94.094 392.637 94.094Z" fill="#341C17"/>
<path d="M364.184 57.9856C364.184 57.9856 364.143 57.9955 364.122 58.0055L318.366 72.907C317.872 73.0663 317.348 72.8074 317.183 72.3392C317.019 71.8611 317.296 71.3531 317.77 71.1937L363.525 56.2922C364.019 56.1328 364.544 56.3918 364.708 56.86C364.863 57.3182 364.626 57.8063 364.173 57.9856H364.184Z" fill="#341C17"/>
</svg>
