<svg width="621" height="601" viewBox="0 0 621 601" fill="none" xmlns="http://www.w3.org/2000/svg">
<path d="M312.276 600.786C144.772 604.137 -3.09902 461.682 0.345503 300.477C-1.58976 154.834 117.07 22.2465 267.217 3.25014C705.816 -42.7466 752.712 585.715 312.288 600.797L312.276 600.786Z" fill="white"/>
<path d="M544.726 292.848C544.726 336.29 593.838 385.041 575.654 421.803C570.359 432.502 564.383 442.792 557.786 452.694C550.204 464.108 541.781 474.972 532.604 485.191C502.747 518.379 465.028 544.793 422.233 561.727C387.824 575.379 350.166 582.891 310.657 582.891C281.518 582.891 253.342 578.801 226.759 571.172H226.723C203.28 564.469 204.984 500.566 184.427 488.73C162.031 475.851 117.654 514.605 99.6647 496.652C83.1236 480.163 68.6639 461.741 56.6507 441.784C45.599 423.444 36.6773 403.768 30.1169 383.107C27.9504 376.404 26.0882 369.572 24.445 362.622C19.7712 342.618 17.3247 321.805 17.3247 300.43C17.3247 242.797 35.2533 189.218 66.0349 144.545C113.078 76.2356 147.121 144.135 236.082 134.982C236.886 134.865 395.772 27.1919 433.029 43.7039C442.596 47.9344 451.882 52.6454 460.865 57.8369C461.242 58.0127 461.607 58.2236 461.948 58.458C462.326 58.6689 441.938 137.303 442.316 137.514C456.471 145.799 490.563 76.7981 502.99 87.2045C546.844 123.85 579.269 172.835 594.41 228.593V228.628C595.554 232.742 544.714 292.825 544.714 292.825L544.726 292.848Z" fill="#A7644F"/>
<path d="M433.041 43.7272C432.323 45.0983 431.581 46.446 430.777 47.7468C420.687 64.2939 404.609 76.6105 387.922 87.0755C371.259 97.5405 353.549 106.634 338.092 118.74C295.443 152.162 270.15 206.819 280.362 258.816C259.61 260.304 238.87 261.769 218.117 263.258C215.634 263.433 211.399 264.922 212.02 267.219C204.461 234.277 182.102 205.612 154.229 185.198C128.183 166.061 97.4983 153.557 66.035 144.557C113.078 76.2472 190.16 28.809 279.121 19.6565C279.924 19.5393 280.703 19.4807 281.47 19.4221C287.726 18.801 294.043 18.4143 300.397 18.2034C301.821 18.1448 303.281 18.1096 304.705 18.0862C306.689 18.051 308.673 18.0276 310.657 18.0276C354.316 18.0276 395.784 27.2152 433.041 43.7272Z" fill="#F7EDE5"/>
<path d="M503.003 87.2279C497.489 95.3139 491.269 104.701 484.356 115.611L484.259 115.763C481.35 120.381 478.319 125.303 475.154 130.459C474.692 131.174 474.254 131.889 473.828 132.639C457.262 159.827 437.532 194.503 414.869 238.191V238.226C402.88 261.301 390.1 286.86 376.529 315.149C322.147 428.6 294.152 534.48 227.575 570.739C227.295 570.891 227.051 571.032 226.771 571.184H226.735C203.293 564.481 181.092 554.988 160.522 543.152C138.126 530.273 117.666 514.617 99.6647 496.663C101.953 437.448 142.898 382.439 163.893 344.118C186.094 303.629 191.949 266.504 191.949 266.504L147.535 237.253L149.884 238.39L321.599 233.89L298.218 260.879L284.926 303.547V303.583L284.208 305.879L362.434 197.022L378.635 174.487L383.029 168.346L383.929 167.092L384.513 166.26L397.768 147.803L399.253 145.776L411.607 128.537L413.129 126.451L426.748 107.455L427.369 106.623L428.27 105.345L461.936 58.5049C462.313 58.7158 462.679 58.9267 463.056 59.1259C477.211 67.4112 490.551 76.8332 502.978 87.2396L503.003 87.2279Z" fill="#FFBE64"/>
<path d="M463.08 59.1142L429.572 105.802L428.611 107.138L428.051 107.912L414.334 127.025L412.849 129.088L400.373 146.467L398.913 148.494L385.439 167.245L384.854 168.077L383.954 169.331L379.986 174.85L363.481 197.843L289.065 301.52L278.695 319.356L277.429 321.559L261.825 348.419L260.559 350.622L236.497 391.978L235.255 394.158L212.519 433.252L211.253 435.455L182.273 485.308C182.029 485.73 181.591 485.929 181.153 485.929C180.934 485.929 180.715 485.894 180.508 485.776C179.887 485.448 179.668 484.675 180.009 484.077L209.147 433.955L210.413 431.776L233.076 392.775L234.342 390.595L258.503 349.064L259.768 346.86L275.628 319.579V319.544L276.188 318.618L284.951 303.559V303.524L286.899 300.184L361.534 196.214L377.418 174.124L382.213 167.42L383.138 166.108L383.723 165.299L396.795 147.112L398.255 145.049L410.524 127.963L412.046 125.842L425.58 106.998L426.225 106.107L427.126 104.853L460.877 57.8369C461.255 58.0127 461.62 58.2236 461.961 58.458C462.338 58.6689 462.703 58.8799 463.08 59.0791V59.1142Z" fill="#341C17"/>
<path d="M183.198 395.177C169.906 395.177 159.135 405.583 159.135 418.345C159.135 431.107 169.906 441.514 183.198 441.514C191.924 441.514 199.605 437.014 203.816 430.275C204.254 429.56 204.68 428.81 205.021 428.072C206.445 425.119 207.248 421.814 207.248 418.357C207.248 405.595 196.44 395.189 183.185 395.189L183.198 395.177ZM201.71 428.81C197.962 434.928 191.06 439.041 183.198 439.041C171.343 439.041 161.703 429.771 161.703 418.345C161.703 406.919 171.33 397.65 183.198 397.65C195.065 397.65 204.692 406.919 204.692 418.345C204.692 421.263 204.072 424.076 202.891 426.572C202.55 427.345 202.173 428.095 201.71 428.81Z" fill="#341C17"/>
<path d="M211.496 354.981C198.241 354.981 187.433 365.353 187.433 378.15C187.433 390.947 198.241 401.318 211.496 401.318C219.578 401.318 226.759 397.439 231.129 391.533C231.628 390.876 232.09 390.162 232.492 389.447C234.476 386.107 235.583 382.263 235.583 378.15C235.583 365.353 224.775 354.981 211.496 354.981ZM230.325 388.076C229.924 388.791 229.461 389.505 228.938 390.162C225.067 395.412 218.689 398.834 211.508 398.834C199.678 398.834 190.013 389.529 190.013 378.138C190.013 366.747 199.678 357.442 211.508 357.442C223.339 357.442 233.003 366.712 233.003 378.138C233.003 381.747 232.042 385.111 230.338 388.064L230.325 388.076Z" fill="#341C17"/>
<path d="M238.663 309.125C225.408 309.125 214.6 319.532 214.6 332.294C214.6 345.055 225.408 355.485 238.663 355.485C245.82 355.485 252.222 352.473 256.689 347.704C257.249 347.083 257.772 346.427 258.271 345.735C261.119 341.95 262.762 337.298 262.762 332.294C262.762 319.532 251.954 309.125 238.675 309.125H238.663ZM256.226 344.188C255.764 344.88 255.204 345.524 254.62 346.157C250.688 350.364 244.992 353.013 238.675 353.013C226.844 353.013 217.18 343.708 217.18 332.294C217.18 320.879 226.844 311.598 238.675 311.598C250.506 311.598 260.17 320.903 260.17 332.294C260.17 336.735 258.709 340.825 256.238 344.188H256.226Z" fill="#341C17"/>
<path d="M244.225 458.108C243.97 458.108 243.702 458.026 243.471 457.874L186.52 418.228C185.948 417.83 185.814 417.057 186.228 416.494C186.642 415.943 187.445 415.814 188.03 416.213L244.98 455.858C245.552 456.256 245.686 457.03 245.272 457.592C245.016 457.932 244.627 458.108 244.225 458.108Z" fill="#341C17"/>
<path d="M281.312 422.963C281.068 422.963 280.825 422.892 280.606 422.763L212.847 380.025C212.251 379.649 212.093 378.876 212.47 378.314C212.859 377.739 213.651 377.575 214.247 377.95L282.006 420.689C282.602 421.064 282.76 421.838 282.383 422.4C282.139 422.763 281.726 422.963 281.3 422.963H281.312Z" fill="#341C17"/>
<path d="M307.59 385.849C307.31 385.849 307.03 385.767 306.799 385.58L244.298 338.341C243.738 337.919 243.641 337.134 244.079 336.595C244.517 336.056 245.321 335.962 245.881 336.384L308.381 383.623C308.941 384.045 309.038 384.83 308.6 385.369C308.345 385.685 307.967 385.849 307.59 385.849Z" fill="#341C17"/>
<path d="M333.88 360.536C333.625 360.536 333.357 360.454 333.126 360.302L276.175 320.657C275.603 320.258 275.469 319.485 275.883 318.922C276.297 318.372 277.1 318.243 277.685 318.641L334.635 358.286C335.207 358.685 335.341 359.458 334.927 360.021C334.671 360.361 334.282 360.536 333.88 360.536Z" fill="#341C17"/>
<path d="M238.663 439.041C234.208 439.041 230.143 440.705 227.112 443.424C226.467 443.986 225.871 444.584 225.347 445.275C223.023 448.053 221.635 451.627 221.635 455.471C221.635 464.53 229.279 471.901 238.663 471.901C248.047 471.901 255.727 464.541 255.727 455.471C255.727 446.401 248.084 439.041 238.663 439.041ZM238.663 469.428C230.703 469.428 224.203 463.17 224.203 455.471C224.203 452.166 225.408 449.119 227.429 446.705C227.989 446.049 228.609 445.451 229.254 444.912C231.798 442.791 235.109 441.514 238.663 441.514C246.647 441.514 253.159 447.772 253.159 455.471C253.159 463.17 246.66 469.428 238.663 469.428Z" fill="#341C17"/>
<path d="M269.907 402.783C265.915 402.783 262.227 404.119 259.318 406.357C258.6 406.897 257.955 407.494 257.37 408.115C254.583 411.033 252.879 414.912 252.879 419.178C252.879 428.237 260.523 435.608 269.907 435.608C279.291 435.608 286.971 428.248 286.971 419.178C286.971 410.108 279.328 402.783 269.907 402.783ZM269.907 433.135C261.947 433.135 255.447 426.877 255.447 419.178C255.447 415.416 256.993 411.994 259.561 409.486C260.146 408.865 260.827 408.291 261.57 407.822C263.919 406.217 266.803 405.256 269.895 405.256C277.879 405.256 284.391 411.514 284.391 419.178C284.391 426.842 277.892 433.135 269.895 433.135H269.907Z" fill="#341C17"/>
<path d="M300.287 364.521C295.857 364.521 291.864 366.161 288.834 368.81C288.189 369.372 287.568 369.97 287.032 370.626C284.647 373.462 283.223 377.036 283.223 380.939C283.223 389.997 290.903 397.369 300.287 397.369C309.671 397.369 317.351 390.009 317.351 380.939C317.351 371.868 309.708 364.509 300.287 364.509V364.521ZM300.287 394.908C292.303 394.908 285.827 388.65 285.827 380.95C285.827 377.646 287.032 374.599 289.053 372.185C289.576 371.528 290.197 370.931 290.878 370.368C293.386 368.247 296.696 366.993 300.287 366.993C308.272 366.993 314.783 373.251 314.783 380.95C314.783 388.65 308.284 394.908 300.287 394.908Z" fill="#341C17"/>
<path d="M325.117 333.313C318.836 333.313 313.347 336.594 310.438 341.458C309.939 342.173 309.574 342.923 309.257 343.696C308.478 345.548 308.052 347.599 308.052 349.755C308.052 358.814 315.696 366.185 325.117 366.185C334.538 366.185 342.181 358.825 342.181 349.755C342.181 340.684 334.538 333.325 325.117 333.325V333.313ZM334.939 359.974C334.781 360.126 334.635 360.267 334.44 360.419H334.404L334.367 360.454C331.86 362.446 328.634 363.7 325.105 363.7C317.12 363.7 310.609 357.442 310.609 349.743C310.609 348.161 310.888 346.638 311.412 345.208C311.692 344.399 312.033 343.626 312.471 342.888C314.978 338.657 319.713 335.786 325.105 335.786C333.089 335.786 339.564 342.044 339.564 349.743C339.564 353.763 337.763 357.407 334.915 359.974H334.939Z" fill="#341C17"/>
<path d="M344.968 288.887C335.56 288.887 327.904 296.246 327.904 305.317C327.904 314.387 335.548 321.747 344.968 321.747C354.389 321.747 362.033 314.387 362.033 305.317C362.033 296.246 354.389 288.887 344.968 288.887ZM344.968 319.274C336.984 319.274 330.472 313.016 330.472 305.317C330.472 297.617 336.972 291.359 344.968 291.359C352.965 291.359 359.465 297.617 359.465 305.317C359.465 313.016 352.965 319.274 344.968 319.274Z" fill="#341C17"/>
<path d="M367.766 243.347C358.357 243.347 350.701 250.707 350.701 259.742C350.701 268.777 358.345 276.172 367.766 276.172C377.186 276.172 384.793 268.812 384.793 259.742C384.793 250.671 377.15 243.347 367.766 243.347ZM367.766 273.699C359.781 273.699 353.269 267.441 353.269 259.742C353.269 252.043 359.769 245.82 367.766 245.82C375.762 245.82 382.225 252.078 382.225 259.742C382.225 267.406 375.726 273.699 367.766 273.699Z" fill="#341C17"/>
<path d="M391.707 202.296C385.974 202.296 380.899 205.014 377.831 209.21C375.823 211.893 374.643 215.175 374.643 218.726C374.643 227.761 382.286 235.12 391.707 235.12C396.636 235.12 401.091 233.093 404.183 229.87C407.031 226.952 408.771 223.015 408.771 218.714C408.771 209.655 401.128 202.284 391.707 202.284V202.296ZM402.174 228.323C399.545 231.007 395.821 232.648 391.707 232.648C383.722 232.648 377.211 226.413 377.211 218.726C377.211 215.772 378.172 213.03 379.779 210.768C382.408 207.159 386.778 204.78 391.707 204.78C399.691 204.78 406.203 211.038 406.203 218.737C406.203 222.464 404.682 225.862 402.174 228.335V228.323Z" fill="#341C17"/>
<path d="M587.947 222.651C587.947 222.651 559.904 241.214 533.626 269.328C507.348 297.441 500.349 329.493 500.349 329.493L552.905 301.942L587.959 222.651H587.947Z" fill="#341C17"/>
<path d="M524.863 323.586C524.863 323.586 360.158 196.213 357.529 192.838C354.9 189.463 349.642 179.338 358.406 173.432C367.169 167.525 398.706 181.869 398.706 181.869C398.706 181.869 370.675 157.412 373.304 146.443C375.933 135.474 389.078 140.537 389.078 140.537C389.078 140.537 380.314 125.349 397.841 121.974C397.841 121.974 395.212 109.318 405.728 102.567C416.245 95.8174 473.183 130.4 473.183 130.4L487.204 111.837C487.204 111.837 517.864 151.482 526.628 179.315C532.726 198.686 541.525 210.522 541.525 210.522L584.454 245.948L524.875 323.551L524.863 323.586Z" fill="#FFA5BC"/>
<path d="M396.661 181.424C396.344 181.424 396.028 181.319 395.784 181.096C394.957 180.358 375.616 163.025 372.926 153.228C371.466 147.908 372.318 143.314 375.276 140.642C378.343 137.865 383.394 137.408 389.467 139.365C389.577 139.4 389.687 139.447 389.784 139.517L416.354 156.955C416.938 157.342 417.097 158.115 416.695 158.678C416.293 159.24 415.49 159.393 414.906 159.006L388.482 141.674C383.418 140.08 379.353 140.361 377.028 142.459C374.776 144.486 374.192 148.189 375.397 152.607C377.905 161.713 397.318 179.116 397.513 179.291C398.036 179.76 398.06 180.545 397.586 181.037C397.33 181.307 396.989 181.436 396.636 181.436L396.661 181.424Z" fill="#341C17"/>
<path d="M388.481 141.779C388.165 141.779 387.861 141.674 387.605 141.451C387.471 141.334 384.392 138.533 384.221 134.01C384.088 130.529 385.706 127.048 389.005 123.662C397.744 114.708 424.655 132.592 429.597 136.482C430.144 136.916 430.23 137.701 429.779 138.228C429.329 138.756 428.513 138.838 427.966 138.404C420.212 132.287 397.05 119.033 390.879 125.361C388.068 128.244 386.692 131.127 386.79 133.927C386.923 137.431 389.321 139.611 389.346 139.635C389.869 140.103 389.905 140.889 389.419 141.392C389.163 141.65 388.822 141.791 388.469 141.791L388.481 141.779Z" fill="#341C17"/>
<path d="M491.574 147.967C491.257 147.967 490.929 147.85 490.685 147.627C490.612 147.568 483.845 141.334 472.318 131.338C459.599 120.322 412.642 98.595 404.986 103.611C396.807 108.955 399.935 121.283 399.959 121.4C400.129 122.068 399.716 122.736 399.034 122.9C398.34 123.076 397.646 122.677 397.464 122.009C397.318 121.435 393.849 107.876 403.537 101.56C413.494 95.0676 462.508 119.501 474.035 129.498C485.597 139.517 492.389 145.764 492.462 145.834C492.973 146.314 492.998 147.088 492.499 147.592C492.243 147.85 491.902 147.978 491.574 147.978V147.967Z" fill="#341C17"/>
<path d="M604.014 299.316C604.014 299.316 593.826 385.04 575.642 421.803L534.089 370.872L532.482 368.903L500.337 329.481L500.374 329.446C500.934 328.965 506.508 324.02 514.87 315.817C531.034 299.926 557.482 271.871 577.614 240.288C581.326 234.499 584.795 228.605 587.96 222.64L594.435 228.605V228.64C595.579 232.753 596.601 236.902 597.526 241.109C597.709 241.917 597.904 242.749 598.086 243.581C598.61 246.171 599.145 248.796 599.608 251.421C599.766 252.253 599.912 253.062 600.046 253.894C601.531 262.332 602.59 270.863 603.235 279.535C603.356 281 603.454 282.453 603.539 283.918C603.843 289.016 604.002 294.148 604.038 299.305L604.014 299.316Z" fill="#F7EDE5"/>
<path d="M603.21 279.547C603.332 281.011 603.429 282.465 603.514 283.929C572.355 334.614 534.514 370.462 534.088 370.872C533.845 371.106 533.504 371.235 533.188 371.235C532.847 371.235 532.506 371.118 532.263 370.849C531.764 370.368 531.764 369.571 532.299 369.091C532.299 369.091 532.397 368.997 532.482 368.915C535.61 365.938 573.049 329.68 603.21 279.558V279.547Z" fill="#341C17"/>
<path d="M599.595 251.433C599.437 251.492 599.291 251.492 599.133 251.492C596.808 251.492 594.921 249.675 594.921 247.472C594.921 245.597 596.248 244.015 598.086 243.593C597.903 242.761 597.709 241.929 597.526 241.12C594.556 241.835 592.353 244.402 592.353 247.472C592.353 251.046 595.384 253.976 599.133 253.976C599.437 253.976 599.754 253.941 600.033 253.917C599.912 253.085 599.754 252.277 599.595 251.445V251.433Z" fill="#341C17"/>
<path d="M190.464 197.878C190.001 198.065 189.441 197.925 189.137 197.514L146.914 140.76C146.707 140.479 146.659 140.127 146.756 139.811C146.866 139.494 147.109 139.236 147.462 139.131L202.294 121.33C202.879 121.142 203.499 121.447 203.694 121.998C203.889 122.56 203.572 123.134 203 123.345L149.58 140.689L190.938 196.272C191.291 196.753 191.182 197.421 190.683 197.761C190.61 197.807 190.537 197.854 190.452 197.878H190.464Z" fill="#341C17"/>
<path d="M190.951 196.144C190.951 196.144 168.239 193.155 162.859 203.937C157.467 214.718 170.223 224.011 180.921 215.644C191.632 207.277 190.951 196.144 190.951 196.144Z" fill="#341C17"/>
<path d="M245.308 180.077C244.846 180.264 244.286 180.124 243.982 179.714L201.759 122.959C201.406 122.478 201.515 121.81 202.015 121.471C202.514 121.131 203.207 121.236 203.56 121.717L245.783 178.471C246.136 178.952 246.027 179.62 245.527 179.96C245.454 180.007 245.381 180.053 245.308 180.077Z" fill="#341C17"/>
<path d="M245.795 178.331C245.795 178.331 223.083 175.343 217.703 186.124C212.312 196.905 225.067 206.199 235.766 197.831C246.477 189.464 245.795 178.331 245.795 178.331Z" fill="#341C17"/>
<path d="M212.117 135.849C212.117 135.849 212.068 135.861 212.044 135.873L157.905 153.404C157.321 153.592 156.7 153.287 156.505 152.736C156.311 152.174 156.639 151.576 157.199 151.389L211.338 133.857C211.922 133.67 212.543 133.974 212.738 134.525C212.92 135.064 212.64 135.638 212.105 135.849H212.117Z" fill="#341C17"/>
<path d="M429.633 402.888C429.146 402.748 428.806 402.314 428.842 401.81L432.603 332.094C432.627 331.754 432.81 331.45 433.102 331.262C433.394 331.075 433.747 331.028 434.088 331.145L488.482 350.153C489.054 350.352 489.359 350.962 489.152 351.524C488.945 352.075 488.324 352.344 487.728 352.169L434.733 333.653L431.057 401.927C431.021 402.513 430.51 402.97 429.889 402.935C429.804 402.935 429.718 402.912 429.633 402.888Z" fill="#341C17"/>
<path d="M431.142 401.822C431.142 401.822 415.332 385.849 404.134 391.041C392.936 396.232 396.88 411.15 410.67 411.033C424.46 410.916 431.142 401.81 431.142 401.81V401.822Z" fill="#341C17"/>
<path d="M484.04 421.908C483.553 421.768 483.212 421.334 483.249 420.83L487.01 351.114C487.046 350.528 487.557 350.071 488.178 350.106C488.787 350.142 489.261 350.634 489.225 351.231L485.464 420.947C485.427 421.533 484.916 421.99 484.295 421.955C484.21 421.955 484.125 421.932 484.04 421.908Z" fill="#341C17"/>
<path d="M485.536 420.842C485.536 420.842 469.726 404.869 458.528 410.061C447.33 415.252 451.274 430.17 465.064 430.053C478.854 429.936 485.536 420.83 485.536 420.83V420.842Z" fill="#341C17"/>
<path d="M486.741 367.403C486.741 367.403 486.693 367.392 486.668 367.38L432.992 348.571C432.42 348.372 432.116 347.762 432.335 347.2C432.542 346.649 433.187 346.368 433.759 346.567L487.435 365.376C488.007 365.575 488.311 366.185 488.092 366.747C487.885 367.274 487.301 367.567 486.741 367.403Z" fill="#341C17"/>
<path d="M43.7856 375.49C43.2988 375.349 42.958 374.916 42.9945 374.412L46.7555 304.696C46.7798 304.356 46.9624 304.051 47.2545 303.864C47.5466 303.676 47.8996 303.629 48.2404 303.746L102.635 322.755C103.207 322.954 103.511 323.563 103.304 324.126C103.097 324.676 102.476 324.946 101.88 324.77L48.8855 306.254L45.2097 374.529C45.1732 375.115 44.662 375.572 44.0412 375.537C43.956 375.537 43.8708 375.513 43.7856 375.49Z" fill="#341C17"/>
<path d="M45.2947 374.423C45.2947 374.423 45.2581 374.458 45.1973 374.517C45.0756 374.693 44.82 375.021 44.394 375.466C42.5317 377.435 37.8336 381.666 30.1168 383.13C27.9503 376.427 26.0881 369.595 24.4449 362.646C31.7478 363.267 39.4037 369.173 43.0916 372.396C44.2114 373.345 44.9539 374.095 45.1973 374.33C45.2581 374.388 45.2947 374.423 45.2947 374.423Z" fill="#341C17"/>
<path d="M98.1921 394.498C97.7053 394.357 97.3645 393.924 97.401 393.42L101.162 323.704C101.198 323.118 101.71 322.661 102.33 322.696C102.939 322.731 103.414 323.223 103.377 323.821L99.6162 393.537C99.5797 394.123 99.0685 394.58 98.4477 394.545C98.3625 394.545 98.2773 394.521 98.1921 394.498Z" fill="#341C17"/>
<path d="M99.6889 393.432C99.6889 393.432 83.8782 377.459 72.6805 382.65C61.4827 387.842 65.4263 402.76 79.2165 402.643C93.0068 402.525 99.6889 393.42 99.6889 393.42V393.432Z" fill="#341C17"/>
<path d="M100.894 340.005C100.894 340.005 100.845 339.993 100.821 339.982L47.1448 321.173C46.5728 320.973 46.2685 320.364 46.4876 319.802C46.6945 319.251 47.3396 318.969 47.9117 319.169L101.588 337.978C102.16 338.177 102.464 338.786 102.245 339.349C102.038 339.876 101.454 340.169 100.894 340.005Z" fill="#341C17"/>
<path d="M312.495 97.7397C312.069 97.4467 311.899 96.8959 312.105 96.4155L341.147 28.8676C341.39 28.2934 342.072 28.0239 342.656 28.2583C343.24 28.4927 343.52 29.1372 343.277 29.7114L314.235 97.2593C313.992 97.8335 313.31 98.103 312.726 97.8686C312.641 97.8334 312.568 97.7983 312.495 97.7397Z" fill="#341C17"/>
<path d="M314.369 97.1889C314.369 97.1889 304.644 76.1887 291.755 77.5949C278.865 79.0012 277.32 95.0327 290.915 99.4976C304.511 103.963 314.382 97.1889 314.382 97.1889H314.369Z" fill="#341C17"/>
<path d="M366.621 521.179C366.098 521.226 365.599 520.921 365.429 520.417L341.694 450.971C341.499 450.385 341.816 449.752 342.425 449.553C343.021 449.354 343.678 449.682 343.885 450.268L367.619 519.714C367.814 520.3 367.486 520.933 366.889 521.132C366.804 521.156 366.719 521.179 366.621 521.179Z" fill="#341C17"/>
<path d="M367.668 519.586C367.668 519.586 346.064 509.765 337.239 518.929C328.415 528.093 338.104 541.219 351.431 536.062C364.759 530.918 367.656 519.586 367.656 519.586H367.668Z" fill="#341C17"/>
</svg>
