<svg width="650" height="100" viewBox="0 0 650 100" fill="none" xmlns="http://www.w3.org/2000/svg">
<rect width="650" height="100" rx="30" fill="#01B060"/>
<path d="M76.0661 61.6667V39.2667H92.9621V41.9867H79.2341V48.3867H86.2101C88.8768 48.3867 90.9035 48.9414 92.2901 50.0507C93.6768 51.16 94.3701 52.7707 94.3701 54.8827C94.3701 57.0587 93.6128 58.7334 92.0981 59.9067C90.6048 61.08 88.4608 61.6667 85.6661 61.6667H76.0661ZM79.2341 59.1387H85.5381C87.3941 59.1387 88.7915 58.7867 89.7301 58.0827C90.6901 57.3787 91.1701 56.3334 91.1701 54.9467C91.1701 52.2587 89.2928 50.9147 85.5381 50.9147H79.2341V59.1387ZM106.512 61.8587C104.699 61.8587 103.099 61.4854 101.712 60.7387C100.347 59.992 99.2804 58.968 98.5124 57.6667C97.7657 56.3654 97.3924 54.872 97.3924 53.1867C97.3924 51.5014 97.755 50.008 98.4804 48.7067C99.227 47.4054 100.24 46.392 101.52 45.6667C102.822 44.92 104.283 44.5467 105.904 44.5467C107.547 44.5467 108.998 44.9094 110.256 45.6347C111.515 46.36 112.496 47.384 113.2 48.7067C113.926 50.008 114.288 51.5334 114.288 53.2827C114.288 53.4107 114.278 53.56 114.256 53.7307C114.256 53.9014 114.246 54.0614 114.224 54.2107H99.7924V52.0027H112.624L111.376 52.7707C111.398 51.6827 111.174 50.712 110.704 49.8587C110.235 49.0054 109.584 48.344 108.752 47.8747C107.942 47.384 106.992 47.1387 105.904 47.1387C104.838 47.1387 103.888 47.384 103.056 47.8747C102.224 48.344 101.574 49.016 101.104 49.8907C100.635 50.744 100.4 51.7254 100.4 52.8347V53.3467C100.4 54.4774 100.656 55.4907 101.168 56.3867C101.702 57.2614 102.438 57.944 103.376 58.4347C104.315 58.9254 105.392 59.1707 106.608 59.1707C107.611 59.1707 108.518 59 109.328 58.6587C110.16 58.3174 110.886 57.8054 111.504 57.1227L113.2 59.1067C112.432 60.0027 111.472 60.6854 110.32 61.1547C109.19 61.624 107.92 61.8587 106.512 61.8587ZM126.446 61.8587C124.718 61.8587 123.171 61.4854 121.806 60.7387C120.462 59.992 119.406 58.968 118.638 57.6667C117.87 56.3654 117.486 54.872 117.486 53.1867C117.486 51.5014 117.87 50.008 118.638 48.7067C119.406 47.4054 120.462 46.392 121.806 45.6667C123.171 44.92 124.718 44.5467 126.446 44.5467C127.982 44.5467 129.347 44.856 130.542 45.4747C131.758 46.072 132.697 46.968 133.358 48.1627L131.022 49.6667C130.467 48.8347 129.785 48.2267 128.974 47.8427C128.185 47.4374 127.331 47.2347 126.414 47.2347C125.305 47.2347 124.313 47.48 123.438 47.9707C122.563 48.4614 121.87 49.1547 121.358 50.0507C120.846 50.9254 120.59 51.9707 120.59 53.1867C120.59 54.4027 120.846 55.4587 121.358 56.3547C121.87 57.2507 122.563 57.944 123.438 58.4347C124.313 58.9254 125.305 59.1707 126.414 59.1707C127.331 59.1707 128.185 58.9787 128.974 58.5947C129.785 58.1894 130.467 57.5707 131.022 56.7387L133.358 58.2107C132.697 59.384 131.758 60.2907 130.542 60.9307C129.347 61.5494 127.982 61.8587 126.446 61.8587ZM137.335 61.6667V44.7067H153.047V61.6667H149.975V46.6267L150.711 47.3947H139.671L140.407 46.6267V61.6667H137.335ZM156.176 61.6347L156.368 59.0427C156.517 59.064 156.656 59.0854 156.784 59.1067C156.912 59.128 157.029 59.1387 157.136 59.1387C157.818 59.1387 158.352 58.904 158.736 58.4347C159.141 57.9654 159.44 57.3467 159.632 56.5787C159.824 55.7894 159.962 54.904 160.048 53.9227C160.133 52.9414 160.197 51.96 160.24 50.9787L160.528 44.7067H173.552V61.6667H170.48V46.4987L171.216 47.3947H162.512L163.216 46.4667L162.992 51.1707C162.928 52.664 162.81 54.0614 162.64 55.3627C162.469 56.664 162.202 57.8054 161.84 58.7867C161.498 59.768 161.018 60.536 160.4 61.0907C159.802 61.6454 159.024 61.9227 158.064 61.9227C157.786 61.9227 157.488 61.8907 157.168 61.8267C156.869 61.784 156.538 61.72 156.176 61.6347ZM189.892 61.6667V58.0827L189.732 57.4107V51.2987C189.732 49.9974 189.348 48.9947 188.58 48.2907C187.833 47.5654 186.702 47.2027 185.188 47.2027C184.185 47.2027 183.204 47.3734 182.244 47.7147C181.284 48.0347 180.473 48.472 179.812 49.0267L178.532 46.7227C179.406 46.0187 180.452 45.4854 181.668 45.1227C182.905 44.7387 184.196 44.5467 185.54 44.5467C187.865 44.5467 189.657 45.112 190.916 46.2427C192.174 47.3734 192.804 49.1014 192.804 51.4267V61.6667H189.892ZM184.324 61.8587C183.065 61.8587 181.956 61.6454 180.996 61.2187C180.057 60.792 179.332 60.2054 178.82 59.4587C178.308 58.6907 178.052 57.8267 178.052 56.8667C178.052 55.9494 178.265 55.1174 178.692 54.3707C179.14 53.624 179.854 53.0267 180.836 52.5787C181.838 52.1307 183.182 51.9067 184.868 51.9067H190.244V54.1147H184.996C183.46 54.1147 182.425 54.3707 181.892 54.8827C181.358 55.3947 181.092 56.0134 181.092 56.7387C181.092 57.5707 181.422 58.2427 182.084 58.7547C182.745 59.2454 183.662 59.4907 184.836 59.4907C185.988 59.4907 186.99 59.2347 187.844 58.7227C188.718 58.2107 189.348 57.464 189.732 56.4827L190.34 58.5947C189.934 59.5974 189.22 60.3974 188.196 60.9947C187.172 61.5707 185.881 61.8587 184.324 61.8587ZM201.695 61.6667V46.5947L202.463 47.3947H195.487V44.7067H210.975V47.3947H204.031L204.767 46.5947V61.6667H201.695ZM214.117 61.6667V44.7067H217.189V51.9067H226.853V44.7067H229.925V61.6667H226.853V54.5627H217.189V61.6667H214.117ZM243.162 61.8587C241.455 61.8587 239.941 61.4854 238.618 60.7387C237.295 59.992 236.25 58.968 235.482 57.6667C234.714 56.344 234.33 54.8507 234.33 53.1867C234.33 51.5014 234.714 50.008 235.482 48.7067C236.25 47.4054 237.295 46.392 238.618 45.6667C239.941 44.92 241.455 44.5467 243.162 44.5467C244.847 44.5467 246.351 44.92 247.674 45.6667C249.018 46.392 250.063 47.4054 250.81 48.7067C251.578 49.9867 251.962 51.48 251.962 53.1867C251.962 54.872 251.578 56.3654 250.81 57.6667C250.063 58.968 249.018 59.992 247.674 60.7387C246.351 61.4854 244.847 61.8587 243.162 61.8587ZM243.162 59.1707C244.25 59.1707 245.221 58.9254 246.074 58.4347C246.949 57.944 247.631 57.2507 248.122 56.3547C248.613 55.4374 248.858 54.3814 248.858 53.1867C248.858 51.9707 248.613 50.9254 248.122 50.0507C247.631 49.1547 246.949 48.4614 246.074 47.9707C245.221 47.48 244.25 47.2347 243.162 47.2347C242.074 47.2347 241.103 47.48 240.25 47.9707C239.397 48.4614 238.714 49.1547 238.202 50.0507C237.69 50.9254 237.434 51.9707 237.434 53.1867C237.434 54.3814 237.69 55.4374 238.202 56.3547C238.714 57.2507 239.397 57.944 240.25 58.4347C241.103 58.9254 242.074 59.1707 243.162 59.1707ZM263.95 61.8587C262.137 61.8587 260.537 61.4854 259.15 60.7387C257.785 59.992 256.718 58.968 255.95 57.6667C255.203 56.3654 254.83 54.872 254.83 53.1867C254.83 51.5014 255.193 50.008 255.918 48.7067C256.665 47.4054 257.678 46.392 258.958 45.6667C260.259 44.92 261.721 44.5467 263.342 44.5467C264.985 44.5467 266.435 44.9094 267.694 45.6347C268.953 46.36 269.934 47.384 270.638 48.7067C271.363 50.008 271.726 51.5334 271.726 53.2827C271.726 53.4107 271.715 53.56 271.694 53.7307C271.694 53.9014 271.683 54.0614 271.662 54.2107H257.23V52.0027H270.062L268.814 52.7707C268.835 51.6827 268.611 50.712 268.142 49.8587C267.673 49.0054 267.022 48.344 266.19 47.8747C265.379 47.384 264.43 47.1387 263.342 47.1387C262.275 47.1387 261.326 47.384 260.494 47.8747C259.662 48.344 259.011 49.016 258.542 49.8907C258.073 50.744 257.838 51.7254 257.838 52.8347V53.3467C257.838 54.4774 258.094 55.4907 258.606 56.3867C259.139 57.2614 259.875 57.944 260.814 58.4347C261.753 58.9254 262.83 59.1707 264.046 59.1707C265.049 59.1707 265.955 59 266.766 58.6587C267.598 58.3174 268.323 57.8054 268.942 57.1227L270.638 59.1067C269.87 60.0027 268.91 60.6854 267.758 61.1547C266.627 61.624 265.358 61.8587 263.95 61.8587ZM285.085 61.6667V44.7067H300.797V61.6667H297.725V46.6267L298.461 47.3947H287.421L288.157 46.6267V61.6667H285.085ZM315.734 61.8587C314.326 61.8587 313.035 61.5387 311.862 60.8987C310.71 60.2374 309.782 59.2667 309.078 57.9867C308.395 56.7067 308.054 55.1067 308.054 53.1867C308.054 51.2667 308.384 49.6667 309.046 48.3867C309.728 47.1067 310.646 46.1467 311.798 45.5067C312.971 44.8667 314.283 44.5467 315.734 44.5467C317.398 44.5467 318.87 44.9094 320.15 45.6347C321.43 46.36 322.443 47.3734 323.19 48.6747C323.936 49.9547 324.31 51.4587 324.31 53.1867C324.31 54.9147 323.936 56.4294 323.19 57.7307C322.443 59.032 321.43 60.0454 320.15 60.7707C318.87 61.496 317.398 61.8587 315.734 61.8587ZM306.742 67.8747V44.7067H309.686V49.2827L309.494 53.2187L309.814 57.1547V67.8747H306.742ZM315.478 59.1707C316.566 59.1707 317.536 58.9254 318.39 58.4347C319.264 57.944 319.947 57.2507 320.438 56.3547C320.95 55.4374 321.206 54.3814 321.206 53.1867C321.206 51.9707 320.95 50.9254 320.438 50.0507C319.947 49.1547 319.264 48.4614 318.39 47.9707C317.536 47.48 316.566 47.2347 315.478 47.2347C314.411 47.2347 313.44 47.48 312.566 47.9707C311.712 48.4614 311.03 49.1547 310.518 50.0507C310.027 50.9254 309.782 51.9707 309.782 53.1867C309.782 54.3814 310.027 55.4374 310.518 56.3547C311.03 57.2507 311.712 57.944 312.566 58.4347C313.44 58.9254 314.411 59.1707 315.478 59.1707ZM336.037 61.8587C334.33 61.8587 332.816 61.4854 331.493 60.7387C330.17 59.992 329.125 58.968 328.357 57.6667C327.589 56.344 327.205 54.8507 327.205 53.1867C327.205 51.5014 327.589 50.008 328.357 48.7067C329.125 47.4054 330.17 46.392 331.493 45.6667C332.816 44.92 334.33 44.5467 336.037 44.5467C337.722 44.5467 339.226 44.92 340.549 45.6667C341.893 46.392 342.938 47.4054 343.685 48.7067C344.453 49.9867 344.837 51.48 344.837 53.1867C344.837 54.872 344.453 56.3654 343.685 57.6667C342.938 58.968 341.893 59.992 340.549 60.7387C339.226 61.4854 337.722 61.8587 336.037 61.8587ZM336.037 59.1707C337.125 59.1707 338.096 58.9254 338.949 58.4347C339.824 57.944 340.506 57.2507 340.997 56.3547C341.488 55.4374 341.733 54.3814 341.733 53.1867C341.733 51.9707 341.488 50.9254 340.997 50.0507C340.506 49.1547 339.824 48.4614 338.949 47.9707C338.096 47.48 337.125 47.2347 336.037 47.2347C334.949 47.2347 333.978 47.48 333.125 47.9707C332.272 48.4614 331.589 49.1547 331.077 50.0507C330.565 50.9254 330.309 51.9707 330.309 53.1867C330.309 54.3814 330.565 55.4374 331.077 56.3547C331.589 57.2507 332.272 57.944 333.125 58.4347C333.978 58.9254 334.949 59.1707 336.037 59.1707ZM357.113 61.9227C355.705 61.9227 354.457 61.6987 353.369 61.2507C352.302 60.8027 351.385 60.1414 350.617 59.2667C349.849 58.3707 349.262 57.2507 348.857 55.9067C348.473 54.5414 348.281 52.9414 348.281 51.1067C348.281 49.656 348.409 48.3547 348.665 47.2027C348.921 46.0507 349.284 45.0267 349.753 44.1307C350.244 43.2347 350.841 42.456 351.545 41.7947C352.27 41.1334 353.081 40.5894 353.977 40.1627C354.894 39.7147 355.897 39.3734 356.985 39.1387L364.729 37.4107L365.177 40.2587L358.041 41.7947C357.614 41.88 357.102 42.008 356.505 42.1787C355.908 42.3494 355.3 42.616 354.681 42.9787C354.062 43.32 353.486 43.8 352.953 44.4187C352.42 45.0374 351.993 45.848 351.673 46.8507C351.353 47.832 351.193 49.048 351.193 50.4987C351.193 50.904 351.204 51.2134 351.225 51.4267C351.246 51.64 351.268 51.8534 351.289 52.0667C351.332 52.28 351.364 52.6 351.385 53.0267L350.105 51.7147C350.446 50.5414 350.99 49.5174 351.737 48.6427C352.484 47.768 353.38 47.096 354.425 46.6267C355.492 46.136 356.654 45.8907 357.913 45.8907C359.492 45.8907 360.889 46.232 362.105 46.9147C363.342 47.5974 364.313 48.536 365.017 49.7307C365.721 50.9254 366.073 52.2907 366.073 53.8267C366.073 55.384 365.7 56.7814 364.953 58.0187C364.228 59.2347 363.193 60.1947 361.849 60.8987C360.505 61.5814 358.926 61.9227 357.113 61.9227ZM357.401 59.3627C358.489 59.3627 359.449 59.128 360.281 58.6587C361.113 58.168 361.764 57.5174 362.233 56.7067C362.702 55.8747 362.937 54.9467 362.937 53.9227C362.937 52.8987 362.702 51.992 362.233 51.2027C361.764 50.4134 361.113 49.7947 360.281 49.3467C359.449 48.8774 358.468 48.6427 357.337 48.6427C356.27 48.6427 355.31 48.8667 354.457 49.3147C353.604 49.7414 352.942 50.3494 352.473 51.1387C352.004 51.9067 351.769 52.8027 351.769 53.8267C351.769 54.8507 352.004 55.7894 352.473 56.6427C352.964 57.4747 353.625 58.136 354.457 58.6267C355.31 59.1174 356.292 59.3627 357.401 59.3627ZM370.46 61.6667V44.7067H373.532V51.9067H383.196V44.7067H386.268V61.6667H383.196V54.5627H373.532V61.6667H370.46ZM399.506 61.8587C397.799 61.8587 396.284 61.4854 394.962 60.7387C393.639 59.992 392.594 58.968 391.826 57.6667C391.058 56.344 390.674 54.8507 390.674 53.1867C390.674 51.5014 391.058 50.008 391.826 48.7067C392.594 47.4054 393.639 46.392 394.962 45.6667C396.284 44.92 397.799 44.5467 399.506 44.5467C401.191 44.5467 402.695 44.92 404.018 45.6667C405.362 46.392 406.407 47.4054 407.154 48.7067C407.922 49.9867 408.306 51.48 408.306 53.1867C408.306 54.872 407.922 56.3654 407.154 57.6667C406.407 58.968 405.362 59.992 404.018 60.7387C402.695 61.4854 401.191 61.8587 399.506 61.8587ZM399.506 59.1707C400.594 59.1707 401.564 58.9254 402.418 58.4347C403.292 57.944 403.975 57.2507 404.466 56.3547C404.956 55.4374 405.202 54.3814 405.202 53.1867C405.202 51.9707 404.956 50.9254 404.466 50.0507C403.975 49.1547 403.292 48.4614 402.418 47.9707C401.564 47.48 400.594 47.2347 399.506 47.2347C398.418 47.2347 397.447 47.48 396.594 47.9707C395.74 48.4614 395.058 49.1547 394.546 50.0507C394.034 50.9254 393.778 51.9707 393.778 53.1867C393.778 54.3814 394.034 55.4374 394.546 56.3547C395.058 57.2507 395.74 57.944 396.594 58.4347C397.447 58.9254 398.418 59.1707 399.506 59.1707ZM420.294 61.8587C418.48 61.8587 416.88 61.4854 415.494 60.7387C414.128 59.992 413.062 58.968 412.294 57.6667C411.547 56.3654 411.174 54.872 411.174 53.1867C411.174 51.5014 411.536 50.008 412.262 48.7067C413.008 47.4054 414.022 46.392 415.302 45.6667C416.603 44.92 418.064 44.5467 419.686 44.5467C421.328 44.5467 422.779 44.9094 424.038 45.6347C425.296 46.36 426.278 47.384 426.982 48.7067C427.707 50.008 428.07 51.5334 428.07 53.2827C428.07 53.4107 428.059 53.56 428.038 53.7307C428.038 53.9014 428.027 54.0614 428.006 54.2107H413.574V52.0027H426.406L425.158 52.7707C425.179 51.6827 424.955 50.712 424.486 49.8587C424.016 49.0054 423.366 48.344 422.534 47.8747C421.723 47.384 420.774 47.1387 419.686 47.1387C418.619 47.1387 417.67 47.384 416.838 47.8747C416.006 48.344 415.355 49.016 414.886 49.8907C414.416 50.744 414.182 51.7254 414.182 52.8347V53.3467C414.182 54.4774 414.438 55.4907 414.95 56.3867C415.483 57.2614 416.219 57.944 417.158 58.4347C418.096 58.9254 419.174 59.1707 420.39 59.1707C421.392 59.1707 422.299 59 423.11 58.6587C423.942 58.3174 424.667 57.8054 425.286 57.1227L426.982 59.1067C426.214 60.0027 425.254 60.6854 424.102 61.1547C422.971 61.624 421.702 61.8587 420.294 61.8587ZM446.389 61.8907C445.109 61.8907 443.85 61.7307 442.613 61.4107C441.397 61.0694 440.309 60.5894 439.349 59.9707L440.277 57.6347C441.088 58.1467 442.016 58.552 443.061 58.8507C444.106 59.128 445.162 59.2667 446.229 59.2667C447.21 59.2667 448.053 59.1494 448.757 58.9147C449.482 58.68 450.037 58.36 450.421 57.9547C450.805 57.528 450.997 57.0374 450.997 56.4827C450.997 55.6934 450.645 55.0854 449.941 54.6587C449.237 54.232 448.256 54.0187 446.997 54.0187H443.925V51.8107H446.805C447.552 51.8107 448.202 51.7254 448.757 51.5547C449.312 51.384 449.738 51.128 450.037 50.7867C450.357 50.424 450.517 50.008 450.517 49.5387C450.517 49.0267 450.336 48.5894 449.973 48.2267C449.61 47.864 449.098 47.5867 448.437 47.3947C447.797 47.2027 447.04 47.1067 446.165 47.1067C445.312 47.128 444.437 47.2454 443.541 47.4587C442.666 47.672 441.77 48.0027 440.853 48.4507L440.021 46.0507C441.045 45.56 442.048 45.1867 443.029 44.9307C444.032 44.6534 445.024 44.504 446.005 44.4827C447.477 44.44 448.789 44.6107 449.941 44.9947C451.093 45.3574 452 45.8907 452.661 46.5947C453.344 47.2987 453.685 48.1307 453.685 49.0907C453.685 49.9014 453.429 50.6267 452.917 51.2667C452.405 51.8854 451.722 52.376 450.869 52.7387C450.016 53.1014 449.034 53.2827 447.925 53.2827L448.053 52.5467C449.952 52.5467 451.445 52.92 452.533 53.6667C453.621 54.4134 454.165 55.4267 454.165 56.7067C454.165 57.7307 453.824 58.6374 453.141 59.4267C452.458 60.1947 451.53 60.8027 450.357 61.2507C449.205 61.6774 447.882 61.8907 446.389 61.8907ZM469.235 61.6667V58.0827L469.075 57.4107V51.2987C469.075 49.9974 468.691 48.9947 467.923 48.2907C467.177 47.5654 466.046 47.2027 464.531 47.2027C463.529 47.2027 462.547 47.3734 461.587 47.7147C460.627 48.0347 459.817 48.472 459.155 49.0267L457.875 46.7227C458.75 46.0187 459.795 45.4854 461.011 45.1227C462.249 44.7387 463.539 44.5467 464.883 44.5467C467.209 44.5467 469.001 45.112 470.259 46.2427C471.518 47.3734 472.147 49.1014 472.147 51.4267V61.6667H469.235ZM463.667 61.8587C462.409 61.8587 461.299 61.6454 460.339 61.2187C459.401 60.792 458.675 60.2054 458.163 59.4587C457.651 58.6907 457.395 57.8267 457.395 56.8667C457.395 55.9494 457.609 55.1174 458.035 54.3707C458.483 53.624 459.198 53.0267 460.179 52.5787C461.182 52.1307 462.526 51.9067 464.211 51.9067H469.587V54.1147H464.339C462.803 54.1147 461.769 54.3707 461.235 54.8827C460.702 55.3947 460.435 56.0134 460.435 56.7387C460.435 57.5707 460.766 58.2427 461.427 58.7547C462.089 59.2454 463.006 59.4907 464.179 59.4907C465.331 59.4907 466.334 59.2347 467.187 58.7227C468.062 58.2107 468.691 57.464 469.075 56.4827L469.683 58.5947C469.278 59.5974 468.563 60.3974 467.539 60.9947C466.515 61.5707 465.225 61.8587 463.667 61.8587ZM477.679 61.6667V44.7067H480.751V51.9067H490.415V44.7067H493.487V61.6667H490.415V54.5627H480.751V61.6667H477.679ZM510.308 61.6667V55.7147L510.788 56.2907H505.38C503.119 56.2907 501.348 55.8107 500.068 54.8507C498.81 53.8907 498.18 52.4934 498.18 50.6587C498.18 48.696 498.852 47.2134 500.196 46.2107C501.562 45.208 503.375 44.7067 505.636 44.7067H513.06V61.6667H510.308ZM498.02 61.6667L502.628 55.1707H505.796L501.316 61.6667H498.02ZM510.308 54.7547V46.5307L510.788 47.3947H505.732C504.324 47.3947 503.236 47.6614 502.468 48.1947C501.7 48.7067 501.316 49.56 501.316 50.7547C501.316 52.9734 502.746 54.0827 505.604 54.0827H510.788L510.308 54.7547ZM522.414 61.6667V46.5947L523.182 47.3947H516.206V44.7067H531.694V47.3947H524.75L525.486 46.5947V61.6667H522.414ZM534.835 61.6667V44.7067H537.907V57.0587L548.307 44.7067H551.091V61.6667H548.019V49.3147L537.651 61.6667H534.835ZM564.606 61.8587C562.793 61.8587 561.193 61.4854 559.806 60.7387C558.441 59.992 557.374 58.968 556.606 57.6667C555.859 56.3654 555.486 54.872 555.486 53.1867C555.486 51.5014 555.849 50.008 556.574 48.7067C557.321 47.4054 558.334 46.392 559.614 45.6667C560.915 44.92 562.377 44.5467 563.998 44.5467C565.641 44.5467 567.091 44.9094 568.35 45.6347C569.609 46.36 570.59 47.384 571.294 48.7067C572.019 50.008 572.382 51.5334 572.382 53.2827C572.382 53.4107 572.371 53.56 572.35 53.7307C572.35 53.9014 572.339 54.0614 572.318 54.2107H557.886V52.0027H570.718L569.47 52.7707C569.491 51.6827 569.267 50.712 568.798 49.8587C568.329 49.0054 567.678 48.344 566.846 47.8747C566.035 47.384 565.086 47.1387 563.998 47.1387C562.931 47.1387 561.982 47.384 561.15 47.8747C560.318 48.344 559.667 49.016 559.198 49.8907C558.729 50.744 558.494 51.7254 558.494 52.8347V53.3467C558.494 54.4774 558.75 55.4907 559.262 56.3867C559.795 57.2614 560.531 57.944 561.47 58.4347C562.409 58.9254 563.486 59.1707 564.702 59.1707C565.705 59.1707 566.611 59 567.422 58.6587C568.254 58.3174 568.979 57.8054 569.598 57.1227L571.294 59.1067C570.526 60.0027 569.566 60.6854 568.414 61.1547C567.283 61.624 566.014 61.8587 564.606 61.8587Z" fill="white"/>
</svg>
