<svg width="500" height="75" viewBox="0 0 500 75" fill="none" xmlns="http://www.w3.org/2000/svg">
<rect width="500" height="75" rx="20" fill="#01B060"/>
<path d="M63.2683 46V29.2H75.9403V31.24H65.6443V36.04H70.8763C72.8763 36.04 74.3963 36.456 75.4363 37.288C76.4763 38.12 76.9963 39.328 76.9963 40.912C76.9963 42.544 76.4283 43.8 75.2923 44.68C74.1723 45.56 72.5643 46 70.4683 46H63.2683ZM65.6443 44.104H70.3723C71.7643 44.104 72.8123 43.84 73.5163 43.312C74.2363 42.784 74.5963 42 74.5963 40.96C74.5963 38.944 73.1883 37.936 70.3723 37.936H65.6443V44.104ZM86.103 46.144C84.743 46.144 83.543 45.864 82.503 45.304C81.479 44.744 80.679 43.976 80.103 43C79.543 42.024 79.263 40.904 79.263 39.64C79.263 38.376 79.535 37.256 80.079 36.28C80.639 35.304 81.399 34.544 82.359 34C83.335 33.44 84.431 33.16 85.647 33.16C86.879 33.16 87.967 33.432 88.911 33.976C89.855 34.52 90.591 35.288 91.119 36.28C91.663 37.256 91.935 38.4 91.935 39.712C91.935 39.808 91.927 39.92 91.911 40.048C91.911 40.176 91.903 40.296 91.887 40.408H81.063V38.752H90.687L89.751 39.328C89.767 38.512 89.599 37.784 89.247 37.144C88.895 36.504 88.407 36.008 87.783 35.656C87.175 35.288 86.463 35.104 85.647 35.104C84.847 35.104 84.135 35.288 83.511 35.656C82.887 36.008 82.399 36.512 82.047 37.168C81.695 37.808 81.519 38.544 81.519 39.376V39.76C81.519 40.608 81.711 41.368 82.095 42.04C82.495 42.696 83.047 43.208 83.751 43.576C84.455 43.944 85.263 44.128 86.175 44.128C86.927 44.128 87.607 44 88.215 43.744C88.839 43.488 89.383 43.104 89.847 42.592L91.119 44.08C90.543 44.752 89.823 45.264 88.959 45.616C88.111 45.968 87.159 46.144 86.103 46.144ZM101.053 46.144C99.7573 46.144 98.5973 45.864 97.5733 45.304C96.5653 44.744 95.7733 43.976 95.1973 43C94.6213 42.024 94.3333 40.904 94.3333 39.64C94.3333 38.376 94.6213 37.256 95.1973 36.28C95.7733 35.304 96.5653 34.544 97.5733 34C98.5973 33.44 99.7573 33.16 101.053 33.16C102.205 33.16 103.229 33.392 104.125 33.856C105.037 34.304 105.741 34.976 106.237 35.872L104.485 37C104.069 36.376 103.557 35.92 102.949 35.632C102.357 35.328 101.717 35.176 101.029 35.176C100.197 35.176 99.4533 35.36 98.7973 35.728C98.1413 36.096 97.6213 36.616 97.2373 37.288C96.8533 37.944 96.6613 38.728 96.6613 39.64C96.6613 40.552 96.8533 41.344 97.2373 42.016C97.6213 42.688 98.1413 43.208 98.7973 43.576C99.4533 43.944 100.197 44.128 101.029 44.128C101.717 44.128 102.357 43.984 102.949 43.696C103.557 43.392 104.069 42.928 104.485 42.304L106.237 43.408C105.741 44.288 105.037 44.968 104.125 45.448C103.229 45.912 102.205 46.144 101.053 46.144ZM109.22 46V33.28H121.004V46H118.7V34.72L119.252 35.296H110.972L111.524 34.72V46H109.22ZM123.35 45.976L123.494 44.032C123.606 44.048 123.71 44.064 123.806 44.08C123.902 44.096 123.99 44.104 124.07 44.104C124.582 44.104 124.982 43.928 125.27 43.576C125.574 43.224 125.798 42.76 125.942 42.184C126.086 41.592 126.19 40.928 126.254 40.192C126.318 39.456 126.366 38.72 126.398 37.984L126.614 33.28H136.382V46H134.078V34.624L134.63 35.296H128.102L128.63 34.6L128.462 38.128C128.414 39.248 128.326 40.296 128.198 41.272C128.07 42.248 127.87 43.104 127.598 43.84C127.342 44.576 126.982 45.152 126.518 45.568C126.07 45.984 125.486 46.192 124.766 46.192C124.558 46.192 124.334 46.168 124.094 46.12C123.87 46.088 123.622 46.04 123.35 45.976ZM148.637 46V43.312L148.517 42.808V38.224C148.517 37.248 148.229 36.496 147.653 35.968C147.093 35.424 146.245 35.152 145.109 35.152C144.357 35.152 143.621 35.28 142.901 35.536C142.181 35.776 141.573 36.104 141.077 36.52L140.117 34.792C140.773 34.264 141.557 33.864 142.469 33.592C143.397 33.304 144.365 33.16 145.373 33.16C147.117 33.16 148.461 33.584 149.405 34.432C150.349 35.28 150.821 36.576 150.821 38.32V46H148.637ZM144.461 46.144C143.517 46.144 142.685 45.984 141.965 45.664C141.261 45.344 140.717 44.904 140.333 44.344C139.949 43.768 139.757 43.12 139.757 42.4C139.757 41.712 139.917 41.088 140.237 40.528C140.573 39.968 141.109 39.52 141.845 39.184C142.597 38.848 143.605 38.68 144.869 38.68H148.901V40.336H144.965C143.813 40.336 143.037 40.528 142.637 40.912C142.237 41.296 142.037 41.76 142.037 42.304C142.037 42.928 142.285 43.432 142.781 43.816C143.277 44.184 143.965 44.368 144.845 44.368C145.709 44.368 146.461 44.176 147.101 43.792C147.757 43.408 148.229 42.848 148.517 42.112L148.973 43.696C148.669 44.448 148.133 45.048 147.365 45.496C146.597 45.928 145.629 46.144 144.461 46.144ZM157.49 46V34.696L158.066 35.296H152.834V33.28H164.45V35.296H159.242L159.794 34.696V46H157.49ZM166.806 46V33.28H169.11V38.68H176.358V33.28H178.662V46H176.358V40.672H169.11V46H166.806ZM188.59 46.144C187.31 46.144 186.174 45.864 185.182 45.304C184.19 44.744 183.406 43.976 182.83 43C182.254 42.008 181.966 40.888 181.966 39.64C181.966 38.376 182.254 37.256 182.83 36.28C183.406 35.304 184.19 34.544 185.182 34C186.174 33.44 187.31 33.16 188.59 33.16C189.854 33.16 190.982 33.44 191.974 34C192.982 34.544 193.766 35.304 194.326 36.28C194.902 37.24 195.19 38.36 195.19 39.64C195.19 40.904 194.902 42.024 194.326 43C193.766 43.976 192.982 44.744 191.974 45.304C190.982 45.864 189.854 46.144 188.59 46.144ZM188.59 44.128C189.406 44.128 190.134 43.944 190.774 43.576C191.43 43.208 191.942 42.688 192.31 42.016C192.678 41.328 192.862 40.536 192.862 39.64C192.862 38.728 192.678 37.944 192.31 37.288C191.942 36.616 191.43 36.096 190.774 35.728C190.134 35.36 189.406 35.176 188.59 35.176C187.774 35.176 187.046 35.36 186.406 35.728C185.766 36.096 185.254 36.616 184.87 37.288C184.486 37.944 184.294 38.728 184.294 39.64C184.294 40.536 184.486 41.328 184.87 42.016C185.254 42.688 185.766 43.208 186.406 43.576C187.046 43.944 187.774 44.128 188.59 44.128ZM204.181 46.144C202.821 46.144 201.621 45.864 200.581 45.304C199.557 44.744 198.757 43.976 198.181 43C197.621 42.024 197.341 40.904 197.341 39.64C197.341 38.376 197.613 37.256 198.157 36.28C198.717 35.304 199.477 34.544 200.437 34C201.413 33.44 202.509 33.16 203.725 33.16C204.957 33.16 206.045 33.432 206.989 33.976C207.933 34.52 208.669 35.288 209.197 36.28C209.741 37.256 210.013 38.4 210.013 39.712C210.013 39.808 210.005 39.92 209.989 40.048C209.989 40.176 209.981 40.296 209.965 40.408H199.141V38.752H208.765L207.829 39.328C207.845 38.512 207.677 37.784 207.325 37.144C206.973 36.504 206.485 36.008 205.861 35.656C205.253 35.288 204.541 35.104 203.725 35.104C202.925 35.104 202.213 35.288 201.589 35.656C200.965 36.008 200.477 36.512 200.125 37.168C199.773 37.808 199.597 38.544 199.597 39.376V39.76C199.597 40.608 199.789 41.368 200.173 42.04C200.573 42.696 201.125 43.208 201.829 43.576C202.533 43.944 203.341 44.128 204.253 44.128C205.005 44.128 205.685 44 206.293 43.744C206.917 43.488 207.461 43.104 207.925 42.592L209.197 44.08C208.621 44.752 207.901 45.264 207.037 45.616C206.189 45.968 205.237 46.144 204.181 46.144ZM220.033 46V33.28H231.817V46H229.513V34.72L230.065 35.296H221.785L222.337 34.72V46H220.033ZM243.019 46.144C241.963 46.144 240.995 45.904 240.115 45.424C239.251 44.928 238.555 44.2 238.027 43.24C237.515 42.28 237.259 41.08 237.259 39.64C237.259 38.2 237.507 37 238.003 36.04C238.515 35.08 239.203 34.36 240.067 33.88C240.947 33.4 241.931 33.16 243.019 33.16C244.267 33.16 245.371 33.432 246.331 33.976C247.291 34.52 248.051 35.28 248.611 36.256C249.171 37.216 249.451 38.344 249.451 39.64C249.451 40.936 249.171 42.072 248.611 43.048C248.051 44.024 247.291 44.784 246.331 45.328C245.371 45.872 244.267 46.144 243.019 46.144ZM236.275 50.656V33.28H238.483V36.712L238.339 39.664L238.579 42.616V50.656H236.275ZM242.827 44.128C243.643 44.128 244.371 43.944 245.011 43.576C245.667 43.208 246.179 42.688 246.547 42.016C246.931 41.328 247.123 40.536 247.123 39.64C247.123 38.728 246.931 37.944 246.547 37.288C246.179 36.616 245.667 36.096 245.011 35.728C244.371 35.36 243.643 35.176 242.827 35.176C242.027 35.176 241.299 35.36 240.643 35.728C240.003 36.096 239.491 36.616 239.107 37.288C238.739 37.944 238.555 38.728 238.555 39.64C238.555 40.536 238.739 41.328 239.107 42.016C239.491 42.688 240.003 43.208 240.643 43.576C241.299 43.944 242.027 44.128 242.827 44.128ZM258.246 46.144C256.966 46.144 255.83 45.864 254.838 45.304C253.846 44.744 253.062 43.976 252.486 43C251.91 42.008 251.622 40.888 251.622 39.64C251.622 38.376 251.91 37.256 252.486 36.28C253.062 35.304 253.846 34.544 254.838 34C255.83 33.44 256.966 33.16 258.246 33.16C259.51 33.16 260.638 33.44 261.63 34C262.638 34.544 263.422 35.304 263.982 36.28C264.558 37.24 264.846 38.36 264.846 39.64C264.846 40.904 264.558 42.024 263.982 43C263.422 43.976 262.638 44.744 261.63 45.304C260.638 45.864 259.51 46.144 258.246 46.144ZM258.246 44.128C259.062 44.128 259.79 43.944 260.43 43.576C261.086 43.208 261.598 42.688 261.966 42.016C262.334 41.328 262.518 40.536 262.518 39.64C262.518 38.728 262.334 37.944 261.966 37.288C261.598 36.616 261.086 36.096 260.43 35.728C259.79 35.36 259.062 35.176 258.246 35.176C257.43 35.176 256.702 35.36 256.062 35.728C255.422 36.096 254.91 36.616 254.526 37.288C254.142 37.944 253.95 38.728 253.95 39.64C253.95 40.536 254.142 41.328 254.526 42.016C254.91 42.688 255.422 43.208 256.062 43.576C256.702 43.944 257.43 44.128 258.246 44.128ZM274.053 46.192C272.997 46.192 272.061 46.024 271.245 45.688C270.445 45.352 269.757 44.856 269.181 44.2C268.605 43.528 268.165 42.688 267.861 41.68C267.573 40.656 267.429 39.456 267.429 38.08C267.429 36.992 267.525 36.016 267.717 35.152C267.909 34.288 268.181 33.52 268.533 32.848C268.901 32.176 269.349 31.592 269.877 31.096C270.421 30.6 271.029 30.192 271.701 29.872C272.389 29.536 273.141 29.28 273.957 29.104L279.765 27.808L280.101 29.944L274.749 31.096C274.429 31.16 274.045 31.256 273.597 31.384C273.149 31.512 272.693 31.712 272.229 31.984C271.765 32.24 271.333 32.6 270.933 33.064C270.533 33.528 270.213 34.136 269.973 34.888C269.733 35.624 269.613 36.536 269.613 37.624C269.613 37.928 269.621 38.16 269.637 38.32C269.653 38.48 269.669 38.64 269.685 38.8C269.717 38.96 269.741 39.2 269.757 39.52L268.797 38.536C269.053 37.656 269.461 36.888 270.021 36.232C270.581 35.576 271.253 35.072 272.037 34.72C272.837 34.352 273.709 34.168 274.653 34.168C275.837 34.168 276.885 34.424 277.797 34.936C278.725 35.448 279.453 36.152 279.981 37.048C280.509 37.944 280.773 38.968 280.773 40.12C280.773 41.288 280.493 42.336 279.933 43.264C279.389 44.176 278.613 44.896 277.605 45.424C276.597 45.936 275.413 46.192 274.053 46.192ZM274.269 44.272C275.085 44.272 275.805 44.096 276.429 43.744C277.053 43.376 277.541 42.888 277.893 42.28C278.245 41.656 278.421 40.96 278.421 40.192C278.421 39.424 278.245 38.744 277.893 38.152C277.541 37.56 277.053 37.096 276.429 36.76C275.805 36.408 275.069 36.232 274.221 36.232C273.421 36.232 272.701 36.4 272.061 36.736C271.421 37.056 270.925 37.512 270.573 38.104C270.221 38.68 270.045 39.352 270.045 40.12C270.045 40.888 270.221 41.592 270.573 42.232C270.941 42.856 271.437 43.352 272.061 43.72C272.701 44.088 273.437 44.272 274.269 44.272ZM284.064 46V33.28H286.368V38.68H293.616V33.28H295.92V46H293.616V40.672H286.368V46H284.064ZM305.848 46.144C304.568 46.144 303.432 45.864 302.44 45.304C301.448 44.744 300.664 43.976 300.088 43C299.512 42.008 299.224 40.888 299.224 39.64C299.224 38.376 299.512 37.256 300.088 36.28C300.664 35.304 301.448 34.544 302.44 34C303.432 33.44 304.568 33.16 305.848 33.16C307.112 33.16 308.24 33.44 309.232 34C310.24 34.544 311.024 35.304 311.584 36.28C312.16 37.24 312.448 38.36 312.448 39.64C312.448 40.904 312.16 42.024 311.584 43C311.024 43.976 310.24 44.744 309.232 45.304C308.24 45.864 307.112 46.144 305.848 46.144ZM305.848 44.128C306.664 44.128 307.392 43.944 308.032 43.576C308.688 43.208 309.2 42.688 309.568 42.016C309.936 41.328 310.12 40.536 310.12 39.64C310.12 38.728 309.936 37.944 309.568 37.288C309.2 36.616 308.688 36.096 308.032 35.728C307.392 35.36 306.664 35.176 305.848 35.176C305.032 35.176 304.304 35.36 303.664 35.728C303.024 36.096 302.512 36.616 302.128 37.288C301.744 37.944 301.552 38.728 301.552 39.64C301.552 40.536 301.744 41.328 302.128 42.016C302.512 42.688 303.024 43.208 303.664 43.576C304.304 43.944 305.032 44.128 305.848 44.128ZM321.439 46.144C320.079 46.144 318.879 45.864 317.839 45.304C316.815 44.744 316.015 43.976 315.439 43C314.879 42.024 314.599 40.904 314.599 39.64C314.599 38.376 314.871 37.256 315.415 36.28C315.975 35.304 316.735 34.544 317.695 34C318.671 33.44 319.767 33.16 320.983 33.16C322.215 33.16 323.303 33.432 324.247 33.976C325.191 34.52 325.927 35.288 326.455 36.28C326.999 37.256 327.271 38.4 327.271 39.712C327.271 39.808 327.263 39.92 327.247 40.048C327.247 40.176 327.239 40.296 327.223 40.408H316.399V38.752H326.023L325.087 39.328C325.103 38.512 324.935 37.784 324.583 37.144C324.231 36.504 323.743 36.008 323.119 35.656C322.511 35.288 321.799 35.104 320.983 35.104C320.183 35.104 319.471 35.288 318.847 35.656C318.223 36.008 317.735 36.512 317.383 37.168C317.031 37.808 316.855 38.544 316.855 39.376V39.76C316.855 40.608 317.047 41.368 317.431 42.04C317.831 42.696 318.383 43.208 319.087 43.576C319.791 43.944 320.599 44.128 321.511 44.128C322.263 44.128 322.943 44 323.551 43.744C324.175 43.488 324.719 43.104 325.183 42.592L326.455 44.08C325.879 44.752 325.159 45.264 324.295 45.616C323.447 45.968 322.495 46.144 321.439 46.144ZM341.011 46.168C340.051 46.168 339.107 46.048 338.179 45.808C337.267 45.552 336.451 45.192 335.731 44.728L336.427 42.976C337.035 43.36 337.731 43.664 338.515 43.888C339.299 44.096 340.091 44.2 340.891 44.2C341.627 44.2 342.259 44.112 342.787 43.936C343.331 43.76 343.747 43.52 344.035 43.216C344.323 42.896 344.467 42.528 344.467 42.112C344.467 41.52 344.203 41.064 343.675 40.744C343.147 40.424 342.411 40.264 341.467 40.264H339.163V38.608H341.323C341.883 38.608 342.371 38.544 342.787 38.416C343.203 38.288 343.523 38.096 343.747 37.84C343.987 37.568 344.107 37.256 344.107 36.904C344.107 36.52 343.971 36.192 343.699 35.92C343.427 35.648 343.043 35.44 342.547 35.296C342.067 35.152 341.499 35.08 340.843 35.08C340.203 35.096 339.547 35.184 338.875 35.344C338.219 35.504 337.547 35.752 336.859 36.088L336.235 34.288C337.003 33.92 337.755 33.64 338.491 33.448C339.243 33.24 339.987 33.128 340.723 33.112C341.827 33.08 342.811 33.208 343.675 33.496C344.539 33.768 345.219 34.168 345.715 34.696C346.227 35.224 346.483 35.848 346.483 36.568C346.483 37.176 346.291 37.72 345.907 38.2C345.523 38.664 345.011 39.032 344.371 39.304C343.731 39.576 342.995 39.712 342.163 39.712L342.259 39.16C343.683 39.16 344.803 39.44 345.619 40C346.435 40.56 346.843 41.32 346.843 42.28C346.843 43.048 346.587 43.728 346.075 44.32C345.563 44.896 344.867 45.352 343.987 45.688C343.123 46.008 342.131 46.168 341.011 46.168ZM358.145 46V43.312L358.025 42.808V38.224C358.025 37.248 357.737 36.496 357.161 35.968C356.601 35.424 355.753 35.152 354.617 35.152C353.865 35.152 353.129 35.28 352.409 35.536C351.689 35.776 351.081 36.104 350.585 36.52L349.625 34.792C350.281 34.264 351.065 33.864 351.977 33.592C352.905 33.304 353.873 33.16 354.881 33.16C356.625 33.16 357.969 33.584 358.913 34.432C359.857 35.28 360.329 36.576 360.329 38.32V46H358.145ZM353.969 46.144C353.025 46.144 352.193 45.984 351.473 45.664C350.769 45.344 350.225 44.904 349.841 44.344C349.457 43.768 349.265 43.12 349.265 42.4C349.265 41.712 349.425 41.088 349.745 40.528C350.081 39.968 350.617 39.52 351.353 39.184C352.105 38.848 353.113 38.68 354.377 38.68H358.409V40.336H354.473C353.321 40.336 352.545 40.528 352.145 40.912C351.745 41.296 351.545 41.76 351.545 42.304C351.545 42.928 351.793 43.432 352.289 43.816C352.785 44.184 353.473 44.368 354.353 44.368C355.217 44.368 355.969 44.176 356.609 43.792C357.265 43.408 357.737 42.848 358.025 42.112L358.481 43.696C358.177 44.448 357.641 45.048 356.873 45.496C356.105 45.928 355.137 46.144 353.969 46.144ZM364.478 46V33.28H366.782V38.68H374.03V33.28H376.334V46H374.03V40.672H366.782V46H364.478ZM388.95 46V41.536L389.31 41.968H385.254C383.558 41.968 382.23 41.608 381.27 40.888C380.326 40.168 379.854 39.12 379.854 37.744C379.854 36.272 380.358 35.16 381.366 34.408C382.39 33.656 383.75 33.28 385.446 33.28H391.014V46H388.95ZM379.734 46L383.19 41.128H385.566L382.206 46H379.734ZM388.95 40.816V34.648L389.31 35.296H385.518C384.462 35.296 383.646 35.496 383.07 35.896C382.494 36.28 382.206 36.92 382.206 37.816C382.206 39.48 383.278 40.312 385.422 40.312H389.31L388.95 40.816ZM398.029 46V34.696L398.605 35.296H393.373V33.28H404.989V35.296H399.781L400.333 34.696V46H398.029ZM407.345 46V33.28H409.649V42.544L417.449 33.28H419.537V46H417.233V36.736L409.457 46H407.345ZM429.673 46.144C428.313 46.144 427.113 45.864 426.073 45.304C425.049 44.744 424.249 43.976 423.673 43C423.113 42.024 422.833 40.904 422.833 39.64C422.833 38.376 423.105 37.256 423.649 36.28C424.209 35.304 424.969 34.544 425.929 34C426.905 33.44 428.001 33.16 429.217 33.16C430.449 33.16 431.537 33.432 432.481 33.976C433.425 34.52 434.161 35.288 434.689 36.28C435.233 37.256 435.505 38.4 435.505 39.712C435.505 39.808 435.497 39.92 435.481 40.048C435.481 40.176 435.473 40.296 435.457 40.408H424.633V38.752H434.257L433.321 39.328C433.337 38.512 433.169 37.784 432.817 37.144C432.465 36.504 431.977 36.008 431.353 35.656C430.745 35.288 430.033 35.104 429.217 35.104C428.417 35.104 427.705 35.288 427.081 35.656C426.457 36.008 425.969 36.512 425.617 37.168C425.265 37.808 425.089 38.544 425.089 39.376V39.76C425.089 40.608 425.281 41.368 425.665 42.04C426.065 42.696 426.617 43.208 427.321 43.576C428.025 43.944 428.833 44.128 429.745 44.128C430.497 44.128 431.177 44 431.785 43.744C432.409 43.488 432.953 43.104 433.417 42.592L434.689 44.08C434.113 44.752 433.393 45.264 432.529 45.616C431.681 45.968 430.729 46.144 429.673 46.144Z" fill="white"/>
</svg>
