<svg width="555" height="380" viewBox="0 0 555 380" fill="none" xmlns="http://www.w3.org/2000/svg">
<rect x="14.8667" y="5.06668" width="535.133" height="338.622" rx="45" stroke="#FFB800" stroke-width="10"/>
<rect opacity="0.19" x="5" y="19.8666" width="531.022" height="355.067" rx="70" stroke="#FFB800" stroke-width="10"/>
<path d="M77.052 82.9778V63.3778H79.824V78.4978L91.416 63.3778H93.992V82.9778H91.248V67.8858L79.628 82.9778H77.052ZM99.6548 82.9778V68.1378H102.343V74.4378H110.799V68.1378H113.487V82.9778H110.799V76.7618H102.343V82.9778H99.6548ZM128.849 81.7178V70.4898H122.409L122.269 73.3458C122.232 74.2791 122.167 75.1844 122.073 76.0618C121.999 76.9204 121.868 77.7138 121.681 78.4418C121.513 79.1698 121.261 79.7671 120.925 80.2338C120.589 80.7004 120.141 80.9898 119.581 81.1018L116.921 80.6258C117.5 80.6444 117.967 80.4578 118.321 80.0658C118.676 79.6551 118.947 79.0951 119.133 78.3858C119.339 77.6764 119.488 76.8738 119.581 75.9778C119.675 75.0631 119.749 74.1204 119.805 73.1498L120.029 68.1378H131.537V81.7178H128.849ZM116.333 86.4218V80.6258H133.805V86.4218H131.285V82.9778H118.881V86.4218H116.333ZM137.307 82.9778V68.1378H139.995V78.9458L149.095 68.1378H151.531V82.9778H148.843V72.1698L139.771 82.9778H137.307ZM156.749 82.9778V68.1378H163.637C165.373 68.1378 166.735 68.4738 167.725 69.1458C168.733 69.7991 169.237 70.7324 169.237 71.9458C169.237 73.1591 168.761 74.1018 167.809 74.7738C166.875 75.4271 165.634 75.7538 164.085 75.7538L164.505 75.0258C166.278 75.0258 167.594 75.3524 168.453 76.0058C169.311 76.6591 169.741 77.6204 169.741 78.8898C169.741 80.1778 169.255 81.1858 168.285 81.9138C167.333 82.6231 165.867 82.9778 163.889 82.9778H156.749ZM159.381 80.9058H163.693C164.813 80.9058 165.653 80.7378 166.213 80.4018C166.773 80.0471 167.053 79.4871 167.053 78.7218C167.053 77.9378 166.791 77.3684 166.269 77.0138C165.765 76.6404 164.962 76.4538 163.861 76.4538H159.381V80.9058ZM159.381 74.5218H163.413C164.439 74.5218 165.214 74.3351 165.737 73.9618C166.278 73.5698 166.549 73.0284 166.549 72.3378C166.549 71.6284 166.278 71.0964 165.737 70.7418C165.214 70.3871 164.439 70.2098 163.413 70.2098H159.381V74.5218ZM173.948 82.9778V68.1378H176.636V78.9458L185.736 68.1378H188.172V82.9778H185.484V72.1698L176.412 82.9778H173.948ZM203.525 81.7178V70.4898H197.085L196.945 73.3458C196.908 74.2791 196.842 75.1844 196.749 76.0618C196.674 76.9204 196.544 77.7138 196.357 78.4418C196.189 79.1698 195.937 79.7671 195.601 80.2338C195.265 80.7004 194.817 80.9898 194.257 81.1018L191.597 80.6258C192.176 80.6444 192.642 80.4578 192.997 80.0658C193.352 79.6551 193.622 79.0951 193.809 78.3858C194.014 77.6764 194.164 76.8738 194.257 75.9778C194.35 75.0631 194.425 74.1204 194.481 73.1498L194.705 68.1378H206.213V81.7178H203.525ZM191.009 86.4218V80.6258H208.481V86.4218H205.961V82.9778H193.557V86.4218H191.009ZM212.739 88.5778C212.03 88.5778 211.339 88.4564 210.667 88.2138C209.995 87.9898 209.416 87.6538 208.931 87.2058L210.079 85.1898C210.452 85.5444 210.863 85.8151 211.311 86.0018C211.759 86.1885 212.235 86.2818 212.739 86.2818C213.392 86.2818 213.934 86.1138 214.363 85.7778C214.792 85.4418 215.194 84.8444 215.567 83.9858L216.491 81.9418L216.771 81.6058L222.595 68.1378H225.227L218.031 84.4618C217.602 85.5071 217.116 86.3284 216.575 86.9258C216.052 87.5231 215.474 87.9431 214.839 88.1858C214.204 88.4471 213.504 88.5778 212.739 88.5778ZM216.267 83.4538L209.491 68.1378H212.291L218.059 81.3538L216.267 83.4538ZM236.614 82.9778V79.8418L236.474 79.2538V73.9058C236.474 72.7671 236.138 71.8898 235.466 71.2738C234.813 70.6391 233.823 70.3218 232.498 70.3218C231.621 70.3218 230.762 70.4711 229.922 70.7698C229.082 71.0498 228.373 71.4324 227.794 71.9178L226.674 69.9018C227.439 69.2858 228.354 68.8191 229.418 68.5018C230.501 68.1658 231.63 67.9978 232.806 67.9978C234.841 67.9978 236.409 68.4924 237.51 69.4818C238.611 70.4711 239.162 71.9831 239.162 74.0178V82.9778H236.614ZM231.742 83.1458C230.641 83.1458 229.67 82.9591 228.83 82.5858C228.009 82.2124 227.374 81.6991 226.926 81.0458C226.478 80.3738 226.254 79.6178 226.254 78.7778C226.254 77.9751 226.441 77.2471 226.814 76.5938C227.206 75.9404 227.831 75.4178 228.69 75.0258C229.567 74.6338 230.743 74.4378 232.218 74.4378H236.922V76.3698H232.33C230.986 76.3698 230.081 76.5938 229.614 77.0418C229.147 77.4898 228.914 78.0311 228.914 78.6658C228.914 79.3938 229.203 79.9818 229.782 80.4298C230.361 80.8591 231.163 81.0738 232.19 81.0738C233.198 81.0738 234.075 80.8498 234.822 80.4018C235.587 79.9538 236.138 79.3004 236.474 78.4418L237.006 80.2898C236.651 81.1671 236.026 81.8671 235.13 82.3898C234.234 82.8938 233.105 83.1458 231.742 83.1458ZM241.538 82.9498L241.706 80.6818C241.837 80.7004 241.958 80.7191 242.07 80.7378C242.182 80.7564 242.285 80.7658 242.378 80.7658C242.976 80.7658 243.442 80.5604 243.778 80.1498C244.133 79.7391 244.394 79.1978 244.562 78.5258C244.73 77.8351 244.852 77.0604 244.926 76.2018C245.001 75.3431 245.057 74.4844 245.094 73.6258L245.346 68.1378H256.742V82.9778H254.054V69.7058L254.698 70.4898H247.082L247.698 69.6778L247.502 73.7938C247.446 75.1004 247.344 76.3231 247.194 77.4618C247.045 78.6004 246.812 79.5991 246.494 80.4578C246.196 81.3164 245.776 81.9884 245.234 82.4738C244.712 82.9591 244.03 83.2018 243.19 83.2018C242.948 83.2018 242.686 83.1738 242.406 83.1178C242.145 83.0804 241.856 83.0244 241.538 82.9498ZM268.8 73.1778C270.685 73.1964 272.123 73.6258 273.112 74.4658C274.101 75.3058 274.596 76.4911 274.596 78.0218C274.596 79.6271 274.055 80.8684 272.972 81.7458C271.889 82.6044 270.359 83.0244 268.38 83.0058L261.94 82.9778V68.1378H264.628V73.1498L268.8 73.1778ZM268.156 80.9618C269.369 80.9804 270.284 80.7378 270.9 80.2338C271.535 79.7298 271.852 78.9831 271.852 77.9938C271.852 77.0231 271.544 76.3138 270.928 75.8658C270.312 75.4178 269.388 75.1844 268.156 75.1658L264.628 75.1098V80.9338L268.156 80.9618ZM278.045 82.9778V68.1378H280.733V74.4378H289.189V68.1378H291.877V82.9778H289.189V76.7618H280.733V82.9778H278.045ZM303.46 83.1458C301.967 83.1458 300.641 82.8191 299.484 82.1658C298.327 81.5124 297.412 80.6164 296.74 79.4778C296.068 78.3204 295.732 77.0138 295.732 75.5578C295.732 74.0831 296.068 72.7764 296.74 71.6378C297.412 70.4991 298.327 69.6124 299.484 68.9778C300.641 68.3244 301.967 67.9978 303.46 67.9978C304.935 67.9978 306.251 68.3244 307.408 68.9778C308.584 69.6124 309.499 70.4991 310.152 71.6378C310.824 72.7578 311.16 74.0644 311.16 75.5578C311.16 77.0324 310.824 78.3391 310.152 79.4778C309.499 80.6164 308.584 81.5124 307.408 82.1658C306.251 82.8191 304.935 83.1458 303.46 83.1458ZM303.46 80.7938C304.412 80.7938 305.261 80.5791 306.008 80.1498C306.773 79.7204 307.371 79.1138 307.8 78.3298C308.229 77.5271 308.444 76.6031 308.444 75.5578C308.444 74.4938 308.229 73.5791 307.8 72.8138C307.371 72.0298 306.773 71.4231 306.008 70.9938C305.261 70.5644 304.412 70.3498 303.46 70.3498C302.508 70.3498 301.659 70.5644 300.912 70.9938C300.165 71.4231 299.568 72.0298 299.12 72.8138C298.672 73.5791 298.448 74.4938 298.448 75.5578C298.448 76.6031 298.672 77.5271 299.12 78.3298C299.568 79.1138 300.165 79.7204 300.912 80.1498C301.659 80.5791 302.508 80.7938 303.46 80.7938ZM322.561 82.9778V68.1378H336.309V82.9778H333.621V69.8178L334.265 70.4898H324.605L325.249 69.8178V82.9778H322.561ZM347.866 83.1458C346.373 83.1458 345.048 82.8191 343.89 82.1658C342.733 81.5124 341.818 80.6164 341.146 79.4778C340.474 78.3204 340.138 77.0138 340.138 75.5578C340.138 74.0831 340.474 72.7764 341.146 71.6378C341.818 70.4991 342.733 69.6124 343.89 68.9778C345.048 68.3244 346.373 67.9978 347.866 67.9978C349.341 67.9978 350.657 68.3244 351.814 68.9778C352.99 69.6124 353.905 70.4991 354.558 71.6378C355.23 72.7578 355.566 74.0644 355.566 75.5578C355.566 77.0324 355.23 78.3391 354.558 79.4778C353.905 80.6164 352.99 81.5124 351.814 82.1658C350.657 82.8191 349.341 83.1458 347.866 83.1458ZM347.866 80.7938C348.818 80.7938 349.668 80.5791 350.414 80.1498C351.18 79.7204 351.777 79.1138 352.206 78.3298C352.636 77.5271 352.85 76.6031 352.85 75.5578C352.85 74.4938 352.636 73.5791 352.206 72.8138C351.777 72.0298 351.18 71.4231 350.414 70.9938C349.668 70.5644 348.818 70.3498 347.866 70.3498C346.914 70.3498 346.065 70.5644 345.318 70.9938C344.572 71.4231 343.974 72.0298 343.526 72.8138C343.078 73.5791 342.854 74.4938 342.854 75.5578C342.854 76.6031 343.078 77.5271 343.526 78.3298C343.974 79.1138 344.572 79.7204 345.318 80.1498C346.065 80.5791 346.914 80.7938 347.866 80.7938ZM369.474 81.7178V70.4898H363.034L362.894 73.3458C362.857 74.2791 362.792 75.1844 362.698 76.0618C362.624 76.9204 362.493 77.7138 362.306 78.4418C362.138 79.1698 361.886 79.7671 361.55 80.2338C361.214 80.7004 360.766 80.9898 360.206 81.1018L357.546 80.6258C358.125 80.6444 358.592 80.4578 358.946 80.0658C359.301 79.6551 359.572 79.0951 359.758 78.3858C359.964 77.6764 360.113 76.8738 360.206 75.9778C360.3 75.0631 360.374 74.1204 360.43 73.1498L360.654 68.1378H372.162V81.7178H369.474ZM356.958 86.4218V80.6258H374.43V86.4218H371.91V82.9778H359.506V86.4218H356.958ZM384.792 83.2018C383.56 83.2018 382.468 83.0058 381.516 82.6138C380.583 82.2218 379.78 81.6431 379.108 80.8778C378.436 80.0938 377.923 79.1138 377.568 77.9378C377.232 76.7431 377.064 75.3431 377.064 73.7378C377.064 72.4684 377.176 71.3298 377.4 70.3218C377.624 69.3138 377.941 68.4178 378.352 67.6338C378.781 66.8498 379.304 66.1684 379.92 65.5898C380.555 65.0111 381.264 64.5351 382.048 64.1618C382.851 63.7698 383.728 63.4711 384.68 63.2658L391.456 61.7538L391.848 64.2458L385.604 65.5898C385.231 65.6644 384.783 65.7764 384.26 65.9258C383.737 66.0751 383.205 66.3084 382.664 66.6258C382.123 66.9244 381.619 67.3444 381.152 67.8858C380.685 68.4271 380.312 69.1364 380.032 70.0138C379.752 70.8724 379.612 71.9364 379.612 73.2058C379.612 73.5604 379.621 73.8311 379.64 74.0178C379.659 74.2044 379.677 74.3911 379.696 74.5778C379.733 74.7644 379.761 75.0444 379.78 75.4178L378.66 74.2698C378.959 73.2431 379.435 72.3471 380.088 71.5818C380.741 70.8164 381.525 70.2284 382.44 69.8178C383.373 69.3884 384.391 69.1738 385.492 69.1738C386.873 69.1738 388.096 69.4724 389.16 70.0698C390.243 70.6671 391.092 71.4884 391.708 72.5338C392.324 73.5791 392.632 74.7738 392.632 76.1178C392.632 77.4804 392.305 78.7031 391.652 79.7858C391.017 80.8498 390.112 81.6898 388.936 82.3058C387.76 82.9031 386.379 83.2018 384.792 83.2018ZM385.044 80.9618C385.996 80.9618 386.836 80.7564 387.564 80.3458C388.292 79.9164 388.861 79.3471 389.272 78.6378C389.683 77.9098 389.888 77.0978 389.888 76.2018C389.888 75.3058 389.683 74.5124 389.272 73.8218C388.861 73.1311 388.292 72.5898 387.564 72.1978C386.836 71.7871 385.977 71.5818 384.988 71.5818C384.055 71.5818 383.215 71.7778 382.468 72.1698C381.721 72.5431 381.143 73.0751 380.732 73.7658C380.321 74.4378 380.116 75.2218 380.116 76.1178C380.116 77.0138 380.321 77.8351 380.732 78.5818C381.161 79.3098 381.74 79.8884 382.468 80.3178C383.215 80.7471 384.073 80.9618 385.044 80.9618ZM396.471 82.9778V68.1378H399.159V78.9458L408.259 68.1378H410.695V82.9778H408.007V72.1698L398.935 82.9778H396.471ZM423.781 83.1458C422.549 83.1458 421.419 82.8658 420.393 82.3058C419.385 81.7271 418.573 80.8778 417.957 79.7578C417.359 78.6378 417.061 77.2378 417.061 75.5578C417.061 73.8778 417.35 72.4778 417.929 71.3578C418.526 70.2378 419.329 69.3978 420.337 68.8378C421.363 68.2778 422.511 67.9978 423.781 67.9978C425.237 67.9978 426.525 68.3151 427.645 68.9498C428.765 69.5844 429.651 70.4711 430.305 71.6098C430.958 72.7298 431.285 74.0458 431.285 75.5578C431.285 77.0698 430.958 78.3951 430.305 79.5338C429.651 80.6724 428.765 81.5591 427.645 82.1938C426.525 82.8284 425.237 83.1458 423.781 83.1458ZM415.913 88.4098V68.1378H418.489V72.1418L418.321 75.5858L418.601 79.0298V88.4098H415.913ZM423.557 80.7938C424.509 80.7938 425.358 80.5791 426.105 80.1498C426.87 79.7204 427.467 79.1138 427.897 78.3298C428.345 77.5271 428.569 76.6031 428.569 75.5578C428.569 74.4938 428.345 73.5791 427.897 72.8138C427.467 72.0298 426.87 71.4231 426.105 70.9938C425.358 70.5644 424.509 70.3498 423.557 70.3498C422.623 70.3498 421.774 70.5644 421.009 70.9938C420.262 71.4231 419.665 72.0298 419.217 72.8138C418.787 73.5791 418.573 74.4938 418.573 75.5578C418.573 76.6031 418.787 77.5271 419.217 78.3298C419.665 79.1138 420.262 79.7204 421.009 80.1498C421.774 80.5791 422.623 80.7938 423.557 80.7938ZM444.153 82.9778V79.8418L444.013 79.2538V73.9058C444.013 72.7671 443.677 71.8898 443.005 71.2738C442.352 70.6391 441.363 70.3218 440.037 70.3218C439.16 70.3218 438.301 70.4711 437.461 70.7698C436.621 71.0498 435.912 71.4324 435.333 71.9178L434.213 69.9018C434.979 69.2858 435.893 68.8191 436.957 68.5018C438.04 68.1658 439.169 67.9978 440.345 67.9978C442.38 67.9978 443.948 68.4924 445.049 69.4818C446.151 70.4711 446.701 71.9831 446.701 74.0178V82.9778H444.153ZM439.281 83.1458C438.18 83.1458 437.209 82.9591 436.369 82.5858C435.548 82.2124 434.913 81.6991 434.465 81.0458C434.017 80.3738 433.793 79.6178 433.793 78.7778C433.793 77.9751 433.98 77.2471 434.353 76.5938C434.745 75.9404 435.371 75.4178 436.229 75.0258C437.107 74.6338 438.283 74.4378 439.757 74.4378H444.461V76.3698H439.869C438.525 76.3698 437.62 76.5938 437.153 77.0418C436.687 77.4898 436.453 78.0311 436.453 78.6658C436.453 79.3938 436.743 79.9818 437.321 80.4298C437.9 80.8591 438.703 81.0738 439.729 81.0738C440.737 81.0738 441.615 80.8498 442.361 80.4018C443.127 79.9538 443.677 79.3004 444.013 78.4418L444.545 80.2898C444.191 81.1671 443.565 81.8671 442.669 82.3898C441.773 82.8938 440.644 83.1458 439.281 83.1458ZM458.15 83.1458C456.563 83.1458 455.163 82.8191 453.95 82.1658C452.755 81.5124 451.822 80.6164 451.15 79.4778C450.496 78.3391 450.17 77.0324 450.17 75.5578C450.17 74.0831 450.487 72.7764 451.122 71.6378C451.775 70.4991 452.662 69.6124 453.782 68.9778C454.92 68.3244 456.199 67.9978 457.618 67.9978C459.055 67.9978 460.324 68.3151 461.426 68.9498C462.527 69.5844 463.386 70.4804 464.002 71.6378C464.636 72.7764 464.954 74.1111 464.954 75.6418C464.954 75.7538 464.944 75.8844 464.926 76.0338C464.926 76.1831 464.916 76.3231 464.898 76.4538H452.27V74.5218H463.498L462.406 75.1938C462.424 74.2418 462.228 73.3924 461.818 72.6458C461.407 71.8991 460.838 71.3204 460.11 70.9098C459.4 70.4804 458.57 70.2658 457.618 70.2658C456.684 70.2658 455.854 70.4804 455.126 70.9098C454.398 71.3204 453.828 71.9084 453.418 72.6738C453.007 73.4204 452.802 74.2791 452.802 75.2498V75.6978C452.802 76.6871 453.026 77.5738 453.474 78.3578C453.94 79.1231 454.584 79.7204 455.406 80.1498C456.227 80.5791 457.17 80.7938 458.234 80.7938C459.111 80.7938 459.904 80.6444 460.614 80.3458C461.342 80.0471 461.976 79.5991 462.518 79.0018L464.002 80.7378C463.33 81.5218 462.49 82.1191 461.482 82.5298C460.492 82.9404 459.382 83.1458 458.15 83.1458ZM469.124 82.9778V68.1378H471.896L478.28 79.1138H477.16L483.712 68.1378H486.232V82.9778H483.796V71.1618L484.244 71.4138L478.252 81.2978H477.076L471.056 71.2178L471.588 71.1058V82.9778H469.124ZM76.604 116.978V102.138H90.352V116.978H87.664V103.818L88.308 104.49H78.648L79.292 103.818V116.978H76.604ZM101.909 117.146C100.416 117.146 99.0906 116.819 97.9332 116.166C96.7759 115.512 95.8612 114.616 95.1892 113.478C94.5172 112.32 94.1812 111.014 94.1812 109.558C94.1812 108.083 94.5172 106.776 95.1892 105.638C95.8612 104.499 96.7759 103.612 97.9332 102.978C99.0906 102.324 100.416 101.998 101.909 101.998C103.384 101.998 104.7 102.324 105.857 102.978C107.033 103.612 107.948 104.499 108.601 105.638C109.273 106.758 109.609 108.064 109.609 109.558C109.609 111.032 109.273 112.339 108.601 113.478C107.948 114.616 107.033 115.512 105.857 116.166C104.7 116.819 103.384 117.146 101.909 117.146ZM101.909 114.794C102.861 114.794 103.711 114.579 104.457 114.15C105.223 113.72 105.82 113.114 106.249 112.33C106.679 111.527 106.893 110.603 106.893 109.558C106.893 108.494 106.679 107.579 106.249 106.814C105.82 106.03 105.223 105.423 104.457 104.994C103.711 104.564 102.861 104.35 101.909 104.35C100.957 104.35 100.108 104.564 99.3612 104.994C98.6146 105.423 98.0172 106.03 97.5692 106.814C97.1212 107.579 96.8972 108.494 96.8972 109.558C96.8972 110.603 97.1212 111.527 97.5692 112.33C98.0172 113.114 98.6146 113.72 99.3612 114.15C100.108 114.579 100.957 114.794 101.909 114.794ZM123.517 115.718V104.49H117.077L116.937 107.346C116.9 108.279 116.835 109.184 116.741 110.062C116.667 110.92 116.536 111.714 116.349 112.442C116.181 113.17 115.929 113.767 115.593 114.234C115.257 114.7 114.809 114.99 114.249 115.102L111.589 114.626C112.168 114.644 112.635 114.458 112.989 114.066C113.344 113.655 113.615 113.095 113.801 112.386C114.007 111.676 114.156 110.874 114.249 109.978C114.343 109.063 114.417 108.12 114.473 107.15L114.697 102.138H126.205V115.718H123.517ZM111.001 120.422V114.626H128.473V120.422H125.953V116.978H113.549V120.422H111.001ZM129.623 116.978L136.007 108.69L135.979 110.062L129.903 102.138H132.899L137.547 108.242H136.399L141.047 102.138H143.987L137.827 110.118L137.855 108.69L144.295 116.978H141.243L136.343 110.482L137.435 110.65L132.619 116.978H129.623ZM152.987 117.146C151.494 117.146 150.169 116.819 149.011 116.166C147.854 115.512 146.939 114.616 146.267 113.478C145.595 112.32 145.259 111.014 145.259 109.558C145.259 108.083 145.595 106.776 146.267 105.638C146.939 104.499 147.854 103.612 149.011 102.978C150.169 102.324 151.494 101.998 152.987 101.998C154.462 101.998 155.778 102.324 156.935 102.978C158.111 103.612 159.026 104.499 159.679 105.638C160.351 106.758 160.687 108.064 160.687 109.558C160.687 111.032 160.351 112.339 159.679 113.478C159.026 114.616 158.111 115.512 156.935 116.166C155.778 116.819 154.462 117.146 152.987 117.146ZM152.987 114.794C153.939 114.794 154.789 114.579 155.535 114.15C156.301 113.72 156.898 113.114 157.327 112.33C157.757 111.527 157.971 110.603 157.971 109.558C157.971 108.494 157.757 107.579 157.327 106.814C156.898 106.03 156.301 105.423 155.535 104.994C154.789 104.564 153.939 104.35 152.987 104.35C152.035 104.35 151.186 104.564 150.439 104.994C149.693 105.423 149.095 106.03 148.647 106.814C148.199 107.579 147.975 108.494 147.975 109.558C147.975 110.603 148.199 111.527 148.647 112.33C149.095 113.114 149.693 113.72 150.439 114.15C151.186 114.579 152.035 114.794 152.987 114.794ZM174.595 115.718V104.49H168.155L168.015 107.346C167.978 108.279 167.913 109.184 167.819 110.062C167.745 110.92 167.614 111.714 167.427 112.442C167.259 113.17 167.007 113.767 166.671 114.234C166.335 114.7 165.887 114.99 165.327 115.102L162.667 114.626C163.246 114.644 163.713 114.458 164.067 114.066C164.422 113.655 164.693 113.095 164.879 112.386C165.085 111.676 165.234 110.874 165.327 109.978C165.421 109.063 165.495 108.12 165.551 107.15L165.775 102.138H177.283V115.718H174.595ZM162.079 120.422V114.626H179.551V120.422H177.031V116.978H164.627V120.422H162.079ZM192.545 116.978V111.77L192.965 112.274H188.233C186.255 112.274 184.705 111.854 183.585 111.014C182.484 110.174 181.933 108.951 181.933 107.346C181.933 105.628 182.521 104.331 183.697 103.454C184.892 102.576 186.479 102.138 188.457 102.138H194.953V116.978H192.545ZM181.793 116.978L185.825 111.294H188.597L184.677 116.978H181.793ZM192.545 110.93V103.734L192.965 104.49H188.541C187.309 104.49 186.357 104.723 185.685 105.19C185.013 105.638 184.677 106.384 184.677 107.43C184.677 109.371 185.928 110.342 188.429 110.342H192.965L192.545 110.93ZM210.054 114.626L209.438 115.326V102.138H212.126V115.326L211.454 114.626H219.294L218.65 115.326V102.138H221.338V116.978H200.198V102.138H202.886V115.326L202.242 114.626H210.054ZM221.002 120.142V116.278L221.646 116.978H218.51V114.626H223.522V120.142H221.002ZM226.557 116.978V102.138H229.245V112.946L238.345 102.138H240.781V116.978H238.093V106.17L229.021 116.978H226.557ZM245.999 116.978V102.138H248.687V112.946L257.787 102.138H260.223V116.978H257.535V106.17L248.463 116.978H245.999ZM252.943 100.206C251.58 100.206 250.507 99.8791 249.723 99.2258C248.957 98.5538 248.565 97.5924 248.547 96.3418H250.367C250.385 97.0511 250.619 97.6111 251.067 98.0218C251.533 98.4324 252.149 98.6378 252.915 98.6378C253.68 98.6378 254.296 98.4324 254.763 98.0218C255.229 97.6111 255.472 97.0511 255.491 96.3418H257.367C257.348 97.5924 256.947 98.5538 256.163 99.2258C255.379 99.8791 254.305 100.206 252.943 100.206ZM282.059 116.978V113.842L281.919 113.254V107.906C281.919 106.767 281.583 105.89 280.911 105.274C280.258 104.639 279.269 104.322 277.943 104.322C277.066 104.322 276.207 104.471 275.367 104.77C274.527 105.05 273.818 105.432 273.239 105.918L272.119 103.902C272.885 103.286 273.799 102.819 274.863 102.502C275.946 102.166 277.075 101.998 278.251 101.998C280.286 101.998 281.854 102.492 282.955 103.482C284.057 104.471 284.607 105.983 284.607 108.018V116.978H282.059ZM277.187 117.146C276.086 117.146 275.115 116.959 274.275 116.586C273.454 116.212 272.819 115.699 272.371 115.046C271.923 114.374 271.699 113.618 271.699 112.778C271.699 111.975 271.886 111.247 272.259 110.594C272.651 109.94 273.277 109.418 274.135 109.026C275.013 108.634 276.189 108.438 277.663 108.438H282.367V110.37H277.775C276.431 110.37 275.526 110.594 275.059 111.042C274.593 111.49 274.359 112.031 274.359 112.666C274.359 113.394 274.649 113.982 275.227 114.43C275.806 114.859 276.609 115.074 277.635 115.074C278.643 115.074 279.521 114.85 280.267 114.402C281.033 113.954 281.583 113.3 281.919 112.442L282.451 114.29C282.097 115.167 281.471 115.867 280.575 116.39C279.679 116.894 278.55 117.146 277.187 117.146ZM296.308 117.202C295.076 117.202 293.984 117.006 293.032 116.614C292.098 116.222 291.296 115.643 290.624 114.878C289.952 114.094 289.438 113.114 289.084 111.938C288.748 110.743 288.58 109.343 288.58 107.738C288.58 106.468 288.692 105.33 288.916 104.322C289.14 103.314 289.457 102.418 289.868 101.634C290.297 100.85 290.82 100.168 291.436 99.5898C292.07 99.0111 292.78 98.5351 293.564 98.1618C294.366 97.7698 295.244 97.4711 296.196 97.2658L302.972 95.7538L303.364 98.2458L297.12 99.5898C296.746 99.6644 296.298 99.7764 295.776 99.9258C295.253 100.075 294.721 100.308 294.18 100.626C293.638 100.924 293.134 101.344 292.668 101.886C292.201 102.427 291.828 103.136 291.548 104.014C291.268 104.872 291.128 105.936 291.128 107.206C291.128 107.56 291.137 107.831 291.156 108.018C291.174 108.204 291.193 108.391 291.212 108.578C291.249 108.764 291.277 109.044 291.296 109.418L290.176 108.27C290.474 107.243 290.95 106.347 291.604 105.582C292.257 104.816 293.041 104.228 293.956 103.818C294.889 103.388 295.906 103.174 297.008 103.174C298.389 103.174 299.612 103.472 300.676 104.07C301.758 104.667 302.608 105.488 303.224 106.534C303.84 107.579 304.148 108.774 304.148 110.118C304.148 111.48 303.821 112.703 303.168 113.786C302.533 114.85 301.628 115.69 300.452 116.306C299.276 116.903 297.894 117.202 296.308 117.202ZM296.56 114.962C297.512 114.962 298.352 114.756 299.08 114.346C299.808 113.916 300.377 113.347 300.788 112.638C301.198 111.91 301.404 111.098 301.404 110.202C301.404 109.306 301.198 108.512 300.788 107.822C300.377 107.131 299.808 106.59 299.08 106.198C298.352 105.787 297.493 105.582 296.504 105.582C295.57 105.582 294.73 105.778 293.984 106.17C293.237 106.543 292.658 107.075 292.248 107.766C291.837 108.438 291.632 109.222 291.632 110.118C291.632 111.014 291.837 111.835 292.248 112.582C292.677 113.31 293.256 113.888 293.984 114.318C294.73 114.747 295.589 114.962 296.56 114.962ZM314.343 117.146C312.849 117.146 311.524 116.819 310.367 116.166C309.209 115.512 308.295 114.616 307.623 113.478C306.951 112.32 306.615 111.014 306.615 109.558C306.615 108.083 306.951 106.776 307.623 105.638C308.295 104.499 309.209 103.612 310.367 102.978C311.524 102.324 312.849 101.998 314.343 101.998C315.817 101.998 317.133 102.324 318.291 102.978C319.467 103.612 320.381 104.499 321.035 105.638C321.707 106.758 322.043 108.064 322.043 109.558C322.043 111.032 321.707 112.339 321.035 113.478C320.381 114.616 319.467 115.512 318.291 116.166C317.133 116.819 315.817 117.146 314.343 117.146ZM314.343 114.794C315.295 114.794 316.144 114.579 316.891 114.15C317.656 113.72 318.253 113.114 318.683 112.33C319.112 111.527 319.327 110.603 319.327 109.558C319.327 108.494 319.112 107.579 318.683 106.814C318.253 106.03 317.656 105.423 316.891 104.994C316.144 104.564 315.295 104.35 314.343 104.35C313.391 104.35 312.541 104.564 311.795 104.994C311.048 105.423 310.451 106.03 310.003 106.814C309.555 107.579 309.331 108.494 309.331 109.558C309.331 110.603 309.555 111.527 310.003 112.33C310.451 113.114 311.048 113.72 311.795 114.15C312.541 114.579 313.391 114.794 314.343 114.794ZM325.924 116.978V102.138H328.612V108.438H337.068V102.138H339.756V116.978H337.068V110.762H328.612V116.978H325.924ZM351.591 117.146C350.004 117.146 348.604 116.819 347.391 116.166C346.196 115.512 345.263 114.616 344.591 113.478C343.938 112.339 343.611 111.032 343.611 109.558C343.611 108.083 343.928 106.776 344.563 105.638C345.216 104.499 346.103 103.612 347.223 102.978C348.362 102.324 349.64 101.998 351.059 101.998C352.496 101.998 353.766 102.315 354.867 102.95C355.968 103.584 356.827 104.48 357.443 105.638C358.078 106.776 358.395 108.111 358.395 109.642C358.395 109.754 358.386 109.884 358.367 110.034C358.367 110.183 358.358 110.323 358.339 110.454H345.711V108.522H356.939L355.847 109.194C355.866 108.242 355.67 107.392 355.259 106.646C354.848 105.899 354.279 105.32 353.551 104.91C352.842 104.48 352.011 104.266 351.059 104.266C350.126 104.266 349.295 104.48 348.567 104.91C347.839 105.32 347.27 105.908 346.859 106.674C346.448 107.42 346.243 108.279 346.243 109.25V109.698C346.243 110.687 346.467 111.574 346.915 112.358C347.382 113.123 348.026 113.72 348.847 114.15C349.668 114.579 350.611 114.794 351.675 114.794C352.552 114.794 353.346 114.644 354.055 114.346C354.783 114.047 355.418 113.599 355.959 113.002L357.443 114.738C356.771 115.522 355.931 116.119 354.923 116.53C353.934 116.94 352.823 117.146 351.591 117.146ZM362.565 116.978V102.138H365.337L371.721 113.114H370.601L377.153 102.138H379.673V116.978H377.237V105.162L377.685 105.414L371.693 115.298H370.517L364.497 105.218L365.029 105.106V116.978H362.565ZM391.513 117.146C389.926 117.146 388.526 116.819 387.313 116.166C386.118 115.512 385.185 114.616 384.513 113.478C383.859 112.339 383.533 111.032 383.533 109.558C383.533 108.083 383.85 106.776 384.485 105.638C385.138 104.499 386.025 103.612 387.145 102.978C388.283 102.324 389.562 101.998 390.981 101.998C392.418 101.998 393.687 102.315 394.789 102.95C395.89 103.584 396.749 104.48 397.365 105.638C397.999 106.776 398.317 108.111 398.317 109.642C398.317 109.754 398.307 109.884 398.289 110.034C398.289 110.183 398.279 110.323 398.261 110.454H385.633V108.522H396.861L395.769 109.194C395.787 108.242 395.591 107.392 395.181 106.646C394.77 105.899 394.201 105.32 393.473 104.91C392.763 104.48 391.933 104.266 390.981 104.266C390.047 104.266 389.217 104.48 388.489 104.91C387.761 105.32 387.191 105.908 386.781 106.674C386.37 107.42 386.165 108.279 386.165 109.25V109.698C386.165 110.687 386.389 111.574 386.837 112.358C387.303 113.123 387.947 113.72 388.769 114.15C389.59 114.579 390.533 114.794 391.597 114.794C392.474 114.794 393.267 114.644 393.977 114.346C394.705 114.047 395.339 113.599 395.881 113.002L397.365 114.738C396.693 115.522 395.853 116.119 394.845 116.53C393.855 116.94 392.745 117.146 391.513 117.146ZM402.487 116.978V102.138H405.175V108.438H413.631V102.138H416.319V116.978H413.631V110.762H405.175V116.978H402.487ZM424.485 116.978V103.79L425.157 104.49H419.053V102.138H432.605V104.49H426.529L427.173 103.79V116.978H424.485ZM432.894 121.122L434.294 115.466L434.658 117.09C434.117 117.09 433.659 116.922 433.286 116.586C432.931 116.25 432.754 115.792 432.754 115.214C432.754 114.654 432.931 114.196 433.286 113.842C433.659 113.487 434.107 113.31 434.63 113.31C435.171 113.31 435.61 113.496 435.946 113.87C436.282 114.224 436.45 114.672 436.45 115.214C436.45 115.4 436.431 115.587 436.394 115.774C436.375 115.942 436.329 116.147 436.254 116.39C436.198 116.614 436.105 116.894 435.974 117.23L434.658 121.122H432.894ZM76.604 150.978V136.138H90.352V150.978H87.664V137.818L88.308 138.49H78.648L79.292 137.818V150.978H76.604ZM102.161 151.146C100.575 151.146 99.1746 150.819 97.9612 150.166C96.7666 149.512 95.8332 148.616 95.1612 147.478C94.5079 146.339 94.1812 145.032 94.1812 143.558C94.1812 142.083 94.4986 140.776 95.1332 139.638C95.7866 138.499 96.6732 137.612 97.7932 136.978C98.9319 136.324 100.211 135.998 101.629 135.998C103.067 135.998 104.336 136.315 105.437 136.95C106.539 137.584 107.397 138.48 108.013 139.638C108.648 140.776 108.965 142.111 108.965 143.642C108.965 143.754 108.956 143.884 108.937 144.034C108.937 144.183 108.928 144.323 108.909 144.454H96.2812V142.522H107.509L106.417 143.194C106.436 142.242 106.24 141.392 105.829 140.646C105.419 139.899 104.849 139.32 104.121 138.91C103.412 138.48 102.581 138.266 101.629 138.266C100.696 138.266 99.8652 138.48 99.1372 138.91C98.4092 139.32 97.8399 139.908 97.4292 140.674C97.0186 141.42 96.8132 142.279 96.8132 143.25V143.698C96.8132 144.687 97.0372 145.574 97.4852 146.358C97.9519 147.123 98.5959 147.72 99.4172 148.15C100.239 148.579 101.181 148.794 102.245 148.794C103.123 148.794 103.916 148.644 104.625 148.346C105.353 148.047 105.988 147.599 106.529 147.002L108.013 148.738C107.341 149.522 106.501 150.119 105.493 150.53C104.504 150.94 103.393 151.146 102.161 151.146ZM123.025 149.718V138.49H116.585L116.445 141.346C116.408 142.279 116.342 143.184 116.249 144.062C116.174 144.92 116.044 145.714 115.857 146.442C115.689 147.17 115.437 147.767 115.101 148.234C114.765 148.7 114.317 148.99 113.757 149.102L111.097 148.626C111.676 148.644 112.142 148.458 112.497 148.066C112.852 147.655 113.122 147.095 113.309 146.386C113.514 145.676 113.664 144.874 113.757 143.978C113.85 143.063 113.925 142.12 113.981 141.15L114.205 136.138H125.713V149.718H123.025ZM110.509 154.422V148.626H127.981V154.422H125.461V150.978H113.057V154.422H110.509ZM140.583 150.978V147.842L140.443 147.254V141.906C140.443 140.767 140.107 139.89 139.435 139.274C138.782 138.639 137.792 138.322 136.467 138.322C135.59 138.322 134.731 138.471 133.891 138.77C133.051 139.05 132.342 139.432 131.763 139.918L130.643 137.902C131.408 137.286 132.323 136.819 133.387 136.502C134.47 136.166 135.599 135.998 136.775 135.998C138.81 135.998 140.378 136.492 141.479 137.482C142.58 138.471 143.131 139.983 143.131 142.018V150.978H140.583ZM135.711 151.146C134.61 151.146 133.639 150.959 132.799 150.586C131.978 150.212 131.343 149.699 130.895 149.046C130.447 148.374 130.223 147.618 130.223 146.778C130.223 145.975 130.41 145.247 130.783 144.594C131.175 143.94 131.8 143.418 132.659 143.026C133.536 142.634 134.712 142.438 136.187 142.438H140.891V144.37H136.299C134.955 144.37 134.05 144.594 133.583 145.042C133.116 145.49 132.883 146.031 132.883 146.666C132.883 147.394 133.172 147.982 133.751 148.43C134.33 148.859 135.132 149.074 136.159 149.074C137.167 149.074 138.044 148.85 138.791 148.402C139.556 147.954 140.107 147.3 140.443 146.442L140.975 148.29C140.62 149.167 139.995 149.867 139.099 150.39C138.203 150.894 137.074 151.146 135.711 151.146ZM147.971 150.978V136.138H158.891V138.49H150.015L150.659 137.874V150.978H147.971ZM167.343 151.146C165.849 151.146 164.524 150.819 163.367 150.166C162.209 149.512 161.295 148.616 160.623 147.478C159.951 146.32 159.615 145.014 159.615 143.558C159.615 142.083 159.951 140.776 160.623 139.638C161.295 138.499 162.209 137.612 163.367 136.978C164.524 136.324 165.849 135.998 167.343 135.998C168.817 135.998 170.133 136.324 171.291 136.978C172.467 137.612 173.381 138.499 174.035 139.638C174.707 140.758 175.043 142.064 175.043 143.558C175.043 145.032 174.707 146.339 174.035 147.478C173.381 148.616 172.467 149.512 171.291 150.166C170.133 150.819 168.817 151.146 167.343 151.146ZM167.343 148.794C168.295 148.794 169.144 148.579 169.891 148.15C170.656 147.72 171.253 147.114 171.683 146.33C172.112 145.527 172.327 144.603 172.327 143.558C172.327 142.494 172.112 141.579 171.683 140.814C171.253 140.03 170.656 139.423 169.891 138.994C169.144 138.564 168.295 138.35 167.343 138.35C166.391 138.35 165.541 138.564 164.795 138.994C164.048 139.423 163.451 140.03 163.003 140.814C162.555 141.579 162.331 142.494 162.331 143.558C162.331 144.603 162.555 145.527 163.003 146.33C163.451 147.114 164.048 147.72 164.795 148.15C165.541 148.579 166.391 148.794 167.343 148.794ZM178.924 150.978V136.138H189.844V138.49H180.968L181.612 137.874V150.978H178.924ZM201.696 150.978V147.842L201.556 147.254V141.906C201.556 140.767 201.22 139.89 200.548 139.274C199.895 138.639 198.906 138.322 197.58 138.322C196.703 138.322 195.844 138.471 195.004 138.77C194.164 139.05 193.455 139.432 192.876 139.918L191.756 137.902C192.522 137.286 193.436 136.819 194.5 136.502C195.583 136.166 196.712 135.998 197.888 135.998C199.923 135.998 201.491 136.492 202.592 137.482C203.694 138.471 204.244 139.983 204.244 142.018V150.978H201.696ZM196.824 151.146C195.723 151.146 194.752 150.959 193.912 150.586C193.091 150.212 192.456 149.699 192.008 149.046C191.56 148.374 191.336 147.618 191.336 146.778C191.336 145.975 191.523 145.247 191.896 144.594C192.288 143.94 192.914 143.418 193.772 143.026C194.65 142.634 195.826 142.438 197.3 142.438H202.004V144.37H197.412C196.068 144.37 195.163 144.594 194.696 145.042C194.23 145.49 193.996 146.031 193.996 146.666C193.996 147.394 194.286 147.982 194.864 148.43C195.443 148.859 196.246 149.074 197.272 149.074C198.28 149.074 199.158 148.85 199.904 148.402C200.67 147.954 201.22 147.3 201.556 146.442L202.088 148.29C201.734 149.167 201.108 149.867 200.212 150.39C199.316 150.894 198.187 151.146 196.824 151.146ZM216.604 150.978V136.138H219.292V146.946L228.392 136.138H230.828V150.978H228.14V140.17L219.068 150.978H216.604ZM243.565 150.978V136.138H254.485V138.49H245.609L246.253 137.874V150.978H243.565ZM265.105 151.146C263.873 151.146 262.743 150.866 261.717 150.306C260.709 149.727 259.897 148.878 259.281 147.758C258.683 146.638 258.385 145.238 258.385 143.558C258.385 141.878 258.674 140.478 259.253 139.358C259.85 138.238 260.653 137.398 261.661 136.838C262.687 136.278 263.835 135.998 265.105 135.998C266.561 135.998 267.849 136.315 268.969 136.95C270.089 137.584 270.975 138.471 271.629 139.61C272.282 140.73 272.609 142.046 272.609 143.558C272.609 145.07 272.282 146.395 271.629 147.534C270.975 148.672 270.089 149.559 268.969 150.194C267.849 150.828 266.561 151.146 265.105 151.146ZM257.237 156.41V136.138H259.813V140.142L259.645 143.586L259.925 147.03V156.41H257.237ZM264.881 148.794C265.833 148.794 266.682 148.579 267.429 148.15C268.194 147.72 268.791 147.114 269.221 146.33C269.669 145.527 269.893 144.603 269.893 143.558C269.893 142.494 269.669 141.579 269.221 140.814C268.791 140.03 268.194 139.423 267.429 138.994C266.682 138.564 265.833 138.35 264.881 138.35C263.947 138.35 263.098 138.564 262.333 138.994C261.586 139.423 260.989 140.03 260.541 140.814C260.111 141.579 259.897 142.494 259.897 143.558C259.897 144.603 260.111 145.527 260.541 146.33C260.989 147.114 261.586 147.72 262.333 148.15C263.098 148.579 263.947 148.794 264.881 148.794ZM285.477 150.978V147.842L285.337 147.254V141.906C285.337 140.767 285.001 139.89 284.329 139.274C283.676 138.639 282.687 138.322 281.361 138.322C280.484 138.322 279.625 138.471 278.785 138.77C277.945 139.05 277.236 139.432 276.657 139.918L275.537 137.902C276.303 137.286 277.217 136.819 278.281 136.502C279.364 136.166 280.493 135.998 281.669 135.998C283.704 135.998 285.272 136.492 286.373 137.482C287.475 138.471 288.025 139.983 288.025 142.018V150.978H285.477ZM280.605 151.146C279.504 151.146 278.533 150.959 277.693 150.586C276.872 150.212 276.237 149.699 275.789 149.046C275.341 148.374 275.117 147.618 275.117 146.778C275.117 145.975 275.304 145.247 275.677 144.594C276.069 143.94 276.695 143.418 277.553 143.026C278.431 142.634 279.607 142.438 281.081 142.438H285.785V144.37H281.193C279.849 144.37 278.944 144.594 278.477 145.042C278.011 145.49 277.777 146.031 277.777 146.666C277.777 147.394 278.067 147.982 278.645 148.43C279.224 148.859 280.027 149.074 281.053 149.074C282.061 149.074 282.939 148.85 283.685 148.402C284.451 147.954 285.001 147.3 285.337 146.442L285.869 148.29C285.515 149.167 284.889 149.867 283.993 150.39C283.097 150.894 281.968 151.146 280.605 151.146ZM301.714 151.202C301.695 151.202 301.63 151.202 301.518 151.202C301.424 151.202 301.331 151.202 301.238 151.202C301.144 151.202 301.088 151.202 301.07 151.202C298.027 151.164 295.666 150.492 293.986 149.186C292.306 147.86 291.466 145.975 291.466 143.53C291.466 141.103 292.306 139.246 293.986 137.958C295.684 136.651 298.074 135.988 301.154 135.97C301.191 135.97 301.247 135.97 301.322 135.97C301.415 135.97 301.499 135.97 301.574 135.97C301.667 135.97 301.723 135.97 301.742 135.97C304.859 135.97 307.276 136.623 308.994 137.93C310.73 139.236 311.598 141.103 311.598 143.53C311.598 145.994 310.73 147.888 308.994 149.214C307.258 150.539 304.831 151.202 301.714 151.202ZM301.658 148.85C303.282 148.85 304.626 148.644 305.69 148.234C306.772 147.823 307.584 147.226 308.126 146.442C308.667 145.658 308.938 144.687 308.938 143.53C308.938 142.391 308.667 141.439 308.126 140.674C307.584 139.908 306.772 139.33 305.69 138.938C304.626 138.546 303.282 138.35 301.658 138.35C301.62 138.35 301.546 138.35 301.434 138.35C301.322 138.35 301.256 138.35 301.238 138.35C299.651 138.35 298.326 138.555 297.262 138.966C296.216 139.358 295.432 139.936 294.91 140.702C294.387 141.467 294.126 142.41 294.126 143.53C294.126 144.668 294.387 145.63 294.91 146.414C295.451 147.198 296.244 147.795 297.29 148.206C298.354 148.616 299.67 148.831 301.238 148.85C301.275 148.85 301.34 148.85 301.434 148.85C301.546 148.85 301.62 148.85 301.658 148.85ZM300.202 156.41V130.202H302.834V156.41H300.202ZM315.397 150.978V136.138H318.085V146.946L327.185 136.138H329.621V150.978H326.933V140.17L317.861 150.978H315.397ZM345.59 150.978L339.85 143.754L342.062 142.41L348.754 150.978H345.59ZM334.838 150.978V136.138H337.526V150.978H334.838ZM336.714 144.706V142.41H341.614V144.706H336.714ZM342.286 143.866L339.794 143.53L345.478 136.138H348.362L342.286 143.866ZM363.432 151.174C362.312 151.174 361.211 151.034 360.128 150.754C359.064 150.455 358.112 150.035 357.272 149.494L358.084 147.45C358.794 147.898 359.606 148.252 360.52 148.514C361.435 148.756 362.359 148.878 363.292 148.878C364.151 148.878 364.888 148.775 365.504 148.57C366.139 148.364 366.624 148.084 366.96 147.73C367.296 147.356 367.464 146.927 367.464 146.442C367.464 145.751 367.156 145.219 366.54 144.846C365.924 144.472 365.066 144.286 363.964 144.286H361.276V142.354H363.796C364.45 142.354 365.019 142.279 365.504 142.13C365.99 141.98 366.363 141.756 366.624 141.458C366.904 141.14 367.044 140.776 367.044 140.366C367.044 139.918 366.886 139.535 366.568 139.218C366.251 138.9 365.803 138.658 365.224 138.49C364.664 138.322 364.002 138.238 363.236 138.238C362.49 138.256 361.724 138.359 360.94 138.546C360.175 138.732 359.391 139.022 358.588 139.414L357.86 137.314C358.756 136.884 359.634 136.558 360.492 136.334C361.37 136.091 362.238 135.96 363.096 135.942C364.384 135.904 365.532 136.054 366.54 136.39C367.548 136.707 368.342 137.174 368.92 137.79C369.518 138.406 369.816 139.134 369.816 139.974C369.816 140.683 369.592 141.318 369.144 141.878C368.696 142.419 368.099 142.848 367.352 143.166C366.606 143.483 365.747 143.642 364.776 143.642L364.888 142.998C366.55 142.998 367.856 143.324 368.808 143.978C369.76 144.631 370.236 145.518 370.236 146.638C370.236 147.534 369.938 148.327 369.34 149.018C368.743 149.69 367.931 150.222 366.904 150.614C365.896 150.987 364.739 151.174 363.432 151.174ZM383.423 150.978V147.842L383.283 147.254V141.906C383.283 140.767 382.947 139.89 382.275 139.274C381.621 138.639 380.632 138.322 379.307 138.322C378.429 138.322 377.571 138.471 376.731 138.77C375.891 139.05 375.181 139.432 374.603 139.918L373.483 137.902C374.248 137.286 375.163 136.819 376.227 136.502C377.309 136.166 378.439 135.998 379.615 135.998C381.649 135.998 383.217 136.492 384.319 137.482C385.42 138.471 385.971 139.983 385.971 142.018V150.978H383.423ZM378.551 151.146C377.449 151.146 376.479 150.959 375.639 150.586C374.817 150.212 374.183 149.699 373.735 149.046C373.287 148.374 373.063 147.618 373.063 146.778C373.063 145.975 373.249 145.247 373.623 144.594C374.015 143.94 374.64 143.418 375.499 143.026C376.376 142.634 377.552 142.438 379.027 142.438H383.731V144.37H379.139C377.795 144.37 376.889 144.594 376.423 145.042C375.956 145.49 375.723 146.031 375.723 146.666C375.723 147.394 376.012 147.982 376.591 148.43C377.169 148.859 377.972 149.074 378.999 149.074C380.007 149.074 380.884 148.85 381.631 148.402C382.396 147.954 382.947 147.3 383.283 146.442L383.815 148.29C383.46 149.167 382.835 149.867 381.939 150.39C381.043 150.894 379.913 151.146 378.551 151.146ZM390.811 150.978V136.138H393.499V142.438H401.955V136.138H404.643V150.978H401.955V144.762H393.499V150.978H390.811ZM419.362 150.978V145.77L419.782 146.274H415.05C413.071 146.274 411.522 145.854 410.402 145.014C409.3 144.174 408.75 142.951 408.75 141.346C408.75 139.628 409.338 138.331 410.514 137.454C411.708 136.576 413.295 136.138 415.274 136.138H421.77V150.978H419.362ZM408.61 150.978L412.642 145.294H415.414L411.494 150.978H408.61ZM419.362 144.93V137.734L419.782 138.49H415.358C414.126 138.49 413.174 138.723 412.502 139.19C411.83 139.638 411.494 140.384 411.494 141.43C411.494 143.371 412.744 144.342 415.246 144.342H419.782L419.362 144.93ZM429.954 150.978V137.79L430.626 138.49H424.522V136.138H438.074V138.49H431.998L432.642 137.79V150.978H429.954ZM440.823 150.978V136.138H443.511V146.946L452.611 136.138H455.047V150.978H452.359V140.17L443.287 150.978H440.823ZM460.264 150.978V136.138H462.952V146.946L472.052 136.138H474.488V150.978H471.8V140.17L462.728 150.978H460.264ZM467.208 134.206C465.845 134.206 464.772 133.879 463.988 133.226C463.223 132.554 462.831 131.592 462.812 130.342H464.632C464.651 131.051 464.884 131.611 465.332 132.022C465.799 132.432 466.415 132.638 467.18 132.638C467.945 132.638 468.561 132.432 469.028 132.022C469.495 131.611 469.737 131.051 469.756 130.342H471.632C471.613 131.592 471.212 132.554 470.428 133.226C469.644 133.879 468.571 134.206 467.208 134.206ZM479.79 144.79L479.286 131.378H482.45L481.918 144.79H479.79ZM480.882 151.146C480.359 151.146 479.92 150.968 479.566 150.614C479.211 150.259 479.034 149.839 479.034 149.354C479.034 148.831 479.211 148.402 479.566 148.066C479.92 147.73 480.359 147.562 480.882 147.562C481.404 147.562 481.834 147.73 482.17 148.066C482.506 148.402 482.674 148.831 482.674 149.354C482.674 149.839 482.506 150.259 482.17 150.614C481.834 150.968 481.404 151.146 480.882 151.146ZM77.052 218.978V199.378H85.48C87.608 199.378 89.2787 199.807 90.492 200.666C91.7053 201.524 92.312 202.775 92.312 204.418C92.312 206.023 91.7333 207.255 90.576 208.114C89.4187 208.954 87.8973 209.374 86.012 209.374L86.516 208.534C88.7 208.534 90.3707 208.972 91.528 209.85C92.704 210.708 93.292 211.968 93.292 213.63C93.292 215.31 92.676 216.626 91.444 217.578C90.2307 218.511 88.42 218.978 86.012 218.978H77.052ZM79.824 216.766H85.956C87.4493 216.766 88.5693 216.495 89.316 215.954C90.0813 215.394 90.464 214.544 90.464 213.406C90.464 212.267 90.0813 211.436 89.316 210.914C88.5693 210.391 87.4493 210.13 85.956 210.13H79.824V216.766ZM79.824 208.002H85.284C86.6467 208.002 87.6827 207.731 88.392 207.19C89.12 206.648 89.484 205.855 89.484 204.81C89.484 203.746 89.12 202.943 88.392 202.402C87.6827 201.86 86.6467 201.59 85.284 201.59H79.824V208.002ZM103.99 219.146C102.478 219.146 101.125 218.819 99.93 218.166C98.754 217.512 97.83 216.616 97.158 215.478C96.486 214.339 96.15 213.032 96.15 211.558C96.15 210.083 96.486 208.776 97.158 207.638C97.83 206.499 98.754 205.612 99.93 204.978C101.125 204.324 102.478 203.998 103.99 203.998C105.334 203.998 106.529 204.268 107.574 204.81C108.638 205.332 109.459 206.116 110.038 207.162L107.994 208.478C107.509 207.75 106.911 207.218 106.202 206.882C105.511 206.527 104.765 206.35 103.962 206.35C102.991 206.35 102.123 206.564 101.358 206.994C100.593 207.423 99.986 208.03 99.538 208.814C99.09 209.579 98.866 210.494 98.866 211.558C98.866 212.622 99.09 213.546 99.538 214.33C99.986 215.114 100.593 215.72 101.358 216.15C102.123 216.579 102.991 216.794 103.962 216.794C104.765 216.794 105.511 216.626 106.202 216.29C106.911 215.935 107.509 215.394 107.994 214.666L110.038 215.954C109.459 216.98 108.638 217.774 107.574 218.334C106.529 218.875 105.334 219.146 103.99 219.146ZM119.907 219.146C118.321 219.146 116.921 218.819 115.707 218.166C114.513 217.512 113.579 216.616 112.907 215.478C112.254 214.339 111.927 213.032 111.927 211.558C111.927 210.083 112.245 208.776 112.879 207.638C113.533 206.499 114.419 205.612 115.539 204.978C116.678 204.324 117.957 203.998 119.375 203.998C120.813 203.998 122.082 204.315 123.183 204.95C124.285 205.584 125.143 206.48 125.759 207.638C126.394 208.776 126.711 210.111 126.711 211.642C126.711 211.754 126.702 211.884 126.683 212.034C126.683 212.183 126.674 212.323 126.655 212.454H114.027V210.522H125.255L124.163 211.194C124.182 210.242 123.986 209.392 123.575 208.646C123.165 207.899 122.595 207.32 121.867 206.91C121.158 206.48 120.327 206.266 119.375 206.266C118.442 206.266 117.611 206.48 116.883 206.91C116.155 207.32 115.586 207.908 115.175 208.674C114.765 209.42 114.559 210.279 114.559 211.25V211.698C114.559 212.687 114.783 213.574 115.231 214.358C115.698 215.123 116.342 215.72 117.163 216.15C117.985 216.579 118.927 216.794 119.991 216.794C120.869 216.794 121.662 216.644 122.371 216.346C123.099 216.047 123.734 215.599 124.275 215.002L125.759 216.738C125.087 217.522 124.247 218.119 123.239 218.53C122.25 218.94 121.139 219.146 119.907 219.146ZM121.951 201.506C121.559 201.506 121.223 201.375 120.943 201.114C120.663 200.834 120.523 200.488 120.523 200.078C120.523 199.648 120.663 199.303 120.943 199.042C121.223 198.762 121.559 198.622 121.951 198.622C122.343 198.622 122.679 198.762 122.959 199.042C123.239 199.303 123.379 199.648 123.379 200.078C123.379 200.488 123.239 200.834 122.959 201.114C122.679 201.375 122.343 201.506 121.951 201.506ZM116.743 201.506C116.351 201.506 116.015 201.375 115.735 201.114C115.455 200.834 115.315 200.488 115.315 200.078C115.315 199.648 115.455 199.303 115.735 199.042C116.015 198.762 116.351 198.622 116.743 198.622C117.135 198.622 117.471 198.762 117.751 199.042C118.031 199.303 118.171 199.648 118.171 200.078C118.171 200.488 118.031 200.834 117.751 201.114C117.471 201.375 117.135 201.506 116.743 201.506ZM148.537 217.718V206.49H142.097L141.957 209.346C141.92 210.279 141.854 211.184 141.761 212.062C141.686 212.92 141.556 213.714 141.369 214.442C141.201 215.17 140.949 215.767 140.613 216.234C140.277 216.7 139.829 216.99 139.269 217.102L136.609 216.626C137.188 216.644 137.654 216.458 138.009 216.066C138.364 215.655 138.634 215.095 138.821 214.386C139.026 213.676 139.176 212.874 139.269 211.978C139.362 211.063 139.437 210.12 139.493 209.15L139.717 204.138H151.225V217.718H148.537ZM136.021 222.422V216.626H153.493V222.422H150.973V218.978H138.569V222.422H136.021ZM154.531 218.95L154.699 216.682C154.829 216.7 154.951 216.719 155.063 216.738C155.175 216.756 155.277 216.766 155.371 216.766C155.968 216.766 156.435 216.56 156.771 216.15C157.125 215.739 157.387 215.198 157.555 214.526C157.723 213.835 157.844 213.06 157.919 212.202C157.993 211.343 158.049 210.484 158.087 209.626L158.339 204.138H169.735V218.978H167.047V205.706L167.691 206.49H160.075L160.691 205.678L160.495 209.794C160.439 211.1 160.336 212.323 160.187 213.462C160.037 214.6 159.804 215.599 159.487 216.458C159.188 217.316 158.768 217.988 158.227 218.474C157.704 218.959 157.023 219.202 156.183 219.202C155.94 219.202 155.679 219.174 155.399 219.118C155.137 219.08 154.848 219.024 154.531 218.95ZM184.424 218.978V213.77L184.844 214.274H180.112C178.133 214.274 176.584 213.854 175.464 213.014C174.363 212.174 173.812 210.951 173.812 209.346C173.812 207.628 174.4 206.331 175.576 205.454C176.771 204.576 178.357 204.138 180.336 204.138H186.832V218.978H184.424ZM173.672 218.978L177.704 213.294H180.476L176.556 218.978H173.672ZM184.424 212.93V205.734L184.844 206.49H180.42C179.188 206.49 178.236 206.723 177.564 207.19C176.892 207.638 176.556 208.384 176.556 209.43C176.556 211.371 177.807 212.342 180.308 212.342H184.844L184.424 212.93ZM202.536 218.978V205.79L203.208 206.49H197.104V204.138H210.656V206.49H204.58L205.224 205.79V218.978H202.536ZM219.105 219.146C217.611 219.146 216.286 218.819 215.129 218.166C213.971 217.512 213.057 216.616 212.385 215.478C211.713 214.32 211.377 213.014 211.377 211.558C211.377 210.083 211.713 208.776 212.385 207.638C213.057 206.499 213.971 205.612 215.129 204.978C216.286 204.324 217.611 203.998 219.105 203.998C220.579 203.998 221.895 204.324 223.053 204.978C224.229 205.612 225.143 206.499 225.797 207.638C226.469 208.758 226.805 210.064 226.805 211.558C226.805 213.032 226.469 214.339 225.797 215.478C225.143 216.616 224.229 217.512 223.053 218.166C221.895 218.819 220.579 219.146 219.105 219.146ZM219.105 216.794C220.057 216.794 220.906 216.579 221.653 216.15C222.418 215.72 223.015 215.114 223.445 214.33C223.874 213.527 224.089 212.603 224.089 211.558C224.089 210.494 223.874 209.579 223.445 208.814C223.015 208.03 222.418 207.423 221.653 206.994C220.906 206.564 220.057 206.35 219.105 206.35C218.153 206.35 217.303 206.564 216.557 206.994C215.81 207.423 215.213 208.03 214.765 208.814C214.317 209.579 214.093 210.494 214.093 211.558C214.093 212.603 214.317 213.527 214.765 214.33C215.213 215.114 215.81 215.72 216.557 216.15C217.303 216.579 218.153 216.794 219.105 216.794ZM230.686 218.978V204.138H241.606V206.49H232.73L233.374 205.874V218.978H230.686ZM250.058 219.146C248.564 219.146 247.239 218.819 246.082 218.166C244.924 217.512 244.01 216.616 243.338 215.478C242.666 214.32 242.33 213.014 242.33 211.558C242.33 210.083 242.666 208.776 243.338 207.638C244.01 206.499 244.924 205.612 246.082 204.978C247.239 204.324 248.564 203.998 250.058 203.998C251.532 203.998 252.848 204.324 254.006 204.978C255.182 205.612 256.096 206.499 256.75 207.638C257.422 208.758 257.758 210.064 257.758 211.558C257.758 213.032 257.422 214.339 256.75 215.478C256.096 216.616 255.182 217.512 254.006 218.166C252.848 218.819 251.532 219.146 250.058 219.146ZM250.058 216.794C251.01 216.794 251.859 216.579 252.606 216.15C253.371 215.72 253.968 215.114 254.398 214.33C254.827 213.527 255.042 212.603 255.042 211.558C255.042 210.494 254.827 209.579 254.398 208.814C253.968 208.03 253.371 207.423 252.606 206.994C251.859 206.564 251.01 206.35 250.058 206.35C249.106 206.35 248.256 206.564 247.51 206.994C246.763 207.423 246.166 208.03 245.718 208.814C245.27 209.579 245.046 210.494 245.046 211.558C245.046 212.603 245.27 213.527 245.718 214.33C246.166 215.114 246.763 215.72 247.51 216.15C248.256 216.579 249.106 216.794 250.058 216.794ZM278.511 212.902C277.727 213.275 276.915 213.574 276.075 213.798C275.253 214.003 274.404 214.106 273.527 214.106C271.735 214.106 270.316 213.686 269.271 212.846C268.244 212.006 267.731 210.708 267.731 208.954V204.138H270.419V208.786C270.419 209.85 270.745 210.634 271.399 211.138C272.071 211.642 272.967 211.894 274.087 211.894C274.796 211.894 275.524 211.8 276.271 211.614C277.036 211.427 277.783 211.166 278.511 210.83V212.902ZM278.315 218.978V204.138H281.003V218.978H278.315ZM289.161 218.978V205.79L289.833 206.49H283.729V204.138H297.281V206.49H291.205L291.849 205.79V218.978H289.161ZM305.73 219.146C304.236 219.146 302.911 218.819 301.754 218.166C300.596 217.512 299.682 216.616 299.01 215.478C298.338 214.32 298.002 213.014 298.002 211.558C298.002 210.083 298.338 208.776 299.01 207.638C299.682 206.499 300.596 205.612 301.754 204.978C302.911 204.324 304.236 203.998 305.73 203.998C307.204 203.998 308.52 204.324 309.678 204.978C310.854 205.612 311.768 206.499 312.422 207.638C313.094 208.758 313.43 210.064 313.43 211.558C313.43 213.032 313.094 214.339 312.422 215.478C311.768 216.616 310.854 217.512 309.678 218.166C308.52 218.819 307.204 219.146 305.73 219.146ZM305.73 216.794C306.682 216.794 307.531 216.579 308.278 216.15C309.043 215.72 309.64 215.114 310.07 214.33C310.499 213.527 310.714 212.603 310.714 211.558C310.714 210.494 310.499 209.579 310.07 208.814C309.64 208.03 309.043 207.423 308.278 206.994C307.531 206.564 306.682 206.35 305.73 206.35C304.778 206.35 303.928 206.564 303.182 206.994C302.435 207.423 301.838 208.03 301.39 208.814C300.942 209.579 300.718 210.494 300.718 211.558C300.718 212.603 300.942 213.527 301.39 214.33C301.838 215.114 302.435 215.72 303.182 216.15C303.928 216.579 304.778 216.794 305.73 216.794ZM324.171 219.202C322.939 219.202 321.847 219.006 320.895 218.614C319.962 218.222 319.159 217.643 318.487 216.878C317.815 216.094 317.302 215.114 316.947 213.938C316.611 212.743 316.443 211.343 316.443 209.738C316.443 208.468 316.555 207.33 316.779 206.322C317.003 205.314 317.32 204.418 317.731 203.634C318.16 202.85 318.683 202.168 319.299 201.59C319.934 201.011 320.643 200.535 321.427 200.162C322.23 199.77 323.107 199.471 324.059 199.266L330.835 197.754L331.227 200.246L324.983 201.59C324.61 201.664 324.162 201.776 323.639 201.926C323.116 202.075 322.584 202.308 322.043 202.626C321.502 202.924 320.998 203.344 320.531 203.886C320.064 204.427 319.691 205.136 319.411 206.014C319.131 206.872 318.991 207.936 318.991 209.206C318.991 209.56 319 209.831 319.019 210.018C319.038 210.204 319.056 210.391 319.075 210.578C319.112 210.764 319.14 211.044 319.159 211.418L318.039 210.27C318.338 209.243 318.814 208.347 319.467 207.582C320.12 206.816 320.904 206.228 321.819 205.818C322.752 205.388 323.77 205.174 324.871 205.174C326.252 205.174 327.475 205.472 328.539 206.07C329.622 206.667 330.471 207.488 331.087 208.534C331.703 209.579 332.011 210.774 332.011 212.118C332.011 213.48 331.684 214.703 331.031 215.786C330.396 216.85 329.491 217.69 328.315 218.306C327.139 218.903 325.758 219.202 324.171 219.202ZM324.423 216.962C325.375 216.962 326.215 216.756 326.943 216.346C327.671 215.916 328.24 215.347 328.651 214.638C329.062 213.91 329.267 213.098 329.267 212.202C329.267 211.306 329.062 210.512 328.651 209.822C328.24 209.131 327.671 208.59 326.943 208.198C326.215 207.787 325.356 207.582 324.367 207.582C323.434 207.582 322.594 207.778 321.847 208.17C321.1 208.543 320.522 209.075 320.111 209.766C319.7 210.438 319.495 211.222 319.495 212.118C319.495 213.014 319.7 213.835 320.111 214.582C320.54 215.31 321.119 215.888 321.847 216.318C322.594 216.747 323.452 216.962 324.423 216.962ZM350.522 218.978V204.138H353.21V218.978H350.522ZM342.542 209.178C344.427 209.196 345.855 209.626 346.826 210.466C347.815 211.306 348.31 212.491 348.31 214.022C348.31 215.627 347.769 216.868 346.686 217.746C345.622 218.604 344.091 219.024 342.094 219.006L335.85 218.978V204.138H338.538V209.15L342.542 209.178ZM341.898 216.962C343.093 216.98 344.007 216.738 344.642 216.234C345.277 215.73 345.594 214.983 345.594 213.994C345.594 213.023 345.277 212.314 344.642 211.866C344.026 211.418 343.111 211.184 341.898 211.166L338.538 211.11V216.934L341.898 216.962ZM363.492 218.95L363.66 216.682C363.79 216.7 363.912 216.719 364.024 216.738C364.136 216.756 364.238 216.766 364.332 216.766C364.929 216.766 365.396 216.56 365.732 216.15C366.086 215.739 366.348 215.198 366.516 214.526C366.684 213.835 366.805 213.06 366.88 212.202C366.954 211.343 367.01 210.484 367.048 209.626L367.3 204.138H378.696V218.978H376.008V205.706L376.652 206.49H369.036L369.652 205.678L369.456 209.794C369.4 211.1 369.297 212.323 369.148 213.462C368.998 214.6 368.765 215.599 368.448 216.458C368.149 217.316 367.729 217.988 367.188 218.474C366.665 218.959 365.984 219.202 365.144 219.202C364.901 219.202 364.64 219.174 364.36 219.118C364.098 219.08 363.809 219.024 363.492 218.95ZM390.501 219.146C388.914 219.146 387.514 218.819 386.301 218.166C385.106 217.512 384.173 216.616 383.501 215.478C382.848 214.339 382.521 213.032 382.521 211.558C382.521 210.083 382.838 208.776 383.473 207.638C384.126 206.499 385.013 205.612 386.133 204.978C387.272 204.324 388.55 203.998 389.969 203.998C391.406 203.998 392.676 204.315 393.777 204.95C394.878 205.584 395.737 206.48 396.353 207.638C396.988 208.776 397.305 210.111 397.305 211.642C397.305 211.754 397.296 211.884 397.277 212.034C397.277 212.183 397.268 212.323 397.249 212.454H384.621V210.522H395.849L394.757 211.194C394.776 210.242 394.58 209.392 394.169 208.646C393.758 207.899 393.189 207.32 392.461 206.91C391.752 206.48 390.921 206.266 389.969 206.266C389.036 206.266 388.205 206.48 387.477 206.91C386.749 207.32 386.18 207.908 385.769 208.674C385.358 209.42 385.153 210.279 385.153 211.25V211.698C385.153 212.687 385.377 213.574 385.825 214.358C386.292 215.123 386.936 215.72 387.757 216.15C388.578 216.579 389.521 216.794 390.585 216.794C391.462 216.794 392.256 216.644 392.965 216.346C393.693 216.047 394.328 215.599 394.869 215.002L396.353 216.738C395.681 217.522 394.841 218.119 393.833 218.53C392.844 218.94 391.733 219.146 390.501 219.146ZM401.475 218.978V204.138H412.395V206.49H403.519L404.163 205.874V218.978H401.475ZM425.899 218.978L420.159 211.754L422.371 210.41L429.063 218.978H425.899ZM415.147 218.978V204.138H417.835V218.978H415.147ZM417.023 212.706V210.41H421.923V212.706H417.023ZM422.595 211.866L420.103 211.53L425.787 204.138H428.671L422.595 211.866ZM437.745 219.146C436.252 219.146 434.926 218.819 433.769 218.166C432.612 217.512 431.697 216.616 431.025 215.478C430.353 214.32 430.017 213.014 430.017 211.558C430.017 210.083 430.353 208.776 431.025 207.638C431.697 206.499 432.612 205.612 433.769 204.978C434.926 204.324 436.252 203.998 437.745 203.998C439.22 203.998 440.536 204.324 441.693 204.978C442.869 205.612 443.784 206.499 444.437 207.638C445.109 208.758 445.445 210.064 445.445 211.558C445.445 213.032 445.109 214.339 444.437 215.478C443.784 216.616 442.869 217.512 441.693 218.166C440.536 218.819 439.22 219.146 437.745 219.146ZM437.745 216.794C438.697 216.794 439.546 216.579 440.293 216.15C441.058 215.72 441.656 215.114 442.085 214.33C442.514 213.527 442.729 212.603 442.729 211.558C442.729 210.494 442.514 209.579 442.085 208.814C441.656 208.03 441.058 207.423 440.293 206.994C439.546 206.564 438.697 206.35 437.745 206.35C436.793 206.35 435.944 206.564 435.197 206.994C434.45 207.423 433.853 208.03 433.405 208.814C432.957 209.579 432.733 210.494 432.733 211.558C432.733 212.603 432.957 213.527 433.405 214.33C433.853 215.114 434.45 215.72 435.197 216.15C435.944 216.579 436.793 216.794 437.745 216.794ZM84.472 253.146C83.24 253.146 82.1107 252.866 81.084 252.306C80.076 251.727 79.264 250.878 78.648 249.758C78.0507 248.638 77.752 247.238 77.752 245.558C77.752 243.878 78.0413 242.478 78.62 241.358C79.2173 240.238 80.02 239.398 81.028 238.838C82.0547 238.278 83.2027 237.998 84.472 237.998C85.928 237.998 87.216 238.315 88.336 238.95C89.456 239.584 90.3427 240.471 90.996 241.61C91.6493 242.73 91.976 244.046 91.976 245.558C91.976 247.07 91.6493 248.395 90.996 249.534C90.3427 250.672 89.456 251.559 88.336 252.194C87.216 252.828 85.928 253.146 84.472 253.146ZM76.604 258.41V238.138H79.18V242.142L79.012 245.586L79.292 249.03V258.41H76.604ZM84.248 250.794C85.2 250.794 86.0493 250.579 86.796 250.15C87.5613 249.72 88.1587 249.114 88.588 248.33C89.036 247.527 89.26 246.603 89.26 245.558C89.26 244.494 89.036 243.579 88.588 242.814C88.1587 242.03 87.5613 241.423 86.796 240.994C86.0493 240.564 85.2 240.35 84.248 240.35C83.3147 240.35 82.4653 240.564 81.7 240.994C80.9533 241.423 80.356 242.03 79.908 242.814C79.4787 243.579 79.264 244.494 79.264 245.558C79.264 246.603 79.4787 247.527 79.908 248.33C80.356 249.114 80.9533 249.72 81.7 250.15C82.4653 250.579 83.3147 250.794 84.248 250.794ZM104.845 252.978V249.842L104.705 249.254V243.906C104.705 242.767 104.369 241.89 103.697 241.274C103.043 240.639 102.054 240.322 100.729 240.322C99.8513 240.322 98.9926 240.471 98.1526 240.77C97.3126 241.05 96.6033 241.432 96.0246 241.918L94.9046 239.902C95.67 239.286 96.5846 238.819 97.6486 238.502C98.7313 238.166 99.8606 237.998 101.037 237.998C103.071 237.998 104.639 238.492 105.741 239.482C106.842 240.471 107.393 241.983 107.393 244.018V252.978H104.845ZM99.9726 253.146C98.8713 253.146 97.9006 252.959 97.0606 252.586C96.2393 252.212 95.6046 251.699 95.1566 251.046C94.7086 250.374 94.4846 249.618 94.4846 248.778C94.4846 247.975 94.6713 247.247 95.0446 246.594C95.4366 245.94 96.062 245.418 96.9206 245.026C97.798 244.634 98.974 244.438 100.449 244.438H105.153V246.37H100.561C99.2166 246.37 98.3113 246.594 97.8446 247.042C97.378 247.49 97.1446 248.031 97.1446 248.666C97.1446 249.394 97.434 249.982 98.0126 250.43C98.5913 250.859 99.394 251.074 100.421 251.074C101.429 251.074 102.306 250.85 103.053 250.402C103.818 249.954 104.369 249.3 104.705 248.442L105.237 250.29C104.882 251.167 104.257 251.867 103.361 252.39C102.465 252.894 101.335 253.146 99.9726 253.146ZM118.701 253.146C117.189 253.146 115.836 252.819 114.641 252.166C113.465 251.512 112.541 250.616 111.869 249.478C111.197 248.339 110.861 247.032 110.861 245.558C110.861 244.083 111.197 242.776 111.869 241.638C112.541 240.499 113.465 239.612 114.641 238.978C115.836 238.324 117.189 237.998 118.701 237.998C120.045 237.998 121.24 238.268 122.285 238.81C123.349 239.332 124.17 240.116 124.749 241.162L122.705 242.478C122.22 241.75 121.622 241.218 120.913 240.882C120.222 240.527 119.476 240.35 118.673 240.35C117.702 240.35 116.834 240.564 116.069 240.994C115.304 241.423 114.697 242.03 114.249 242.814C113.801 243.579 113.577 244.494 113.577 245.558C113.577 246.622 113.801 247.546 114.249 248.33C114.697 249.114 115.304 249.72 116.069 250.15C116.834 250.579 117.702 250.794 118.673 250.794C119.476 250.794 120.222 250.626 120.913 250.29C121.622 249.935 122.22 249.394 122.705 248.666L124.749 249.954C124.17 250.98 123.349 251.774 122.285 252.334C121.24 252.875 120.045 253.146 118.701 253.146ZM138.981 252.978L133.241 245.754L135.453 244.41L142.145 252.978H138.981ZM128.229 252.978V238.138H130.917V252.978H128.229ZM130.105 246.706V244.41H135.005V246.706H130.105ZM135.677 245.866L133.185 245.53L138.869 238.138H141.753L135.677 245.866ZM152.831 253.146C151.599 253.146 150.47 252.866 149.443 252.306C148.435 251.727 147.623 250.878 147.007 249.758C146.41 248.638 146.111 247.238 146.111 245.558C146.111 243.878 146.401 242.478 146.979 241.358C147.577 240.238 148.379 239.398 149.387 238.838C150.414 238.278 151.562 237.998 152.831 237.998C154.287 237.998 155.575 238.315 156.695 238.95C157.815 239.584 158.702 240.471 159.355 241.61C160.009 242.73 160.335 244.046 160.335 245.558C160.335 247.07 160.009 248.395 159.355 249.534C158.702 250.672 157.815 251.559 156.695 252.194C155.575 252.828 154.287 253.146 152.831 253.146ZM144.963 258.41V238.138H147.539V242.142L147.371 245.586L147.651 249.03V258.41H144.963ZM152.607 250.794C153.559 250.794 154.409 250.579 155.155 250.15C155.921 249.72 156.518 249.114 156.947 248.33C157.395 247.527 157.619 246.603 157.619 245.558C157.619 244.494 157.395 243.579 156.947 242.814C156.518 242.03 155.921 241.423 155.155 240.994C154.409 240.564 153.559 240.35 152.607 240.35C151.674 240.35 150.825 240.564 150.059 240.994C149.313 241.423 148.715 242.03 148.267 242.814C147.838 243.579 147.623 244.494 147.623 245.558C147.623 246.603 147.838 247.527 148.267 248.33C148.715 249.114 149.313 249.72 150.059 250.15C150.825 250.579 151.674 250.794 152.607 250.794ZM178.913 252.978V238.138H181.601V252.978H178.913ZM170.933 243.178C172.818 243.196 174.246 243.626 175.217 244.466C176.206 245.306 176.701 246.491 176.701 248.022C176.701 249.627 176.159 250.868 175.077 251.746C174.013 252.604 172.482 253.024 170.485 253.006L164.241 252.978V238.138H166.929V243.15L170.933 243.178ZM170.289 250.962C171.483 250.98 172.398 250.738 173.033 250.234C173.667 249.73 173.985 248.983 173.985 247.994C173.985 247.023 173.667 246.314 173.033 245.866C172.417 245.418 171.502 245.184 170.289 245.166L166.929 245.11V250.934L170.289 250.962ZM189.767 252.978V239.79L190.439 240.49H184.335V238.138H197.887V240.49H191.811L192.455 239.79V252.978H189.767ZM207.495 243.178C209.381 243.196 210.818 243.626 211.807 244.466C212.797 245.306 213.291 246.491 213.291 248.022C213.291 249.627 212.75 250.868 211.667 251.746C210.585 252.604 209.054 253.024 207.075 253.006L200.635 252.978V238.138H203.323V243.15L207.495 243.178ZM206.851 250.962C208.065 250.98 208.979 250.738 209.595 250.234C210.23 249.73 210.547 248.983 210.547 247.994C210.547 247.023 210.239 246.314 209.623 245.866C209.007 245.418 208.083 245.184 206.851 245.166L203.323 245.11V250.934L206.851 250.962ZM227.2 252.978V239.79L227.872 240.49H221.768V238.138H235.32V240.49H229.244L229.888 239.79V252.978H227.2ZM247.169 252.978V249.842L247.029 249.254V243.906C247.029 242.767 246.693 241.89 246.021 241.274C245.368 240.639 244.378 240.322 243.053 240.322C242.176 240.322 241.317 240.471 240.477 240.77C239.637 241.05 238.928 241.432 238.349 241.918L237.229 239.902C237.994 239.286 238.909 238.819 239.973 238.502C241.056 238.166 242.185 237.998 243.361 237.998C245.396 237.998 246.964 238.492 248.065 239.482C249.166 240.471 249.717 241.983 249.717 244.018V252.978H247.169ZM242.297 253.146C241.196 253.146 240.225 252.959 239.385 252.586C238.564 252.212 237.929 251.699 237.481 251.046C237.033 250.374 236.809 249.618 236.809 248.778C236.809 247.975 236.996 247.247 237.369 246.594C237.761 245.94 238.386 245.418 239.245 245.026C240.122 244.634 241.298 244.438 242.773 244.438H247.477V246.37H242.885C241.541 246.37 240.636 246.594 240.169 247.042C239.702 247.49 239.469 248.031 239.469 248.666C239.469 249.394 239.758 249.982 240.337 250.43C240.916 250.859 241.718 251.074 242.745 251.074C243.753 251.074 244.63 250.85 245.377 250.402C246.142 249.954 246.693 249.3 247.029 248.442L247.561 250.29C247.206 251.167 246.581 251.867 245.685 252.39C244.789 252.894 243.66 253.146 242.297 253.146ZM252.093 252.95L252.261 250.682C252.392 250.7 252.513 250.719 252.625 250.738C252.737 250.756 252.84 250.766 252.933 250.766C253.53 250.766 253.997 250.56 254.333 250.15C254.688 249.739 254.949 249.198 255.117 248.526C255.285 247.835 255.406 247.06 255.481 246.202C255.556 245.343 255.612 244.484 255.649 243.626L255.901 238.138H267.297V252.978H264.609V239.706L265.253 240.49H257.637L258.253 239.678L258.057 243.794C258.001 245.1 257.898 246.323 257.749 247.462C257.6 248.6 257.366 249.599 257.049 250.458C256.75 251.316 256.33 251.988 255.789 252.474C255.266 252.959 254.585 253.202 253.745 253.202C253.502 253.202 253.241 253.174 252.961 253.118C252.7 253.08 252.41 253.024 252.093 252.95ZM281.595 252.978V249.842L281.455 249.254V243.906C281.455 242.767 281.119 241.89 280.447 241.274C279.793 240.639 278.804 240.322 277.479 240.322C276.601 240.322 275.743 240.471 274.903 240.77C274.063 241.05 273.353 241.432 272.775 241.918L271.655 239.902C272.42 239.286 273.335 238.819 274.399 238.502C275.481 238.166 276.611 237.998 277.787 237.998C279.821 237.998 281.389 238.492 282.491 239.482C283.592 240.471 284.143 241.983 284.143 244.018V252.978H281.595ZM276.723 253.146C275.621 253.146 274.651 252.959 273.811 252.586C272.989 252.212 272.355 251.699 271.907 251.046C271.459 250.374 271.235 249.618 271.235 248.778C271.235 247.975 271.421 247.247 271.795 246.594C272.187 245.94 272.812 245.418 273.671 245.026C274.548 244.634 275.724 244.438 277.199 244.438H281.903V246.37H277.311C275.967 246.37 275.061 246.594 274.595 247.042C274.128 247.49 273.895 248.031 273.895 248.666C273.895 249.394 274.184 249.982 274.763 250.43C275.341 250.859 276.144 251.074 277.171 251.074C278.179 251.074 279.056 250.85 279.803 250.402C280.568 249.954 281.119 249.3 281.455 248.442L281.987 250.29C281.632 251.167 281.007 251.867 280.111 252.39C279.215 252.894 278.085 253.146 276.723 253.146ZM288.983 252.978V238.138H291.671V244.438H300.127V238.138H302.815V252.978H300.127V246.762H291.671V252.978H288.983ZM310.982 252.978V239.79L311.654 240.49H305.55V238.138H319.102V240.49H313.026L313.669 239.79V252.978H310.982ZM340.122 252.978L334.382 245.754L336.594 244.41L343.286 252.978H340.122ZM329.37 252.978V238.138H332.058V252.978H329.37ZM331.246 246.706V244.41H336.146V246.706H331.246ZM336.818 245.866L334.326 245.53L340.01 238.138H342.894L336.818 245.866ZM354.931 252.978V249.842L354.791 249.254V243.906C354.791 242.767 354.455 241.89 353.783 241.274C353.129 240.639 352.14 240.322 350.815 240.322C349.937 240.322 349.079 240.471 348.239 240.77C347.399 241.05 346.689 241.432 346.111 241.918L344.991 239.902C345.756 239.286 346.671 238.819 347.735 238.502C348.817 238.166 349.947 237.998 351.123 237.998C353.157 237.998 354.725 238.492 355.827 239.482C356.928 240.471 357.479 241.983 357.479 244.018V252.978H354.931ZM350.059 253.146C348.957 253.146 347.987 252.959 347.147 252.586C346.325 252.212 345.691 251.699 345.243 251.046C344.795 250.374 344.571 249.618 344.571 248.778C344.571 247.975 344.757 247.247 345.131 246.594C345.523 245.94 346.148 245.418 347.007 245.026C347.884 244.634 349.06 244.438 350.535 244.438H355.239V246.37H350.647C349.303 246.37 348.397 246.594 347.931 247.042C347.464 247.49 347.231 248.031 347.231 248.666C347.231 249.394 347.52 249.982 348.099 250.43C348.677 250.859 349.48 251.074 350.507 251.074C351.515 251.074 352.392 250.85 353.139 250.402C353.904 249.954 354.455 249.3 354.791 248.442L355.323 250.29C354.968 251.167 354.343 251.867 353.447 252.39C352.551 252.894 351.421 253.146 350.059 253.146ZM379.931 252.978L375.199 245.754L377.411 244.41L383.123 252.978H379.931ZM372.119 246.706V244.41H376.935V246.706H372.119ZM377.663 245.866L375.115 245.53L379.847 238.138H382.731L377.663 245.866ZM363.271 252.978H360.079L365.763 244.41L367.975 245.754L363.271 252.978ZM372.931 252.978H370.243V238.138H372.931V252.978ZM371.055 246.706H366.267V244.41H371.055V246.706ZM365.539 245.866L360.471 238.138H363.327L368.059 245.53L365.539 245.866ZM396.217 251.718V240.49H389.777L389.637 243.346C389.599 244.279 389.534 245.184 389.441 246.062C389.366 246.92 389.235 247.714 389.049 248.442C388.881 249.17 388.629 249.767 388.293 250.234C387.957 250.7 387.509 250.99 386.949 251.102L384.289 250.626C384.867 250.644 385.334 250.458 385.689 250.066C386.043 249.655 386.314 249.095 386.501 248.386C386.706 247.676 386.855 246.874 386.949 245.978C387.042 245.063 387.117 244.12 387.173 243.15L387.397 238.138H398.905V251.718H396.217ZM383.701 256.422V250.626H401.173V256.422H398.653V252.978H386.249V256.422H383.701ZM411.03 253.146C409.537 253.146 408.212 252.819 407.054 252.166C405.897 251.512 404.982 250.616 404.31 249.478C403.638 248.32 403.302 247.014 403.302 245.558C403.302 244.083 403.638 242.776 404.31 241.638C404.982 240.499 405.897 239.612 407.054 238.978C408.212 238.324 409.537 237.998 411.03 237.998C412.505 237.998 413.821 238.324 414.978 238.978C416.154 239.612 417.069 240.499 417.722 241.638C418.394 242.758 418.73 244.064 418.73 245.558C418.73 247.032 418.394 248.339 417.722 249.478C417.069 250.616 416.154 251.512 414.978 252.166C413.821 252.819 412.505 253.146 411.03 253.146ZM411.03 250.794C411.982 250.794 412.832 250.579 413.578 250.15C414.344 249.72 414.941 249.114 415.37 248.33C415.8 247.527 416.014 246.603 416.014 245.558C416.014 244.494 415.8 243.579 415.37 242.814C414.941 242.03 414.344 241.423 413.578 240.994C412.832 240.564 411.982 240.35 411.03 240.35C410.078 240.35 409.229 240.564 408.482 240.994C407.736 241.423 407.138 242.03 406.69 242.814C406.242 243.579 406.018 244.494 406.018 245.558C406.018 246.603 406.242 247.527 406.69 248.33C407.138 249.114 407.736 249.72 408.482 250.15C409.229 250.579 410.078 250.794 411.03 250.794ZM422.612 252.978V238.138H433.532V240.49H424.656L425.3 239.874V252.978H422.612ZM441.983 253.146C440.49 253.146 439.165 252.819 438.007 252.166C436.85 251.512 435.935 250.616 435.263 249.478C434.591 248.32 434.255 247.014 434.255 245.558C434.255 244.083 434.591 242.776 435.263 241.638C435.935 240.499 436.85 239.612 438.007 238.978C439.165 238.324 440.49 237.998 441.983 237.998C443.458 237.998 444.774 238.324 445.931 238.978C447.107 239.612 448.022 240.499 448.675 241.638C449.347 242.758 449.683 244.064 449.683 245.558C449.683 247.032 449.347 248.339 448.675 249.478C448.022 250.616 447.107 251.512 445.931 252.166C444.774 252.819 443.458 253.146 441.983 253.146ZM441.983 250.794C442.935 250.794 443.785 250.579 444.531 250.15C445.297 249.72 445.894 249.114 446.323 248.33C446.753 247.527 446.967 246.603 446.967 245.558C446.967 244.494 446.753 243.579 446.323 242.814C445.894 242.03 445.297 241.423 444.531 240.994C443.785 240.564 442.935 240.35 441.983 240.35C441.031 240.35 440.182 240.564 439.435 240.994C438.689 241.423 438.091 242.03 437.643 242.814C437.195 243.579 436.971 244.494 436.971 245.558C436.971 246.603 437.195 247.527 437.643 248.33C438.091 249.114 438.689 249.72 439.435 250.15C440.182 250.579 441.031 250.794 441.983 250.794ZM77.36 292.578C76.6507 292.578 75.96 292.456 75.288 292.214C74.616 291.99 74.0373 291.654 73.552 291.206L74.7 289.19C75.0733 289.544 75.484 289.815 75.932 290.002C76.38 290.188 76.856 290.282 77.36 290.282C78.0133 290.282 78.5547 290.114 78.984 289.778C79.4133 289.442 79.8147 288.844 80.188 287.986L81.112 285.942L81.392 285.606L87.216 272.138H89.848L82.652 288.462C82.2227 289.507 81.7373 290.328 81.196 290.926C80.6733 291.523 80.0947 291.943 79.46 292.186C78.8253 292.447 78.1253 292.578 77.36 292.578ZM80.888 287.454L74.112 272.138H76.912L82.68 285.354L80.888 287.454ZM101.952 280.902C101.168 281.275 100.356 281.574 99.5161 281.798C98.6948 282.003 97.8454 282.106 96.9681 282.106C95.1761 282.106 93.7574 281.686 92.7121 280.846C91.6854 280.006 91.1721 278.708 91.1721 276.954V272.138H93.8601V276.786C93.8601 277.85 94.1868 278.634 94.8401 279.138C95.5121 279.642 96.4081 279.894 97.5281 279.894C98.2374 279.894 98.9654 279.8 99.7121 279.614C100.477 279.427 101.224 279.166 101.952 278.83V280.902ZM101.756 286.978V272.138H104.444V286.978H101.756ZM116.271 287.146C114.684 287.146 113.284 286.819 112.071 286.166C110.876 285.512 109.943 284.616 109.271 283.478C108.617 282.339 108.291 281.032 108.291 279.558C108.291 278.083 108.608 276.776 109.243 275.638C109.896 274.499 110.783 273.612 111.903 272.978C113.041 272.324 114.32 271.998 115.739 271.998C117.176 271.998 118.445 272.315 119.547 272.95C120.648 273.584 121.507 274.48 122.123 275.638C122.757 276.776 123.075 278.111 123.075 279.642C123.075 279.754 123.065 279.884 123.047 280.034C123.047 280.183 123.037 280.323 123.019 280.454H110.391V278.522H121.619L120.527 279.194C120.545 278.242 120.349 277.392 119.939 276.646C119.528 275.899 118.959 275.32 118.231 274.91C117.521 274.48 116.691 274.266 115.739 274.266C114.805 274.266 113.975 274.48 113.247 274.91C112.519 275.32 111.949 275.908 111.539 276.674C111.128 277.42 110.923 278.279 110.923 279.25V279.698C110.923 280.687 111.147 281.574 111.595 282.358C112.061 283.123 112.705 283.72 113.527 284.15C114.348 284.579 115.291 284.794 116.355 284.794C117.232 284.794 118.025 284.644 118.735 284.346C119.463 284.047 120.097 283.599 120.639 283.002L122.123 284.738C121.451 285.522 120.611 286.119 119.603 286.53C118.613 286.94 117.503 287.146 116.271 287.146ZM127.245 286.978V272.138H129.933V278.438H138.389V272.138H141.077V286.978H138.389V280.762H129.933V286.978H127.245ZM146.303 286.978V272.138H148.991V282.946L158.091 272.138H160.527V286.978H157.839V276.17L148.767 286.978H146.303ZM176.497 286.978L170.757 279.754L172.969 278.41L179.661 286.978H176.497ZM165.745 286.978V272.138H168.433V286.978H165.745ZM167.621 280.706V278.41H172.521V280.706H167.621ZM173.193 279.866L170.701 279.53L176.385 272.138H179.269L173.193 279.866ZM191.306 286.978V283.842L191.166 283.254V277.906C191.166 276.767 190.83 275.89 190.158 275.274C189.504 274.639 188.515 274.322 187.19 274.322C186.312 274.322 185.454 274.471 184.614 274.77C183.774 275.05 183.064 275.432 182.486 275.918L181.366 273.902C182.131 273.286 183.046 272.819 184.11 272.502C185.192 272.166 186.322 271.998 187.498 271.998C189.532 271.998 191.1 272.492 192.202 273.482C193.303 274.471 193.854 275.983 193.854 278.018V286.978H191.306ZM186.434 287.146C185.332 287.146 184.362 286.959 183.522 286.586C182.7 286.212 182.066 285.699 181.618 285.046C181.17 284.374 180.946 283.618 180.946 282.778C180.946 281.975 181.132 281.247 181.506 280.594C181.898 279.94 182.523 279.418 183.382 279.026C184.259 278.634 185.435 278.438 186.91 278.438H191.614V280.37H187.022C185.678 280.37 184.772 280.594 184.306 281.042C183.839 281.49 183.606 282.031 183.606 282.666C183.606 283.394 183.895 283.982 184.474 284.43C185.052 284.859 185.855 285.074 186.882 285.074C187.89 285.074 188.767 284.85 189.514 284.402C190.279 283.954 190.83 283.3 191.166 282.442L191.698 284.29C191.343 285.167 190.718 285.867 189.822 286.39C188.926 286.894 187.796 287.146 186.434 287.146Z" fill="#3B2651"/>
</svg>
