<svg width="94" height="94" viewBox="0 0 94 94" fill="none" xmlns="http://www.w3.org/2000/svg">
<g clip-path="url(#clip0_112_60)">
<circle cx="47" cy="50" r="47" fill="#E8D4FF"/>
<path d="M10.5926 45C10.5926 45 15.0621 54.803 31.1523 48.1772C47.2425 41.5513 44.878 53.7983 44.878 53.7983C44.878 53.7983 33.3438 55.1289 28.7013 62.7594C24.0588 70.39 12.2362 67.0228 10.1024 58.2245C7.96855 49.4263 4.10459 52.522 10.5926 45Z" fill="#B964D4"/>
<path d="M39.8583 52.1742C39.8583 52.1742 51.1847 48.1057 50.9977 79.297C50.9977 79.297 45.014 94.2146 37 93.9977L39.8583 52.1742Z" fill="#97B3EF"/>
<path d="M40.2149 42.1806C40.8073 42.5113 41.4541 42.7171 42.1198 42.7866C47.0674 43.3136 44.9399 42.1279 47.6364 39.0977C47.6364 38.8342 47.6364 38.5707 47.6364 38.3072C48.626 32.4576 47.958 26.4762 48.5765 20.6003L48.8981 17.7018C49.034 16.265 49.034 14.8173 48.8981 13.3805C48.8981 12.59 47.018 4 48.5517 4H42.1692C42.1692 4 42.1692 4.13175 42.1692 4.39524C42.4166 6.42416 43.4804 15.4621 42.1692 14.9351C41.4766 15.3567 39.448 20.6266 38.1616 27.0296C37.0339 31.8777 36.724 36.9007 37.2463 41.8644C37.3981 42.9535 37.7068 44.0112 38.1616 45L40.2149 42.1806Z" fill="#97B3EF"/>
<path d="M44.7833 52C44.7833 52 52.92 67.1627 38.0153 83C37.8379 81.3003 39.2574 53.9965 39.2574 53.9965L44.7833 52Z" fill="#B964D4"/>
<path d="M38 43V27.7988V26" stroke="#3B2651" stroke-width="5" stroke-linecap="round" stroke-linejoin="round"/>
<path d="M46 55H53.0806C54.6505 55 56.1561 54.3956 57.2662 53.3198C58.3763 52.244 58.9999 50.7848 58.9999 49.2634V26.0974C59.0053 24.9429 58.7542 23.8008 58.2635 22.7487C57.5749 21.3203 56.4775 20.1135 55.1018 19.2717C53.7262 18.4299 52.1301 17.9886 50.5032 18.0002H49.427" stroke="#3B2651" stroke-width="5" stroke-linecap="round" stroke-linejoin="round"/>
<path d="M49 3C46.8783 3 44.8434 3.79018 43.3431 5.1967C41.8429 6.60322 41 8.51087 41 10.5C41 12.4891 41.8429 14.3968 43.3431 15.8033C44.8434 17.2098 46.8783 18 49 18" stroke="#3B2651" stroke-width="5" stroke-linecap="round" stroke-linejoin="round"/>
<path d="M38 26L23 52" stroke="#3B2651" stroke-width="5" stroke-linecap="round" stroke-linejoin="round"/>
<path d="M69.1963 33.8561L73 29L38 43" stroke="#3B2651" stroke-width="5" stroke-linecap="round" stroke-linejoin="round"/>
<path d="M42 92H41.5314H35.5732H34L36.7782 55" stroke="#3B2651" stroke-width="5" stroke-linecap="round" stroke-linejoin="round"/>
<path d="M59 46L62 91" stroke="#3B2651" stroke-width="5" stroke-linecap="round" stroke-linejoin="round"/>
<path d="M50 66V90.8741C50 91.1727 50.1461 91.4591 50.4063 91.6702C50.6664 91.8814 51.0192 92 51.3871 92H60.6129C60.9808 92 61.3336 91.8814 61.5937 91.6702C61.8539 91.4591 62 91.1727 62 90.8741" stroke="#3B2651" stroke-width="5" stroke-linecap="round" stroke-linejoin="round"/>
<path d="M3 28.4503C3 28.7851 3.06892 29.1167 3.20283 29.426C3.33674 29.7354 3.53301 30.0164 3.78043 30.2532C4.02786 30.49 4.3216 30.6778 4.64488 30.8059C4.96816 30.9341 5.31465 31 5.66457 31C6.01448 31 6.36097 30.9341 6.68425 30.8059C7.00753 30.6778 7.30127 30.49 7.5487 30.2532C7.79613 30.0164 7.9924 29.7354 8.12631 29.426C8.26021 29.1167 8.32914 28.7851 8.32914 28.4503V18.0344L21 16V26.3074C21 26.6422 20.9311 26.9738 20.7972 27.2832C20.6633 27.5925 20.467 27.8736 20.2196 28.1103C19.9721 28.3471 19.6784 28.5349 19.3551 28.6631C19.0318 28.7912 18.6853 28.8571 18.3354 28.8571C17.6287 28.8571 16.951 28.5885 16.4513 28.1103C15.9516 27.6322 15.6709 26.9836 15.6709 26.3074" stroke="#3B2651" stroke-width="5" stroke-linecap="round" stroke-linejoin="round"/>
<path d="M73 59.2803C73 60.0016 73.2798 60.6934 73.778 61.2034C74.2761 61.7135 74.9517 62 75.6562 62C76.3607 62 77.0363 61.7135 77.5344 61.2034C78.0326 60.6934 78.3124 60.0016 78.3124 59.2803V48.17L91 46V57.1103C91 57.8316 90.7202 58.5234 90.222 59.0334C89.7239 59.5435 89.0483 59.83 88.3438 59.83C87.6393 59.83 86.9637 59.5435 86.4656 59.0334C85.9674 58.5234 85.6876 57.8316 85.6876 57.1103" stroke="#3B2651" stroke-width="5" stroke-linecap="round" stroke-linejoin="round"/>
<path d="M77 26C78.1046 26 79 24.6569 79 23C79 21.3431 78.1046 20 77 20C75.8954 20 75 21.3431 75 23C75 24.6569 75.8954 26 77 26Z" fill="#3B2651"/>
<path d="M17.9743 43L13.1972 44.2452C11.949 44.5757 10.7969 45.1758 9.82983 45.9994C8.8628 46.823 8.10669 47.8479 7.61987 48.995C7.13304 50.1422 6.92852 51.3809 7.02209 52.6156C7.11566 53.8503 7.50481 55.0479 8.15952 56.1161L13.0235 64.03C13.7289 65.1712 14.7173 66.1291 15.9015 66.819C17.0857 67.509 18.4293 67.91 19.8139 67.9865C21.1984 68.0631 22.5815 67.8129 23.841 67.258C25.1005 66.7032 26.1979 65.8607 27.0363 64.8048L34.4191 54.6218H46V48.0638" stroke="#3B2651" stroke-width="5" stroke-linecap="round" stroke-linejoin="round"/>
</g>
<defs>
<clipPath id="clip0_112_60">
<rect width="94" height="94" fill="white"/>
</clipPath>
</defs>
</svg>
