<svg width="329" height="100" viewBox="0 0 329 100" fill="none" xmlns="http://www.w3.org/2000/svg">
<g clip-path="url(#clip0_66_770)">
<path d="M112.6 44V35.628L108.414 42.648H106.698L102.616 35.602V44H98.95V30.012H103.188L107.66 38.098L112.418 30.012H116.214L116.266 44H112.6ZM134.165 30.012V41.66C134.165 44.2253 133.515 46.132 132.215 47.38C130.915 48.628 129.026 49.252 126.547 49.252C125.23 49.252 123.982 49.0873 122.803 48.758C121.642 48.4287 120.663 47.952 119.865 47.328L121.477 44.416C122.067 44.9013 122.786 45.2827 123.635 45.56C124.485 45.8373 125.343 45.976 126.209 45.976C127.561 45.976 128.549 45.664 129.173 45.04C129.797 44.416 130.109 43.4627 130.109 42.18V41.712C129.589 42.232 128.974 42.6307 128.263 42.908C127.553 43.1853 126.79 43.324 125.975 43.324C124.138 43.324 122.682 42.804 121.607 41.764C120.533 40.7067 119.995 39.1293 119.995 37.032V30.012H124.051V36.434C124.051 38.7047 124.996 39.84 126.885 39.84C127.856 39.84 128.636 39.528 129.225 38.904C129.815 38.2627 130.109 37.318 130.109 36.07V30.012H134.165ZM146.948 36.72C147.78 36.98 148.421 37.3787 148.872 37.916C149.34 38.4533 149.574 39.0947 149.574 39.84C149.574 40.724 149.27 41.504 148.664 42.18C148.057 42.8387 147.225 43.35 146.168 43.714C145.11 44.078 143.914 44.26 142.58 44.26C141.488 44.26 140.413 44.1473 139.356 43.922C138.298 43.6967 137.319 43.3587 136.418 42.908L137.51 40.074C138.983 40.7847 140.612 41.14 142.398 41.14C143.351 41.14 144.096 41.0013 144.634 40.724C145.188 40.4293 145.466 40.022 145.466 39.502C145.466 39.0513 145.275 38.7133 144.894 38.488C144.512 38.2453 143.958 38.124 143.23 38.124H140.37V35.602H142.866C143.576 35.602 144.122 35.4893 144.504 35.264C144.885 35.0387 145.076 34.7093 145.076 34.276C145.076 33.8253 144.833 33.4787 144.348 33.236C143.88 32.9933 143.204 32.872 142.32 32.872C140.968 32.872 139.494 33.1927 137.9 33.834L136.912 31.026C138.853 30.1767 140.742 29.752 142.58 29.752C143.845 29.752 144.972 29.908 145.96 30.22C146.965 30.532 147.754 30.9913 148.326 31.598C148.898 32.1873 149.184 32.8807 149.184 33.678C149.184 34.3367 148.984 34.9347 148.586 35.472C148.187 35.992 147.641 36.408 146.948 36.72ZM158.868 44.39C156.65 44.39 154.986 43.896 153.876 42.908C152.767 41.92 152.212 40.464 152.212 38.54V30.012H156.242V34.744C156.641 34.4667 157.161 34.2327 157.802 34.042C158.461 33.8513 159.206 33.756 160.038 33.756C161.754 33.756 163.098 34.1893 164.068 35.056C165.039 35.9227 165.524 37.188 165.524 38.852C165.524 40.62 164.926 41.9893 163.73 42.96C162.534 43.9133 160.914 44.39 158.868 44.39ZM167.006 30.012H171.062V44H167.006V30.012ZM158.868 41.53C159.7 41.53 160.333 41.2873 160.766 40.802C161.2 40.3167 161.416 39.684 161.416 38.904C161.416 38.176 161.191 37.5953 160.74 37.162C160.307 36.7113 159.674 36.486 158.842 36.486C158.253 36.486 157.733 36.6073 157.282 36.85C156.849 37.0753 156.502 37.3873 156.242 37.786V38.93C156.242 39.7447 156.468 40.386 156.918 40.854C157.369 41.3047 158.019 41.53 158.868 41.53ZM181.106 38.696H179V44H174.944V30.012H179V35.446H181.184L184.98 30.012H189.296L184.408 36.72L189.634 44H184.85L181.106 38.696ZM205.312 30.012V44H201.438V42.388C200.433 43.6013 198.977 44.208 197.07 44.208C195.753 44.208 194.557 43.9133 193.482 43.324C192.425 42.7347 191.593 41.894 190.986 40.802C190.379 39.71 190.076 38.4447 190.076 37.006C190.076 35.5673 190.379 34.302 190.986 33.21C191.593 32.118 192.425 31.2773 193.482 30.688C194.557 30.0987 195.753 29.804 197.07 29.804C198.855 29.804 200.251 30.3673 201.256 31.494V30.012H205.312ZM197.772 40.88C198.795 40.88 199.644 40.5333 200.32 39.84C200.996 39.1293 201.334 38.1847 201.334 37.006C201.334 35.8273 200.996 34.8913 200.32 34.198C199.644 33.4873 198.795 33.132 197.772 33.132C196.732 33.132 195.874 33.4873 195.198 34.198C194.522 34.8913 194.184 35.8273 194.184 37.006C194.184 38.1847 194.522 39.1293 195.198 39.84C195.874 40.5333 196.732 40.88 197.772 40.88ZM222.561 30.012V44H218.505V33.34H214.085L213.955 35.81C213.886 37.6473 213.713 39.1727 213.435 40.386C213.158 41.5993 212.707 42.5527 212.083 43.246C211.459 43.9393 210.593 44.286 209.483 44.286C208.894 44.286 208.192 44.182 207.377 43.974L207.585 40.646C207.863 40.6807 208.062 40.698 208.183 40.698C208.79 40.698 209.241 40.4813 209.535 40.048C209.847 39.5973 210.055 39.034 210.159 38.358C210.263 37.6647 210.341 36.7547 210.393 35.628L210.601 30.012H222.561ZM232.884 44.39C230.665 44.39 228.984 43.896 227.84 42.908C226.713 41.92 226.15 40.464 226.15 38.54V30.012H230.18V34.744C230.613 34.432 231.168 34.1893 231.844 34.016C232.537 33.8427 233.308 33.756 234.158 33.756C235.908 33.756 237.278 34.1893 238.266 35.056C239.254 35.9227 239.748 37.188 239.748 38.852C239.748 40.6373 239.132 42.0067 237.902 42.96C236.688 43.9133 235.016 44.39 232.884 44.39ZM232.884 41.53C233.75 41.53 234.418 41.296 234.886 40.828C235.371 40.36 235.614 39.7273 235.614 38.93C235.614 38.1673 235.38 37.5693 234.912 37.136C234.461 36.7027 233.811 36.486 232.962 36.486C232.338 36.486 231.783 36.5987 231.298 36.824C230.812 37.0493 230.44 37.37 230.18 37.786V38.93C230.18 39.7447 230.414 40.386 230.882 40.854C231.367 41.3047 232.034 41.53 232.884 41.53ZM242.356 30.012H246.386V35.472H252.47V30.012H256.526V44H252.47V38.774H246.386V44H242.356V30.012ZM266.753 44.39C264.534 44.39 262.87 43.896 261.761 42.908C260.652 41.92 260.097 40.464 260.097 38.54V30.012H264.127V34.744C264.526 34.4667 265.046 34.2327 265.687 34.042C266.346 33.8513 267.091 33.756 267.923 33.756C269.639 33.756 270.982 34.1893 271.953 35.056C272.924 35.9227 273.409 37.188 273.409 38.852C273.409 40.62 272.811 41.9893 271.615 42.96C270.419 43.9133 268.798 44.39 266.753 44.39ZM274.891 30.012H278.947V44H274.891V30.012ZM266.753 41.53C267.585 41.53 268.218 41.2873 268.651 40.802C269.084 40.3167 269.301 39.684 269.301 38.904C269.301 38.176 269.076 37.5953 268.625 37.162C268.192 36.7113 267.559 36.486 266.727 36.486C266.138 36.486 265.618 36.6073 265.167 36.85C264.734 37.0753 264.387 37.3873 264.127 37.786V38.93C264.127 39.7447 264.352 40.386 264.803 40.854C265.254 41.3047 265.904 41.53 266.753 41.53ZM296.635 30.012V44H292.761V42.362C292.241 42.9687 291.6 43.428 290.837 43.74C290.092 44.052 289.294 44.208 288.445 44.208C286.608 44.208 285.143 43.6793 284.051 42.622C282.976 41.5647 282.439 39.996 282.439 37.916V30.012H286.495V37.318C286.495 39.5713 287.44 40.698 289.329 40.698C290.317 40.698 291.106 40.386 291.695 39.762C292.284 39.1207 292.579 38.176 292.579 36.928V30.012H296.635ZM289.433 28.504C286.382 28.504 284.848 27.1607 284.831 24.474H287.483C287.5 25.0807 287.665 25.5573 287.977 25.904C288.306 26.2333 288.783 26.398 289.407 26.398C290.031 26.398 290.508 26.2333 290.837 25.904C291.184 25.5573 291.357 25.0807 291.357 24.474H294.061C294.044 27.1607 292.501 28.504 289.433 28.504ZM105.112 70.696H103.006V76H98.95V62.012H103.006V67.446H105.19L108.986 62.012H113.302L108.414 68.72L113.64 76H108.856L105.112 70.696ZM129.048 62.012V76H124.992V65.34H120.572L120.442 67.81C120.372 69.6473 120.199 71.1727 119.922 72.386C119.644 73.5993 119.194 74.5527 118.57 75.246C117.946 75.9393 117.079 76.286 115.97 76.286C115.38 76.286 114.678 76.182 113.864 75.974L114.072 72.646C114.349 72.6807 114.548 72.698 114.67 72.698C115.276 72.698 115.727 72.4813 116.022 72.048C116.334 71.5973 116.542 71.034 116.646 70.358C116.75 69.6647 116.828 68.7547 116.88 67.628L117.088 62.012H129.048ZM146.962 62.012V73.66C146.962 76.2253 146.312 78.132 145.012 79.38C143.712 80.628 141.823 81.252 139.344 81.252C138.027 81.252 136.779 81.0873 135.6 80.758C134.439 80.4287 133.459 79.952 132.662 79.328L134.274 76.416C134.863 76.9013 135.583 77.2827 136.432 77.56C137.281 77.8373 138.139 77.976 139.006 77.976C140.358 77.976 141.346 77.664 141.97 77.04C142.594 76.416 142.906 75.4627 142.906 74.18V73.712C142.386 74.232 141.771 74.6307 141.06 74.908C140.349 75.1853 139.587 75.324 138.772 75.324C136.935 75.324 135.479 74.804 134.404 73.764C133.329 72.7067 132.792 71.1293 132.792 69.032V62.012H136.848V68.434C136.848 70.7047 137.793 71.84 139.682 71.84C140.653 71.84 141.433 71.528 142.022 70.904C142.611 70.2627 142.906 69.318 142.906 68.07V62.012H146.962ZM158.884 62.974C160.218 62.974 161.388 63.2513 162.394 63.806C163.399 64.3433 164.17 65.106 164.708 66.094C165.262 67.082 165.54 68.226 165.54 69.526C165.54 70.8607 165.21 72.048 164.552 73.088C163.91 74.1107 163.009 74.908 161.848 75.48C160.686 76.0347 159.369 76.312 157.896 76.312C155.452 76.312 153.528 75.532 152.124 73.972C150.737 72.3947 150.044 70.0893 150.044 67.056C150.044 64.248 150.65 62.012 151.864 60.348C153.094 58.6667 154.975 57.566 157.506 57.046L164.162 55.72L164.708 59.204L158.832 60.374C157.237 60.686 156.05 61.206 155.27 61.934C154.507 62.662 154.056 63.6933 153.918 65.028C154.524 64.3693 155.252 63.8667 156.102 63.52C156.951 63.156 157.878 62.974 158.884 62.974ZM157.922 73.166C158.962 73.166 159.794 72.828 160.418 72.152C161.059 71.476 161.38 70.618 161.38 69.578C161.38 68.5207 161.059 67.68 160.418 67.056C159.794 66.432 158.962 66.12 157.922 66.12C156.864 66.12 156.015 66.432 155.374 67.056C154.732 67.68 154.412 68.5207 154.412 69.578C154.412 70.6353 154.741 71.502 155.4 72.178C156.058 72.8367 156.899 73.166 157.922 73.166Z" fill="#F6EEFF"/>
<g clip-path="url(#clip1_66_770)">
<path d="M8.40349 49C8.40349 49 12.6378 57.9118 27.8811 51.8883C43.1245 45.8648 40.8844 56.9984 40.8844 56.9984C40.8844 56.9984 29.9573 58.2081 25.5591 65.1449C21.1609 72.0818 9.96061 69.0207 7.93909 61.0223C5.91757 53.0239 2.25698 55.8381 8.40349 49Z" fill="#D75BFF"/>
<path d="M35.8583 55.1617C35.8583 55.1617 47.1847 51.3839 46.9977 80.3473C46.9977 80.3473 41.014 94.1993 33 93.9978L35.8583 55.1617Z" fill="#647498"/>
<path d="M36.2149 46.3869C36.8073 46.6934 37.4541 46.8842 38.1198 46.9486C43.0674 47.437 40.9399 46.338 43.6364 43.5296C43.6364 43.2853 43.6364 43.0411 43.6364 42.7969C44.626 37.3753 43.958 31.8316 44.5765 26.3856L44.8981 23.6992C45.034 22.3675 45.034 21.0258 44.8981 19.6941C44.8981 18.9614 43.018 11 44.5517 11H38.1692C38.1692 11 38.1692 11.1221 38.1692 11.3663C38.4166 13.2468 39.4804 21.6234 38.1692 21.135C37.4766 21.5257 35.448 26.41 34.1616 32.3445C33.0339 36.8379 32.724 41.4934 33.2463 46.0938C33.3981 47.1033 33.7068 48.0835 34.1616 49L36.2149 46.3869Z" fill="#647498"/>
<path d="M40.7833 55C40.7833 55 48.92 69.1845 34.0153 84C33.8379 82.4099 35.2574 56.8677 35.2574 56.8677L40.7833 55Z" fill="#D75BFF"/>
<path d="M34 47V32.693V31" stroke="#F6EEFF" stroke-width="5" stroke-linecap="round" stroke-linejoin="round"/>
<path d="M42 58H48.5359C49.9851 58 51.3748 57.4446 52.3995 56.456C53.4242 55.4674 53.9999 54.1266 53.9999 52.7285V31.4408C54.0049 30.3799 53.7731 29.3304 53.3202 28.3637C52.6845 27.0511 51.6715 25.9421 50.4017 25.1686C49.1319 24.3951 47.6586 23.9896 46.1568 24.0002H45.1634" stroke="#F6EEFF" stroke-width="5" stroke-linecap="round" stroke-linejoin="round"/>
<path d="M45 10C42.8783 10 40.8434 10.7375 39.3431 12.0503C37.8429 13.363 37 15.1435 37 17C37 18.8565 37.8429 20.637 39.3431 21.9497C40.8434 23.2625 42.8783 24 45 24" stroke="#F6EEFF" stroke-width="5" stroke-linecap="round" stroke-linejoin="round"/>
<path d="M34 31L20 55" stroke="#F6EEFF" stroke-width="5" stroke-linecap="round" stroke-linejoin="round"/>
<path d="M64.3049 38.5092L68 34L34 47" stroke="#F6EEFF" stroke-width="5" stroke-linecap="round" stroke-linejoin="round"/>
<path d="M38 92H37.59H32.3766H31L33.431 58" stroke="#F6EEFF" stroke-width="5" stroke-linecap="round" stroke-linejoin="round"/>
<path d="M54 50L57 91" stroke="#F6EEFF" stroke-width="5" stroke-linecap="round" stroke-linejoin="round"/>
<path d="M46 68V90.9607C46 91.2364 46.134 91.5007 46.3724 91.6956C46.6109 91.8905 46.9343 92 47.2715 92H55.7285C56.0657 92 56.3891 91.8905 56.6276 91.6956C56.866 91.5007 57 91.2364 57 90.9607" stroke="#F6EEFF" stroke-width="5" stroke-linecap="round" stroke-linejoin="round"/>
<path d="M1 33.6203C1 33.9328 1.06509 34.2422 1.19156 34.5309C1.31803 34.8197 1.5034 35.082 1.73708 35.303C1.97076 35.524 2.24818 35.6993 2.5535 35.8189C2.85882 35.9384 3.18606 36 3.51654 36C3.84701 36 4.17425 35.9384 4.47957 35.8189C4.78489 35.6993 5.06231 35.524 5.296 35.303C5.52968 35.082 5.71504 34.8197 5.84151 34.5309C5.96798 34.2422 6.03307 33.9328 6.03307 33.6203V23.8987L18 22V31.6203C18 31.9328 17.9349 32.2422 17.8084 32.5309C17.682 32.8197 17.4966 33.082 17.2629 33.303C17.0292 33.524 16.7518 33.6993 16.4465 33.8189C16.1412 33.9384 15.8139 34 15.4835 34C14.816 34 14.1759 33.7493 13.704 33.303C13.2321 32.8567 12.9669 32.2514 12.9669 31.6203" stroke="#F6EEFF" stroke-width="5" stroke-linecap="round" stroke-linejoin="round"/>
<path d="M68 61.6203C68 62.2514 68.2643 62.8567 68.7348 63.303C69.2052 63.7493 69.8433 64 70.5086 64C71.174 64 71.812 63.7493 72.2825 63.303C72.753 62.8567 73.0173 62.2514 73.0173 61.6203V51.8987L85 50V59.7215C85 60.3527 84.7357 60.958 84.2652 61.4043C83.7948 61.8505 83.1567 62.1013 82.4914 62.1013C81.826 62.1013 81.188 61.8505 80.7175 61.4043C80.247 60.958 79.9827 60.3527 79.9827 59.7215" stroke="#F6EEFF" stroke-width="5" stroke-linecap="round" stroke-linejoin="round"/>
<path d="M72 31C73.1046 31 74 29.8807 74 28.5C74 27.1193 73.1046 26 72 26C70.8954 26 70 27.1193 70 28.5C70 29.8807 70.8954 31 72 31Z" fill="#F6EEFF"/>
<path d="M15.4115 47L10.8794 48.1456C9.69516 48.4496 8.60215 49.0018 7.68471 49.7594C6.76727 50.5171 6.04994 51.46 5.58808 52.5154C5.12622 53.5708 4.93219 54.7104 5.02096 55.8464C5.10973 56.9823 5.47892 58.0841 6.10005 59.0668L10.7146 66.3476C11.3839 67.3975 12.3216 68.2787 13.445 68.9135C14.5685 69.5483 15.8432 69.9172 17.1567 69.9876C18.4703 70.058 19.7824 69.8279 20.9773 69.3174C22.1723 68.8069 23.2134 68.0318 24.0088 67.0604L31.013 57.6921H42V51.6587" stroke="#F6EEFF" stroke-width="5" stroke-linecap="round" stroke-linejoin="round"/>
</g>
</g>
<defs>
<clipPath id="clip0_66_770">
<rect width="329" height="100" fill="white"/>
</clipPath>
<clipPath id="clip1_66_770">
<rect width="94" height="94" fill="white" transform="translate(-4)"/>
</clipPath>
</defs>
</svg>
