<svg width="165" height="50" viewBox="0 0 165 50" fill="none" xmlns="http://www.w3.org/2000/svg">
<g clip-path="url(#clip0_139_9)">
<path d="M65.4 21V16.492L63.146 20.272H62.222L60.024 16.478V21H58.05V13.468H60.332L62.74 17.822L65.302 13.468H67.346L67.374 21H65.4ZM77.012 13.468V19.74C77.012 21.1213 76.662 22.148 75.962 22.82C75.262 23.492 74.2447 23.828 72.91 23.828C72.2007 23.828 71.5287 23.7393 70.894 23.562C70.2687 23.3847 69.7413 23.128 69.312 22.792L70.18 21.224C70.4973 21.4853 70.8847 21.6907 71.342 21.84C71.7993 21.9893 72.2613 22.064 72.728 22.064C73.456 22.064 73.988 21.896 74.324 21.56C74.66 21.224 74.828 20.7107 74.828 20.02V19.768C74.548 20.048 74.2167 20.2627 73.834 20.412C73.4513 20.5613 73.0407 20.636 72.602 20.636C71.6127 20.636 70.8287 20.356 70.25 19.796C69.6713 19.2267 69.382 18.3773 69.382 17.248V13.468H71.566V16.926C71.566 18.1487 72.0747 18.76 73.092 18.76C73.6147 18.76 74.0347 18.592 74.352 18.256C74.6693 17.9107 74.828 17.402 74.828 16.73V13.468H77.012ZM83.895 17.08C84.343 17.22 84.6883 17.4347 84.931 17.724C85.183 18.0133 85.309 18.3587 85.309 18.76C85.309 19.236 85.1457 19.656 84.819 20.02C84.4923 20.3747 84.0443 20.65 83.475 20.846C82.9057 21.042 82.2617 21.14 81.543 21.14C80.955 21.14 80.3763 21.0793 79.807 20.958C79.2377 20.8367 78.7103 20.6547 78.225 20.412L78.813 18.886C79.6063 19.2687 80.4837 19.46 81.445 19.46C81.9583 19.46 82.3597 19.3853 82.649 19.236C82.9477 19.0773 83.097 18.858 83.097 18.578C83.097 18.3353 82.9943 18.1533 82.789 18.032C82.5837 17.9013 82.285 17.836 81.893 17.836H80.353V16.478H81.697C82.0797 16.478 82.3737 16.4173 82.579 16.296C82.7843 16.1747 82.887 15.9973 82.887 15.764C82.887 15.5213 82.7563 15.3347 82.495 15.204C82.243 15.0733 81.879 15.008 81.403 15.008C80.675 15.008 79.8817 15.1807 79.023 15.526L78.491 14.014C79.5363 13.5567 80.5537 13.328 81.543 13.328C82.2243 13.328 82.831 13.412 83.363 13.58C83.9043 13.748 84.329 13.9953 84.637 14.322C84.945 14.6393 85.099 15.0127 85.099 15.442C85.099 15.7967 84.9917 16.1187 84.777 16.408C84.5623 16.688 84.2683 16.912 83.895 17.08ZM90.3137 21.21C89.119 21.21 88.223 20.944 87.6257 20.412C87.0283 19.88 86.7297 19.096 86.7297 18.06V13.468H88.8997V16.016C89.1143 15.8667 89.3943 15.7407 89.7397 15.638C90.0943 15.5353 90.4957 15.484 90.9437 15.484C91.8677 15.484 92.591 15.7173 93.1137 16.184C93.6363 16.6507 93.8977 17.332 93.8977 18.228C93.8977 19.18 93.5757 19.9173 92.9317 20.44C92.2877 20.9533 91.415 21.21 90.3137 21.21ZM94.6957 13.468H96.8797V21H94.6957V13.468ZM90.3137 19.67C90.7617 19.67 91.1023 19.5393 91.3357 19.278C91.569 19.0167 91.6857 18.676 91.6857 18.256C91.6857 17.864 91.5643 17.5513 91.3217 17.318C91.0883 17.0753 90.7477 16.954 90.2997 16.954C89.9823 16.954 89.7023 17.0193 89.4597 17.15C89.2263 17.2713 89.0397 17.4393 88.8997 17.654V18.27C88.8997 18.7087 89.021 19.054 89.2637 19.306C89.5063 19.5487 89.8563 19.67 90.3137 19.67ZM102.288 18.144H101.154V21H98.9699V13.468H101.154V16.394H102.33L104.374 13.468H106.698L104.066 17.08L106.88 21H104.304L102.288 18.144ZM115.322 13.468V21H113.236V20.132C112.695 20.7853 111.911 21.112 110.884 21.112C110.175 21.112 109.531 20.9533 108.952 20.636C108.383 20.3187 107.935 19.866 107.608 19.278C107.281 18.69 107.118 18.0087 107.118 17.234C107.118 16.4593 107.281 15.778 107.608 15.19C107.935 14.602 108.383 14.1493 108.952 13.832C109.531 13.5147 110.175 13.356 110.884 13.356C111.845 13.356 112.597 13.6593 113.138 14.266V13.468H115.322ZM111.262 19.32C111.813 19.32 112.27 19.1333 112.634 18.76C112.998 18.3773 113.18 17.8687 113.18 17.234C113.18 16.5993 112.998 16.0953 112.634 15.722C112.27 15.3393 111.813 15.148 111.262 15.148C110.702 15.148 110.24 15.3393 109.876 15.722C109.512 16.0953 109.33 16.5993 109.33 17.234C109.33 17.8687 109.512 18.3773 109.876 18.76C110.24 19.1333 110.702 19.32 111.262 19.32ZM124.61 13.468V21H122.426V15.26H120.046L119.976 16.59C119.939 17.5793 119.845 18.4007 119.696 19.054C119.547 19.7073 119.304 20.2207 118.968 20.594C118.632 20.9673 118.165 21.154 117.568 21.154C117.251 21.154 116.873 21.098 116.434 20.986L116.546 19.194C116.695 19.2127 116.803 19.222 116.868 19.222C117.195 19.222 117.437 19.1053 117.596 18.872C117.764 18.6293 117.876 18.326 117.932 17.962C117.988 17.5887 118.03 17.0987 118.058 16.492L118.17 13.468H124.61ZM130.168 21.21C128.973 21.21 128.068 20.944 127.452 20.412C126.845 19.88 126.542 19.096 126.542 18.06V13.468H128.712V16.016C128.945 15.848 129.244 15.7173 129.608 15.624C129.981 15.5307 130.397 15.484 130.854 15.484C131.797 15.484 132.534 15.7173 133.066 16.184C133.598 16.6507 133.864 17.332 133.864 18.228C133.864 19.1893 133.533 19.9267 132.87 20.44C132.217 20.9533 131.316 21.21 130.168 21.21ZM130.168 19.67C130.635 19.67 130.994 19.544 131.246 19.292C131.507 19.04 131.638 18.6993 131.638 18.27C131.638 17.8593 131.512 17.5373 131.26 17.304C131.017 17.0707 130.667 16.954 130.21 16.954C129.874 16.954 129.575 17.0147 129.314 17.136C129.053 17.2573 128.852 17.43 128.712 17.654V18.27C128.712 18.7087 128.838 19.054 129.09 19.306C129.351 19.5487 129.711 19.67 130.168 19.67ZM135.269 13.468H137.439V16.408H140.715V13.468H142.899V21H140.715V18.186H137.439V21H135.269V13.468ZM148.405 21.21C147.211 21.21 146.315 20.944 145.717 20.412C145.12 19.88 144.821 19.096 144.821 18.06V13.468H146.991V16.016C147.206 15.8667 147.486 15.7407 147.831 15.638C148.186 15.5353 148.587 15.484 149.035 15.484C149.959 15.484 150.683 15.7173 151.205 16.184C151.728 16.6507 151.989 17.332 151.989 18.228C151.989 19.18 151.667 19.9173 151.023 20.44C150.379 20.9533 149.507 21.21 148.405 21.21ZM152.787 13.468H154.971V21H152.787V13.468ZM148.405 19.67C148.853 19.67 149.194 19.5393 149.427 19.278C149.661 19.0167 149.777 18.676 149.777 18.256C149.777 17.864 149.656 17.5513 149.413 17.318C149.18 17.0753 148.839 16.954 148.391 16.954C148.074 16.954 147.794 17.0193 147.551 17.15C147.318 17.2713 147.131 17.4393 146.991 17.654V18.27C146.991 18.7087 147.113 19.054 147.355 19.306C147.598 19.5487 147.948 19.67 148.405 19.67ZM164.496 13.468V21H162.41V20.118C162.13 20.4447 161.784 20.692 161.374 20.86C160.972 21.028 160.543 21.112 160.086 21.112C159.096 21.112 158.308 20.8273 157.72 20.258C157.141 19.6887 156.852 18.844 156.852 17.724V13.468H159.036V17.402C159.036 18.6153 159.544 19.222 160.562 19.222C161.094 19.222 161.518 19.054 161.836 18.718C162.153 18.3727 162.312 17.864 162.312 17.192V13.468H164.496ZM160.618 12.656C158.975 12.656 158.149 11.9327 158.14 10.486H159.568C159.577 10.8127 159.666 11.0693 159.834 11.256C160.011 11.4333 160.268 11.522 160.604 11.522C160.94 11.522 161.196 11.4333 161.374 11.256C161.56 11.0693 161.654 10.8127 161.654 10.486H163.11C163.1 11.9327 162.27 12.656 160.618 12.656ZM61.368 35.144H60.234V38H58.05V30.468H60.234V33.394H61.41L63.454 30.468H65.778L63.146 34.08L65.96 38H63.384L61.368 35.144ZM74.2564 30.468V38H72.0724V32.26H69.6924L69.6224 33.59C69.5851 34.5793 69.4918 35.4007 69.3424 36.054C69.1931 36.7073 68.9504 37.2207 68.6144 37.594C68.2784 37.9673 67.8118 38.154 67.2144 38.154C66.8971 38.154 66.5191 38.098 66.0804 37.986L66.1924 36.194C66.3418 36.2127 66.4491 36.222 66.5144 36.222C66.8411 36.222 67.0838 36.1053 67.2424 35.872C67.4104 35.6293 67.5224 35.326 67.5784 34.962C67.6344 34.5887 67.6764 34.0987 67.7044 33.492L67.8164 30.468H74.2564ZM83.9026 30.468V36.74C83.9026 38.1213 83.5526 39.148 82.8526 39.82C82.1526 40.492 81.1353 40.828 79.8006 40.828C79.0913 40.828 78.4193 40.7393 77.7846 40.562C77.1593 40.3847 76.632 40.128 76.2026 39.792L77.0706 38.224C77.388 38.4853 77.7753 38.6907 78.2326 38.84C78.69 38.9893 79.152 39.064 79.6186 39.064C80.3466 39.064 80.8786 38.896 81.2146 38.56C81.5506 38.224 81.7186 37.7107 81.7186 37.02V36.768C81.4386 37.048 81.1073 37.2627 80.7246 37.412C80.342 37.5613 79.9313 37.636 79.4926 37.636C78.5033 37.636 77.7193 37.356 77.1406 36.796C76.562 36.2267 76.2726 35.3773 76.2726 34.248V30.468H78.4566V33.926C78.4566 35.1487 78.9653 35.76 79.9826 35.76C80.5053 35.76 80.9253 35.592 81.2426 35.256C81.56 34.9107 81.7186 34.402 81.7186 33.73V30.468H83.9026ZM90.322 30.986C91.0406 30.986 91.6706 31.1353 92.212 31.434C92.7533 31.7233 93.1686 32.134 93.458 32.666C93.7566 33.198 93.906 33.814 93.906 34.514C93.906 35.2327 93.7286 35.872 93.374 36.432C93.0286 36.9827 92.5433 37.412 91.918 37.72C91.2926 38.0187 90.5833 38.168 89.79 38.168C88.474 38.168 87.438 37.748 86.682 36.908C85.9353 36.0587 85.562 34.8173 85.562 33.184C85.562 31.672 85.8886 30.468 86.542 29.572C87.2046 28.6667 88.2173 28.074 89.58 27.794L93.164 27.08L93.458 28.956L90.294 29.586C89.4353 29.754 88.796 30.034 88.376 30.426C87.9653 30.818 87.7226 31.3733 87.648 32.092C87.9746 31.7373 88.3666 31.4667 88.824 31.28C89.2813 31.084 89.7806 30.986 90.322 30.986ZM89.804 36.474C90.364 36.474 90.812 36.292 91.148 35.928C91.4933 35.564 91.666 35.102 91.666 34.542C91.666 33.9727 91.4933 33.52 91.148 33.184C90.812 32.848 90.364 32.68 89.804 32.68C89.2346 32.68 88.7773 32.848 88.432 33.184C88.0866 33.52 87.914 33.9727 87.914 34.542C87.914 35.1113 88.0913 35.578 88.446 35.942C88.8006 36.2967 89.2533 36.474 89.804 36.474Z" fill="#1F0738"/>
<path d="M16.2206 24.5C16.2206 24.5 18.3442 28.9559 25.989 25.9442C33.6339 22.9324 32.5104 28.4992 32.5104 28.4992C32.5104 28.4992 27.0302 29.104 24.8245 32.5725C22.6187 36.0409 17.0015 34.5104 15.9877 30.5112C14.9739 26.5119 13.138 27.9191 16.2206 24.5Z" fill="#B964D4"/>
<path d="M29.9898 27.5809C29.9898 27.5809 35.6702 25.6919 35.5764 40.1736C35.5764 40.1736 32.5754 47.0997 28.5563 46.9989L29.9898 27.5809Z" fill="#97B3EF"/>
<path d="M30.1686 23.1934C30.4657 23.3467 30.7901 23.4421 31.1239 23.4743C33.6053 23.7185 32.5383 23.169 33.8906 21.7648C33.8906 21.6427 33.8906 21.5206 33.8906 21.3985C34.3869 18.6877 34.0519 15.9158 34.3621 13.1928L34.5234 11.8496C34.5916 11.1838 34.5916 10.5129 34.5234 9.84704C34.5234 9.48072 33.5805 5.5 34.3497 5.5H31.1488C31.1488 5.5 31.1488 5.56105 31.1488 5.68316C31.2728 6.62339 31.8063 10.8117 31.1488 10.5675C30.8014 10.7629 29.784 13.205 29.1389 16.1722C28.5733 18.4189 28.4178 20.7467 28.6798 23.0469C28.7559 23.5516 28.9108 24.0418 29.1389 24.5L30.1686 23.1934Z" fill="#97B3EF"/>
<path d="M32.4597 27.5C32.4597 27.5 36.5404 34.5923 29.0654 42C28.9764 41.205 29.6884 28.4339 29.6884 28.4339L32.4597 27.5Z" fill="#B964D4"/>
<path d="M29.0577 23.5V16.3465V15.5" stroke="#3B2651" stroke-width="2" stroke-linecap="round" stroke-linejoin="round"/>
<path d="M33.0699 29H36.3478C37.0746 29 37.7716 28.7223 38.2855 28.228C38.7994 27.7337 39.0881 27.0633 39.0881 26.3643V15.7204C39.0906 15.19 38.9744 14.6652 38.7472 14.1818C38.4284 13.5255 37.9204 12.971 37.2836 12.5843C36.6467 12.1975 35.9078 11.9948 35.1547 12.0001H34.6564" stroke="#3B2651" stroke-width="2" stroke-linecap="round" stroke-linejoin="round"/>
<path d="M34.5744 5C33.5103 5 32.4898 5.36875 31.7374 6.02513C30.985 6.6815 30.5623 7.57174 30.5623 8.5C30.5623 9.42826 30.985 10.3185 31.7374 10.9749C32.4898 11.6313 33.5103 12 34.5744 12" stroke="#3B2651" stroke-width="2" stroke-linecap="round" stroke-linejoin="round"/>
<path d="M29.0578 15.5L22.0365 27.5" stroke="#3B2651" stroke-width="2" stroke-linecap="round" stroke-linejoin="round"/>
<path d="M44.2563 19.2546L46.1094 17L29.0577 23.5" stroke="#3B2651" stroke-width="2" stroke-linecap="round" stroke-linejoin="round"/>
<path d="M31.0639 46H30.8582H28.2436H27.5532L28.7724 29" stroke="#3B2651" stroke-width="2" stroke-linecap="round" stroke-linejoin="round"/>
<path d="M39.0881 25L40.5927 45.5" stroke="#3B2651" stroke-width="2" stroke-linecap="round" stroke-linejoin="round"/>
<path d="M35.0759 34V45.4804C35.0759 45.6182 35.1431 45.7504 35.2627 45.8478C35.3823 45.9453 35.5445 46 35.7136 46H39.955C40.1241 46 40.2863 45.9453 40.4059 45.8478C40.5255 45.7504 40.5926 45.6182 40.5926 45.4804" stroke="#3B2651" stroke-width="2" stroke-linecap="round" stroke-linejoin="round"/>
<path d="M12.5076 16.8101C12.5076 16.9664 12.5402 17.1211 12.6036 17.2655C12.6671 17.4098 12.76 17.541 12.8772 17.6515C12.9944 17.762 13.1336 17.8496 13.2867 17.9094C13.4398 17.9692 13.6039 18 13.7697 18C13.9354 18 14.0995 17.9692 14.2526 17.9094C14.4058 17.8496 14.5449 17.762 14.6621 17.6515C14.7793 17.541 14.8723 17.4098 14.9357 17.2655C14.9991 17.1211 15.0318 16.9664 15.0318 16.8101V11.9494L21.0334 11V15.8101C21.0334 15.9664 21.0008 16.1211 20.9373 16.2655C20.8739 16.4098 20.7809 16.541 20.6637 16.6515C20.5465 16.762 20.4074 16.8496 20.2543 16.9094C20.1012 16.9692 19.9371 17 19.7713 17C19.4366 17 19.1156 16.8746 18.8789 16.6515C18.6422 16.4283 18.5092 16.1257 18.5092 15.8101" stroke="#3B2651" stroke-width="2" stroke-linecap="round" stroke-linejoin="round"/>
<path d="M46.1094 30.8101C46.1094 31.1257 46.2419 31.4284 46.4779 31.6515C46.7138 31.8746 47.0338 32 47.3675 32C47.7012 32 48.0212 31.8746 48.2571 31.6515C48.4931 31.4284 48.6256 31.1257 48.6256 30.8101V25.9494L54.6352 25V29.8608C54.6352 30.1763 54.5027 30.479 54.2667 30.7021C54.0308 30.9253 53.7108 31.0506 53.3771 31.0506C53.0434 31.0506 52.7234 30.9253 52.4875 30.7021C52.2515 30.479 52.119 30.1763 52.119 29.8608" stroke="#3B2651" stroke-width="2" stroke-linecap="round" stroke-linejoin="round"/>
<path d="M48.1155 15.5C48.6694 15.5 49.1185 14.9404 49.1185 14.25C49.1185 13.5596 48.6694 13 48.1155 13C47.5615 13 47.1124 13.5596 47.1124 14.25C47.1124 14.9404 47.5615 15.5 48.1155 15.5Z" fill="#3B2651"/>
<path d="M19.7353 23.5L17.4623 24.0728C16.8684 24.2248 16.3202 24.5009 15.8601 24.8797C15.4 25.2586 15.0402 25.73 14.8086 26.2577C14.577 26.7854 14.4797 27.3552 14.5242 27.9232C14.5687 28.4911 14.7539 29.0421 15.0654 29.5334L17.3796 33.1738C17.7153 33.6988 18.1856 34.1394 18.749 34.4568C19.3124 34.7742 19.9517 34.9586 20.6105 34.9938C21.2693 35.029 21.9273 34.9139 22.5266 34.6587C23.1259 34.4035 23.648 34.0159 24.047 33.5302L27.5597 28.846H33.0699V25.8293" stroke="#3B2651" stroke-width="2" stroke-linecap="round" stroke-linejoin="round"/>
</g>
<defs>
<clipPath id="clip0_139_9">
<rect width="165" height="50" fill="white"/>
</clipPath>
</defs>
</svg>
